STARTFONT 2.1
FONT -Adobe-New Century Schoolbook-Bold-I-Normal--25-180-100-100-P-148-ISO10646-1
SIZE 18 100 100
FONTBOUNDINGBOX 34 41 -5 -11
COMMENT $Xorg: $
COMMENT ISO10646-1 extension by Markus Kuhn <mkuhn@acm.org>, 2001-03-20
COMMENT 
COMMENT +
COMMENT  Copyright 1984-1989, 1994 Adobe Systems Incorporated.
COMMENT  Copyright 1988, 1994 Digital Equipment Corporation.
COMMENT
COMMENT  Adobe is a trademark of Adobe Systems Incorporated which may be
COMMENT  registered in certain jurisdictions.
COMMENT  Permission to use these trademarks is hereby granted only in
COMMENT  association with the images described in this file.
COMMENT
COMMENT  Permission to use, copy, modify, distribute and sell this software
COMMENT  and its documentation for any purpose and without fee is hereby
COMMENT  granted, provided that the above copyright notices appear in all
COMMENT  copies and that both those copyright notices and this permission
COMMENT  notice appear in supporting documentation, and that the names of
COMMENT  Adobe Systems and Digital Equipment Corporation not be used in
COMMENT  advertising or publicity pertaining to distribution of the software
COMMENT  without specific, written prior permission.  Adobe Systems and
COMMENT  Digital Equipment Corporation make no representations about the
COMMENT  suitability of this software for any purpose.  It is provided "as
COMMENT  is" without express or implied warranty.
COMMENT -
STARTPROPERTIES 26
FOUNDRY "Adobe"
FAMILY_NAME "New Century Schoolbook"
WEIGHT_NAME "Bold"
SLANT "I"
SETWIDTH_NAME "Normal"
ADD_STYLE_NAME ""
PIXEL_SIZE 25
POINT_SIZE 180
RESOLUTION_X 100
RESOLUTION_Y 100
SPACING "P"
AVERAGE_WIDTH 148
CHARSET_REGISTRY "ISO10646"
CHARSET_ENCODING "1"
CAP_HEIGHT 18
X_HEIGHT 12
FONT_ASCENT 21
FONT_DESCENT 5
FACE_NAME "New Century Schoolbook Bold Italic"
COPYRIGHT "Copyright (c) 1984, 1987 Adobe Systems Incorporated. All Rights Reserved. Copyright (c) 1988, 1991 Digital Equipment Corporation. All Rights Reserved."

STARTCHAR char0
ENCODING 0
SWIDTH 870 0
DWIDTH 23 0
BBX 21 17 0 0
BITMAP
AAAAA8
000000
800008
000000
800008
000000
800008
000000
800008
000000
800008
000000
800008
000000
800008
000000
AAAAA8
ENDCHAR
STARTCHAR space
ENCODING 32
SWIDTH 287 0
DWIDTH 7 0
BBX 1 1 0 0
BITMAP
00
ENDCHAR
STARTCHAR exclam
ENCODING 33
SWIDTH 333 0
DWIDTH 8 0
BBX 7 18 0 0
BITMAP
1C
3E
3E
3E
3C
3C
38
38
38
30
30
30
30
00
70
F8
F8
70
ENDCHAR
STARTCHAR quotedbl
ENCODING 34
SWIDTH 400 0
DWIDTH 9 0
BBX 7 6 1 12
BITMAP
EE
EE
EE
CC
CC
88
ENDCHAR
STARTCHAR numbersign
ENCODING 35
SWIDTH 606 0
DWIDTH 14 0
BBX 13 18 0 0
BITMAP
0C60
0C60
0C60
0C60
0C60
7FF8
7FF8
18C0
18C0
18C0
18C0
FFF0
FFF0
3180
3180
3180
3180
3180
ENDCHAR
STARTCHAR dollar
ENCODING 36
SWIDTH 574 0
DWIDTH 14 0
BBX 13 21 0 -2
BITMAP
0080
07E0
1D30
3938
3178
7278
7A30
7E00
7F00
3FC0
1FE0
07F0
03F0
62F0
F270
F460
E4E0
65C0
3F00
0800
0800
ENDCHAR
STARTCHAR percent
ENCODING 37
SWIDTH 889 0
DWIDTH 21 0
BBX 20 19 0 -1
BITMAP
0F0400
3C9C00
38EC00
708800
709800
E11000
E13000
E22000
E461E0
784790
00C710
008E10
018E10
011C20
031C20
021C40
061C80
040F00
040000
ENDCHAR
STARTCHAR ampersand
ENCODING 38
SWIDTH 889 0
DWIDTH 21 0
BBX 21 18 0 0
BITMAP
00FC00
03CE00
038600
078600
078C00
07DC00
03F000
07C000
1FE000
39E1F8
71F0E0
70F0C0
F0F980
F07900
F07E00
F83E10
7C7F20
1F8FC0
ENDCHAR
STARTCHAR quotesingle
ENCODING 39
SWIDTH 287 0
DWIDTH 5 0
BBX 2 6 1 12
BITMAP
C0
C0
C0
C0
C0
C0
ENDCHAR
STARTCHAR parenleft
ENCODING 40
SWIDTH 407 0
DWIDTH 9 0
BBX 8 21 0 -3
BITMAP
01
06
0C
18
38
30
70
60
E0
E0
E0
E0
E0
E0
E0
E0
60
70
30
18
04
ENDCHAR
STARTCHAR parenright
ENCODING 41
SWIDTH 407 0
DWIDTH 9 0
BBX 8 21 0 -3
BITMAP
20
18
0C
0E
06
07
07
07
07
07
07
07
07
06
0E
0C
1C
18
30
60
80
ENDCHAR
STARTCHAR asterisk
ENCODING 42
SWIDTH 500 0
DWIDTH 12 0
BBX 11 10 0 8
BITMAP
0700
6700
7660
74E0
0FE0
FE00
E5C0
CDC0
1CC0
1C00
ENDCHAR
STARTCHAR plus
ENCODING 43
SWIDTH 606 0
DWIDTH 15 0
BBX 12 12 1 1
BITMAP
0600
0600
0600
0600
0600
FFF0
FFF0
0600
0600
0600
0600
0600
ENDCHAR
STARTCHAR comma
ENCODING 44
SWIDTH 287 0
DWIDTH 7 0
BBX 5 8 0 -4
BITMAP
70
F8
F8
78
10
20
40
80
ENDCHAR
STARTCHAR hyphen
ENCODING 45
SWIDTH 333 0
DWIDTH 7 0
BBX 6 2 0 6
BITMAP
FC
FC
ENDCHAR
STARTCHAR period
ENCODING 46
SWIDTH 287 0
DWIDTH 7 0
BBX 5 4 0 0
BITMAP
70
F8
F8
70
ENDCHAR
STARTCHAR slash
ENCODING 47
SWIDTH 278 0
DWIDTH 8 0
BBX 7 18 0 0
BITMAP
06
06
06
0C
0C
0C
18
18
18
30
30
30
60
60
60
C0
C0
C0
ENDCHAR
STARTCHAR zero
ENCODING 48
SWIDTH 574 0
DWIDTH 14 0
BBX 13 18 0 0
BITMAP
07C0
1EE0
3C70
3C70
7878
7878
7878
F078
F078
F078
F078
F0F0
F0F0
F0F0
71E0
71E0
7BC0
1F00
ENDCHAR
STARTCHAR one
ENCODING 49
SWIDTH 574 0
DWIDTH 14 0
BBX 10 18 1 0
BITMAP
0180
0780
3F80
0780
0780
0780
0F00
0F00
0F00
0F00
0F00
0F00
1E00
1E00
1E00
1E00
1E00
FFC0
ENDCHAR
STARTCHAR two
ENCODING 50
SWIDTH 574 0
DWIDTH 14 0
BBX 13 18 0 0
BITMAP
03C0
0FF0
18F0
3078
3878
3C78
3C78
1870
00F0
01E0
0380
0700
0C10
1810
3030
7FE0
FFE0
FFE0
ENDCHAR
STARTCHAR three
ENCODING 51
SWIDTH 574 0
DWIDTH 14 0
BBX 13 18 0 0
BITMAP
07C0
1CF0
3C78
3C78
1878
0078
00F0
01E0
0780
01E0
00E0
00F0
60F0
F0F0
F1E0
E1E0
63C0
3F00
ENDCHAR
STARTCHAR four
ENCODING 52
SWIDTH 574 0
DWIDTH 14 0
BBX 13 18 0 0
BITMAP
0018
0038
0078
00F0
01F0
03F0
06F0
0CE0
19E0
31E0
61E0
C1E0
83C0
FFF8
03C0
03C0
07C0
1FF0
ENDCHAR
STARTCHAR five
ENCODING 53
SWIDTH 574 0
DWIDTH 14 0
BBX 13 18 0 0
BITMAP
1FF8
1FF0
1FE0
1800
1800
3000
3780
3FE0
21F0
00F0
00F0
00F0
60F0
F0F0
F1E0
E1E0
63C0
3F00
ENDCHAR
STARTCHAR six
ENCODING 54
SWIDTH 574 0
DWIDTH 14 0
BBX 13 18 0 0
BITMAP
07E0
1E30
3C78
3C78
7830
7800
7800
F380
F7E0
F8F0
F0F0
F0F0
F0F0
F0F0
70E0
71E0
79C0
1F00
ENDCHAR
STARTCHAR seven
ENCODING 55
SWIDTH 574 0
DWIDTH 14 0
BBX 13 18 0 0
BITMAP
7FF8
7FF8
7FF0
C060
8060
80C0
00C0
0180
0380
0300
0700
0E00
0E00
1E00
1E00
3E00
3E00
1C00
ENDCHAR
STARTCHAR eight
ENCODING 56
SWIDTH 574 0
DWIDTH 14 0
BBX 13 18 0 0
BITMAP
07E0
1C70
1838
3838
3838
3C30
3E70
1FC0
1FC0
1FE0
73E0
61F0
E0F0
E0F0
E0F0
E0E0
F1E0
3F80
ENDCHAR
STARTCHAR nine
ENCODING 57
SWIDTH 574 0
DWIDTH 14 0
BBX 13 18 0 0
BITMAP
07C0
1CF0
3C70
3878
7878
7878
7878
7878
78F8
3F78
0E78
00F0
00F0
60F0
F1E0
F1E0
63C0
3F00
ENDCHAR
STARTCHAR colon
ENCODING 58
SWIDTH 287 0
DWIDTH 9 0
BBX 7 12 0 0
BITMAP
1C
3E
3E
1C
00
00
00
00
70
F8
F8
70
ENDCHAR
STARTCHAR semicolon
ENCODING 59
SWIDTH 287 0
DWIDTH 9 0
BBX 7 16 0 -4
BITMAP
1C
3E
3E
1C
00
00
00
00
70
F8
F8
78
10
20
40
80
ENDCHAR
STARTCHAR less
ENCODING 60
SWIDTH 606 0
DWIDTH 16 0
BBX 13 15 1 0
BITMAP
0008
0038
00F8
03E0
0F80
3E00
F800
E000
F800
3E00
0F80
03E0
00F8
0038
0008
ENDCHAR
STARTCHAR equal
ENCODING 61
SWIDTH 606 0
DWIDTH 15 0
BBX 12 6 1 4
BITMAP
FFF0
FFF0
0000
0000
FFF0
FFF0
ENDCHAR
STARTCHAR greater
ENCODING 62
SWIDTH 606 0
DWIDTH 16 0
BBX 13 15 1 0
BITMAP
8000
E000
F800
3E00
0F80
03E0
00F8
0038
00F8
03E0
0F80
3E00
F800
E000
8000
ENDCHAR
STARTCHAR question
ENCODING 63
SWIDTH 481 0
DWIDTH 12 0
BBX 10 18 1 0
BITMAP
3E00
4780
83C0
83C0
07C0
0F80
3F00
7E00
F800
F000
E000
C400
7800
0000
7000
F800
F800
7000
ENDCHAR
STARTCHAR at
ENCODING 64
SWIDTH 747 0
DWIDTH 21 0
BBX 18 18 1 0
BITMAP
03FE00
0E0300
180180
300180
61DCC0
673CC0
C71CC0
CE1CC0
CE1CC0
CE38C0
CE3980
CE3980
CE7B00
C79E00
C00000
600600
381C00
0FF000
ENDCHAR
STARTCHAR A
ENCODING 65
SWIDTH 741 0
DWIDTH 20 0
BBX 20 18 -1 0
BITMAP
000800
001800
001C00
003C00
007C00
007E00
00DE00
019E00
011F00
031F00
060F00
040F80
0FFF80
180F80
1807C0
3007C0
7007C0
FC1FF0
ENDCHAR
STARTCHAR B
ENCODING 66
SWIDTH 759 0
DWIDTH 19 0
BBX 18 18 0 0
BITMAP
3FFE00
0F8F80
0F87C0
0F87C0
0F87C0
0F87C0
1F0780
1F0F00
1FFC00
1F0F00
1F0780
1F07C0
3E07C0
3E07C0
3E07C0
3E0F80
3E1F00
FFFC00
ENDCHAR
STARTCHAR C
ENCODING 67
SWIDTH 759 0
DWIDTH 18 0
BBX 17 18 0 0
BITMAP
01FC80
0F8780
1E0380
3E0100
3C0100
7C0100
780000
F80000
F80000
F80000
F80000
F80000
F80000
780100
7C0300
3C0600
1E1C00
07F000
ENDCHAR
STARTCHAR D
ENCODING 68
SWIDTH 833 0
DWIDTH 21 0
BBX 20 18 0 0
BITMAP
3FFE00
0F8780
0F83C0
0F83E0
0F81E0
0F81F0
1F01F0
1F01F0
1F01F0
1F01F0
1F01F0
1F01E0
3E03E0
3E03C0
3E07C0
3E0780
3E1F00
FFF800
ENDCHAR
STARTCHAR E
ENCODING 69
SWIDTH 741 0
DWIDTH 18 0
BBX 17 18 0 0
BITMAP
3FFF80
0F8380
0F8180
0F8100
0F8100
0F8400
1F0400
1F0C00
1FFC00
1F1800
1F0800
1F0800
3E0900
3E0100
3E0300
3E0600
3E0E00
FFFE00
ENDCHAR
STARTCHAR F
ENCODING 70
SWIDTH 704 0
DWIDTH 17 0
BBX 17 18 0 0
BITMAP
3FFF80
0F8380
0F8180
0F8100
0F8100
0F8400
1F0400
1F0C00
1FFC00
1F1800
1F0800
1F0800
3E0800
3E0000
3E0000
3E0000
3E0000
FF8000
ENDCHAR
STARTCHAR G
ENCODING 71
SWIDTH 815 0
DWIDTH 19 0
BBX 18 18 0 0
BITMAP
01FE40
0F83C0
1E01C0
3E0080
3C0080
7C0080
780000
F80000
F80000
F80000
F81FC0
F80780
F80780
780780
7C0F00
3C0F00
1E1F00
07F100
ENDCHAR
STARTCHAR H
ENCODING 72
SWIDTH 870 0
DWIDTH 23 0
BBX 22 18 0 0
BITMAP
3FE7FC
0F81F0
0F81F0
0F81F0
0F81F0
0F81F0
1F03E0
1F03E0
1FFFE0
1F03E0
1F03E0
1F03E0
3E07C0
3E07C0
3E07C0
3E07C0
3E07C0
FF9FF0
ENDCHAR
STARTCHAR I
ENCODING 73
SWIDTH 444 0
DWIDTH 12 0
BBX 11 18 0 0
BITMAP
3FE0
0F80
0F80
0F80
0F80
0F80
1F00
1F00
1F00
1F00
1F00
1F00
3E00
3E00
3E00
3E00
3E00
FF80
ENDCHAR
STARTCHAR J
ENCODING 74
SWIDTH 667 0
DWIDTH 17 0
BBX 17 18 -1 0
BITMAP
00FF80
003E00
003E00
003E00
003E00
003E00
007C00
007C00
007C00
007C00
007C00
387C00
7CF800
FCF800
D8F800
C0F800
71F000
1FC000
ENDCHAR
STARTCHAR K
ENCODING 75
SWIDTH 778 0
DWIDTH 20 0
BBX 20 18 0 0
BITMAP
3FE3F0
0F81C0
0F8180
0F8300
0F8600
0F8C00
1F1800
1F3000
1F7800
1FF800
1F7C00
1F3E00
3E3E00
3E1F00
3E1F80
3E0F80
3E0FC0
FF9FE0
ENDCHAR
STARTCHAR L
ENCODING 76
SWIDTH 704 0
DWIDTH 18 0
BBX 17 18 0 0
BITMAP
3FE000
0F8000
0F8000
0F8000
0F8000
0F8000
1F0000
1F0000
1F0000
1F0000
1F0000
1F0000
3E0080
3E0080
3E0180
3E0300
3E0F00
FFFF00
ENDCHAR
STARTCHAR M
ENCODING 77
SWIDTH 944 0
DWIDTH 26 0
BBX 25 18 0 0
BITMAP
3FC03F80
0FC07E00
0FC07E00
0FC0FE00
0FC0BE00
0BE1BE00
0BE17C00
1BE37C00
1BE27C00
1BE67C00
11E47C00
11EC7C00
11F8F800
31F8F800
31F0F800
30F0F800
30E0F800
FCE3FE00
ENDCHAR
STARTCHAR N
ENCODING 78
SWIDTH 852 0
DWIDTH 22 0
BBX 21 18 0 0
BITMAP
3E01F8
0F0060
0F8060
0FC060
0FE040
0FE040
0BF040
19F8C0
18FCC0
18FC80
187E80
103F80
101F80
301F00
300F00
300700
300300
FC0300
ENDCHAR
STARTCHAR O
ENCODING 79
SWIDTH 833 0
DWIDTH 20 0
BBX 19 18 0 0
BITMAP
01FC00
0F8F00
1E0780
3E07C0
3C03C0
7C03E0
7803E0
F803E0
F803E0
F803E0
F803E0
F803C0
F807C0
780780
7C0F80
3C0F00
1E3E00
07F000
ENDCHAR
STARTCHAR P
ENCODING 80
SWIDTH 741 0
DWIDTH 19 0
BBX 19 18 0 0
BITMAP
3FFF00
0F87C0
0F83E0
0F83E0
0F83E0
0F83E0
1F03E0
1F07C0
1F0F80
1FFE00
1F0000
1F0000
3E0000
3E0000
3E0000
3E0000
3E0000
FF8000
ENDCHAR
STARTCHAR Q
ENCODING 81
SWIDTH 833 0
DWIDTH 20 0
BBX 19 23 0 -5
BITMAP
01FC00
0F8F00
1E0780
3E07C0
3C03C0
7C03E0
7803E0
F803E0
F803E0
F803E0
F803E0
F9C3C0
FBE7C0
7CE780
7C6780
3C6F00
1E7E00
07F800
003C00
003C00
001E40
001F80
000F00
ENDCHAR
STARTCHAR R
ENCODING 82
SWIDTH 796 0
DWIDTH 20 0
BBX 19 18 0 0
BITMAP
3FFF00
0F87C0
0F83E0
0F83E0
0F83E0
0F83E0
1F03C0
1F0780
1FFC00
1F3C00
1F1E00
1F1E00
3E1F00
3E1F00
3E1F20
3E0FA0
3E0FC0
FF8780
ENDCHAR
STARTCHAR S
ENCODING 83
SWIDTH 685 0
DWIDTH 16 0
BBX 15 18 0 0
BITMAP
03F2
0E1E
180E
3804
3804
3C04
3F00
3FE0
1FF8
1FF8
07FC
00FC
403C
401C
401C
E018
F070
9FC0
ENDCHAR
STARTCHAR T
ENCODING 84
SWIDTH 722 0
DWIDTH 18 0
BBX 17 18 0 0
BITMAP
7FFF80
73E780
E3E380
C3E300
83E100
83E100
07C000
07C000
07C000
07C000
07C000
07C000
0F8000
0F8000
0F8000
0F8000
0F8000
3FE000
ENDCHAR
STARTCHAR U
ENCODING 85
SWIDTH 833 0
DWIDTH 20 0
BBX 19 18 1 0
BITMAP
FF87E0
3E0180
3E0180
3E0180
3E0180
7C0100
7C0100
7C0300
7C0300
7C0300
7C0200
F80200
F80600
F80600
F80600
F80C00
7C3C00
1FF000
ENDCHAR
STARTCHAR V
ENCODING 86
SWIDTH 741 0
DWIDTH 19 0
BBX 20 18 0 0
BITMAP
FF83F0
3E00C0
3E0080
3E0180
1F0100
1F0300
1F0200
0F8600
0F8400
0F8C00
07C800
07D800
07D000
03F000
03E000
03E000
01C000
01C000
ENDCHAR
STARTCHAR W
ENCODING 87
SWIDTH 944 0
DWIDTH 25 0
BBX 25 18 0 0
BITMAP
FF8F1F80
3E0F0600
3E0F0400
3E1F0C00
3E1F0800
3E1F0800
1F3F9800
1F2F9000
1F2F9000
1F6FB000
1F4FA000
1F4FA000
0F87C000
0F87C000
0F078000
07038000
06030000
06030000
ENDCHAR
STARTCHAR X
ENCODING 88
SWIDTH 741 0
DWIDTH 21 0
BBX 22 18 -1 0
BITMAP
1FF1FC
07C070
03E060
03E0C0
01F180
01F300
00FE00
00FC00
007C00
007C00
00FE00
01BE00
031F00
061F00
0C0F80
180F80
3807C0
FC1FF0
ENDCHAR
STARTCHAR Y
ENCODING 89
SWIDTH 704 0
DWIDTH 18 0
BBX 19 18 0 0
BITMAP
FF8FE0
3E0380
3E0300
3E0600
1F0400
1F0C00
1F1800
0F9000
0FB000
0FE000
07C000
07C000
078000
0F8000
0F8000
0F8000
0F8000
3FE000
ENDCHAR
STARTCHAR Z
ENCODING 90
SWIDTH 704 0
DWIDTH 18 0
BBX 17 18 0 0
BITMAP
1FFF80
1C0F80
181F80
303F00
207E00
207C00
00F800
01F000
03F000
07E000
0FC000
0F8000
1F0100
3F0100
7E0300
FC0600
FC0E00
FFFE00
ENDCHAR
STARTCHAR bracketleft
ENCODING 91
SWIDTH 407 0
DWIDTH 9 0
BBX 9 21 0 -3
BITMAP
1F80
1C00
1C00
1C00
1C00
3800
3800
3800
3800
3800
7000
7000
7000
7000
7000
E000
E000
E000
E000
E000
FC00
ENDCHAR
STARTCHAR backslash
ENCODING 92
SWIDTH 606 0
DWIDTH 11 0
BBX 10 18 0 0
BITMAP
C000
C000
6000
6000
3000
3000
1800
1800
0C00
0C00
0600
0600
0300
0300
0180
0180
00C0
00C0
ENDCHAR
STARTCHAR bracketright
ENCODING 93
SWIDTH 407 0
DWIDTH 10 0
BBX 9 21 -1 -3
BITMAP
1F80
0380
0380
0380
0380
0700
0700
0700
0700
0700
0E00
0E00
0E00
0E00
0E00
1C00
1C00
1C00
1C00
1C00
FC00
ENDCHAR
STARTCHAR asciicircum
ENCODING 94
SWIDTH 606 0
DWIDTH 15 0
BBX 13 11 1 7
BITMAP
0700
0700
0F80
0D80
1DC0
18C0
38E0
3060
7070
6030
E038
ENDCHAR
STARTCHAR underscore
ENCODING 95
SWIDTH 500 0
DWIDTH 15 0
BBX 15 2 0 -4
BITMAP
FFFE
FFFE
ENDCHAR
STARTCHAR grave
ENCODING 96
SWIDTH 333 0
DWIDTH 7 0
BBX 6 5 0 13
BITMAP
C0
E0
F0
38
0C
ENDCHAR
STARTCHAR a
ENCODING 97
SWIDTH 667 0
DWIDTH 16 0
BBX 15 12 0 0
BITMAP
0FBC
3C7C
783C
783C
F078
F078
F078
F078
F0F0
70F2
79F4
1E78
ENDCHAR
STARTCHAR b
ENCODING 98
SWIDTH 611 0
DWIDTH 15 0
BBX 13 18 0 0
BITMAP
7E00
1E00
1E00
1E00
3C00
3C00
3DC0
3EF0
7870
7878
7078
7078
F078
F078
F0F0
70F0
79E0
1F80
ENDCHAR
STARTCHAR c
ENCODING 99
SWIDTH 537 0
DWIDTH 14 0
BBX 12 12 1 0
BITMAP
0FE0
3CF0
78F0
7860
F000
F000
F000
F000
F000
7020
78C0
1F00
ENDCHAR
STARTCHAR d
ENCODING 100
SWIDTH 667 0
DWIDTH 16 0
BBX 15 18 0 0
BITMAP
007E
001E
001E
001E
003C
003C
0FBC
3CFC
787C
7878
F078
F078
F078
F078
F0F0
70F2
79F4
1E78
ENDCHAR
STARTCHAR e
ENCODING 101
SWIDTH 519 0
DWIDTH 14 0
BBX 12 12 0 0
BITMAP
0FC0
3CF0
7870
7870
F0F0
F1E0
FF00
F000
F000
7020
78C0
1F00
ENDCHAR
STARTCHAR f
ENCODING 102
SWIDTH 389 0
DWIDTH 10 0
BBX 14 23 -1 -5
BITMAP
01F8
07BC
07BC
0F18
0F00
0F00
3FE0
1E00
1E00
1E00
1E00
3C00
3C00
3C00
3C00
7800
7800
7800
7800
F000
F000
F000
C000
ENDCHAR
STARTCHAR g
ENCODING 103
SWIDTH 611 0
DWIDTH 15 0
BBX 15 20 -2 -5
BITMAP
0006
000E
0018
03F8
0F3C
0E1E
1E1E
1E1E
1E1E
0F3C
07F0
1C00
3800
3FE0
1FF8
307C
E03C
E03C
F078
3FE0
ENDCHAR
STARTCHAR h
ENCODING 104
SWIDTH 685 0
DWIDTH 16 0
BBX 15 18 0 0
BITMAP
7E00
1E00
1E00
1E00
3C00
3C00
3C78
3CFC
3D3C
7E3C
7C78
7878
7878
7878
F0F0
F0F2
F0F4
F078
ENDCHAR
STARTCHAR i
ENCODING 105
SWIDTH 389 0
DWIDTH 8 0
BBX 7 17 0 0
BITMAP
0E
0E
0E
00
00
FC
3C
3C
3C
78
78
78
78
F0
F2
F4
78
ENDCHAR
STARTCHAR j
ENCODING 106
SWIDTH 370 0
DWIDTH 9 0
BBX 13 22 -5 -5
BITMAP
0038
0038
0038
0000
0000
03F0
00F0
00F0
00F0
01E0
01E0
01E0
01E0
03C0
03C0
03C0
03C0
6780
F780
F780
EF00
7C00
ENDCHAR
STARTCHAR k
ENCODING 107
SWIDTH 648 0
DWIDTH 16 0
BBX 15 18 0 0
BITMAP
7E00
1E00
1E00
1E00
1E00
3C00
3CF8
3D3C
3E3C
3C3C
7878
7B80
79E0
78E0
F0F0
F0F2
F0F4
F078
ENDCHAR
STARTCHAR l
ENCODING 108
SWIDTH 389 0
DWIDTH 8 0
BBX 7 18 0 0
BITMAP
7E
1E
1E
1E
3C
3C
3C
3C
3C
78
78
78
78
78
F0
F2
F4
78
ENDCHAR
STARTCHAR m
ENCODING 109
SWIDTH 944 0
DWIDTH 24 0
BBX 23 12 0 0
BITMAP
FC7878
3CFCFC
3D3D3C
3E3E3C
7C7C78
787878
787878
787878
F0F0F0
F0F0F2
F0F0F4
F0F078
ENDCHAR
STARTCHAR n
ENCODING 110
SWIDTH 685 0
DWIDTH 16 0
BBX 15 12 0 0
BITMAP
FC38
3CFC
3D3C
3E3C
7C78
7878
7878
7878
F0F0
F0F2
F0F4
F078
ENDCHAR
STARTCHAR o
ENCODING 111
SWIDTH 574 0
DWIDTH 15 0
BBX 13 12 0 0
BITMAP
0FC0
3CF0
7870
7878
F078
F078
F078
F078
F0F0
70F0
79E0
1F80
ENDCHAR
STARTCHAR p
ENCODING 112
SWIDTH 648 0
DWIDTH 16 0
BBX 17 17 -3 -5
BITMAP
1FBC00
07CF00
078700
078780
078780
0F0780
0F0780
0F0780
0F0F00
1F0F00
1F9E00
1EF800
1E0000
3C0000
3C0000
3C0000
FF0000
ENDCHAR
STARTCHAR q
ENCODING 113
SWIDTH 630 0
DWIDTH 16 0
BBX 14 17 0 -5
BITMAP
0F8C
3CDC
787C
787C
F078
F078
F078
F078
F0F0
70F0
79F0
1EF0
00F0
01E0
01E0
01E0
07F8
ENDCHAR
STARTCHAR r
ENCODING 114
SWIDTH 519 0
DWIDTH 13 0
BBX 12 12 0 0
BITMAP
FCE0
3DF0
3EF0
3C60
7800
7800
7800
7800
F000
F000
F000
F000
ENDCHAR
STARTCHAR s
ENCODING 115
SWIDTH 481 0
DWIDTH 13 0
BBX 11 12 0 0
BITMAP
0FC0
39E0
71E0
78C0
7E00
3F00
0F80
03C0
61C0
F1C0
F380
7E00
ENDCHAR
STARTCHAR t
ENCODING 116
SWIDTH 407 0
DWIDTH 10 0
BBX 9 16 0 0
BITMAP
1E00
1E00
1E00
1E00
FF80
3C00
3C00
3C00
7800
7800
7800
7800
F000
F100
F200
7C00
ENDCHAR
STARTCHAR u
ENCODING 117
SWIDTH 685 0
DWIDTH 16 0
BBX 15 12 0 0
BITMAP
FC3C
3C3C
3C3C
3C3C
7878
7878
7878
78F8
F1F0
F2F2
FCF4
7878
ENDCHAR
STARTCHAR v
ENCODING 118
SWIDTH 556 0
DWIDTH 13 0
BBX 12 12 0 0
BITMAP
FC60
3C70
3C30
7810
7810
7810
F020
F020
F040
F040
7980
3E00
ENDCHAR
STARTCHAR w
ENCODING 119
SWIDTH 833 0
DWIDTH 20 0
BBX 19 12 0 0
BITMAP
FC3CC0
3C3CE0
3C3C60
787820
787820
787820
F0F020
F0F040
F0F040
F0F080
797900
3E3E00
ENDCHAR
STARTCHAR x
ENCODING 120
SWIDTH 574 0
DWIDTH 15 0
BBX 15 12 -1 0
BITMAP
1E0E
3E1E
4F3C
0F60
07C0
0780
0380
07C0
0FC0
79E4
F1F8
E0F0
ENDCHAR
STARTCHAR y
ENCODING 121
SWIDTH 519 0
DWIDTH 13 0
BBX 15 17 -3 -5
BITMAP
0E0C
1F0E
2F06
0784
078C
0788
03D8
03D0
03F0
01E0
01E0
01C0
0180
6300
F600
FC00
7000
ENDCHAR
STARTCHAR z
ENCODING 122
SWIDTH 519 0
DWIDTH 14 0
BBX 13 12 0 0
BITMAP
1E18
3FF8
7FF0
41E0
00C0
0180
0600
1C00
3E10
7FF0
FFE0
C7C0
ENDCHAR
STARTCHAR braceleft
ENCODING 123
SWIDTH 407 0
DWIDTH 8 0
BBX 7 21 0 -3
BITMAP
0E
18
18
18
18
38
38
30
20
C0
60
60
60
60
60
E0
E0
C0
C0
C0
70
ENDCHAR
STARTCHAR bar
ENCODING 124
SWIDTH 606 0
DWIDTH 15 0
BBX 2 18 6 0
BITMAP
C0
C0
C0
C0
C0
C0
C0
C0
C0
C0
C0
C0
C0
C0
C0
C0
C0
C0
ENDCHAR
STARTCHAR braceright
ENCODING 125
SWIDTH 407 0
DWIDTH 8 0
BBX 7 21 -1 -3
BITMAP
1C
06
06
06
0E
0C
0C
0C
0C
06
08
18
18
18
38
30
30
30
30
30
E0
ENDCHAR
STARTCHAR asciitilde
ENCODING 126
SWIDTH 606 0
DWIDTH 14 0
BBX 13 4 0 6
BITMAP
3C18
7F18
C7F0
C1E0
ENDCHAR
STARTCHAR space
ENCODING 160
SWIDTH 287 0
DWIDTH 7 0
BBX 1 1 0 0
BITMAP
00
ENDCHAR
STARTCHAR exclamdown
ENCODING 161
SWIDTH 333 0
DWIDTH 9 0
BBX 7 18 0 -5
BITMAP
1C
3E
3E
1C
00
18
18
18
18
38
38
38
78
78
F8
F8
F8
70
ENDCHAR
STARTCHAR cent
ENCODING 162
SWIDTH 574 0
DWIDTH 14 0
BBX 13 16 0 -2
BITMAP
0020
0020
0FF0
3C78
78F8
78B0
F080
F100
F100
F100
F200
7210
7A60
1F80
0400
0400
ENDCHAR
STARTCHAR sterling
ENCODING 163
SWIDTH 574 0
DWIDTH 16 0
BBX 15 18 0 0
BITMAP
01F0
0718
0E3C
0E3C
1E18
1E00
1E00
1E00
7FE0
0F00
0F00
0F00
0E00
0E00
7C02
8FFC
9FF8
63E0
ENDCHAR
STARTCHAR currency
ENCODING 164
SWIDTH 574 0
DWIDTH 15 0
BBX 12 12 1 3
BITMAP
CF30
FFF0
70E0
6060
C030
C030
C030
C030
6060
70E0
FFF0
CF30
ENDCHAR
STARTCHAR yen
ENCODING 165
SWIDTH 574 0
DWIDTH 18 0
BBX 19 18 0 0
BITMAP
FF0FE0
3C0380
3C0300
1E0600
1E0C00
1E1800
0F3000
0F6000
0FC000
7FF800
078000
078000
7FF000
0F0000
0F0000
0F0000
0F0000
3FC000
ENDCHAR
STARTCHAR brokenbar
ENCODING 166
SWIDTH 606 0
DWIDTH 15 0
BBX 2 18 6 0
BITMAP
C0
C0
C0
C0
C0
C0
C0
00
00
00
C0
C0
C0
C0
C0
C0
C0
C0
ENDCHAR
STARTCHAR section
ENCODING 167
SWIDTH 500 0
DWIDTH 15 0
BBX 13 22 0 -4
BITMAP
01E0
0630
0C78
1C78
1C30
1E00
1F00
0FC0
1FF0
23F8
60F8
7078
7838
7E30
3FA0
1FC0
07E0
61E0
F0E0
F0C0
6180
3E00
ENDCHAR
STARTCHAR dieresis
ENCODING 168
SWIDTH 333 0
DWIDTH 11 0
BBX 10 4 1 13
BITMAP
6180
F3C0
F3C0
6180
ENDCHAR
STARTCHAR copyright
ENCODING 169
SWIDTH 747 0
DWIDTH 19 0
BBX 18 18 0 0
BITMAP
03F000
0E1C00
180600
300300
63F180
663180
CC10C0
CC00C0
CC00C0
CC00C0
CC00C0
CC08C0
661180
63E180
300300
180600
0E1C00
03F000
ENDCHAR
STARTCHAR ordfeminine
ENCODING 170
SWIDTH 412 0
DWIDTH 10 0
BBX 9 10 0 8
BITMAP
3B00
6700
C300
C600
C600
CE80
7700
0000
0000
FF00
ENDCHAR
STARTCHAR guillemotleft
ENCODING 171
SWIDTH 481 0
DWIDTH 12 0
BBX 11 8 0 2
BITMAP
0C60
18C0
3180
6300
E700
6300
3180
18C0
ENDCHAR
STARTCHAR logicalnot
ENCODING 172
SWIDTH 606 0
DWIDTH 14 0
BBX 11 7 1 3
BITMAP
FFE0
FFE0
0060
0060
0060
0060
0060
ENDCHAR
STARTCHAR hyphen
ENCODING 173
SWIDTH 333 0
DWIDTH 7 0
BBX 6 2 0 6
BITMAP
FC
FC
ENDCHAR
STARTCHAR registered
ENCODING 174
SWIDTH 747 0
DWIDTH 19 0
BBX 18 18 0 0
BITMAP
03F000
0E1C00
180600
300300
67F180
631980
C318C0
C318C0
C3E0C0
C330C0
C330C0
C318C0
631980
679D80
300300
180600
0E1C00
03F000
ENDCHAR
STARTCHAR macron
ENCODING 175
SWIDTH 333 0
DWIDTH 9 0
BBX 8 2 1 14
BITMAP
FF
FF
ENDCHAR
STARTCHAR degree
ENCODING 176
SWIDTH 400 0
DWIDTH 9 0
BBX 8 7 0 11
BITMAP
3C
66
C3
C3
C3
66
3C
ENDCHAR
STARTCHAR plusminus
ENCODING 177
SWIDTH 606 0
DWIDTH 15 0
BBX 12 13 1 0
BITMAP
0600
0600
0600
0600
FFF0
FFF0
0600
0600
0600
0600
0000
FFF0
FFF0
ENDCHAR
STARTCHAR twosuperior
ENCODING 178
SWIDTH 344 0
DWIDTH 8 0
BBX 8 11 0 7
BITMAP
1E
23
63
63
06
0C
18
30
62
FC
FC
ENDCHAR
STARTCHAR threesuperior
ENCODING 179
SWIDTH 344 0
DWIDTH 8 0
BBX 8 11 0 7
BITMAP
1E
23
63
63
06
1C
06
06
C6
CC
78
ENDCHAR
STARTCHAR acute
ENCODING 180
SWIDTH 333 0
DWIDTH 7 0
BBX 6 5 1 13
BITMAP
0C
1C
3C
70
C0
ENDCHAR
STARTCHAR mu
ENCODING 181
SWIDTH 576 0
DWIDTH 16 0
BBX 17 17 -2 -5
BITMAP
3F0F00
0F0F00
0F0F00
0F0F00
1E1E00
1E1E00
1E1E00
1E3E00
3C7C00
3CBC80
3F3D00
7E1E00
700000
700000
F00000
F80000
700000
ENDCHAR
STARTCHAR paragraph
ENCODING 182
SWIDTH 650 0
DWIDTH 16 0
BBX 15 18 0 0
BITMAP
1FFE
7D98
7998
F998
F198
F198
F330
7B30
3F30
0330
0330
0330
0660
0660
0660
0660
0660
1FF8
ENDCHAR
STARTCHAR periodcentered
ENCODING 183
SWIDTH 287 0
DWIDTH 7 0
BBX 4 5 1 5
BITMAP
60
F0
F0
F0
60
ENDCHAR
STARTCHAR cedilla
ENCODING 184
SWIDTH 333 0
DWIDTH 7 0
BBX 4 5 0 -5
BITMAP
20
70
30
30
E0
ENDCHAR
STARTCHAR onesuperior
ENCODING 185
SWIDTH 344 0
DWIDTH 8 0
BBX 6 11 0 7
BITMAP
04
0C
3C
18
18
18
38
30
30
30
FC
ENDCHAR
STARTCHAR ordmasculine
ENCODING 186
SWIDTH 356 0
DWIDTH 8 0
BBX 7 10 0 8
BITMAP
3C
66
C6
C6
C6
CC
78
00
00
FE
ENDCHAR
STARTCHAR guillemotright
ENCODING 187
SWIDTH 481 0
DWIDTH 12 0
BBX 11 8 0 2
BITMAP
6300
3180
18C0
1CE0
18C0
3180
6300
C600
ENDCHAR
STARTCHAR onequarter
ENCODING 188
SWIDTH 861 0
DWIDTH 21 0
BBX 18 18 0 0
BITMAP
040C00
0C0C00
3C1800
181800
183000
183000
386000
306080
30C180
30C380
FD8580
018980
031100
032300
066300
067FC0
0C0300
0C0780
ENDCHAR
STARTCHAR onehalf
ENCODING 189
SWIDTH 861 0
DWIDTH 21 0
BBX 18 18 0 0
BITMAP
040C00
0C0C00
3C1800
181800
183000
183000
386000
306780
30C8C0
30D8C0
FD98C0
018180
030300
030600
060C00
061800
0C3180
0C3F00
ENDCHAR
STARTCHAR threequarters
ENCODING 190
SWIDTH 861 0
DWIDTH 21 0
BBX 18 18 0 0
BITMAP
1E0C00
230C00
631800
631800
063000
1C3000
066000
066080
C6C180
CCC380
798580
018980
031100
032300
066300
067FC0
0C0300
0C0780
ENDCHAR
STARTCHAR questiondown
ENCODING 191
SWIDTH 481 0
DWIDTH 12 0
BBX 10 18 -1 -5
BITMAP
0380
07C0
07C0
0380
0000
0780
08C0
01C0
03C0
07C0
1F80
3F00
7C00
F800
F040
F040
7880
1F00
ENDCHAR
STARTCHAR Agrave
ENCODING 192
SWIDTH 741 0
DWIDTH 20 0
BBX 20 23 -1 0
BITMAP
00C000
00E000
00F000
003800
000C00
000000
001800
001C00
003C00
007C00
007E00
00DE00
019E00
011F00
031F00
060F00
040F80
0FFF80
180F80
1807C0
3007C0
7007C0
FC1FF0
ENDCHAR
STARTCHAR Aacute
ENCODING 193
SWIDTH 741 0
DWIDTH 20 0
BBX 20 24 -1 0
BITMAP
000180
000380
000780
000E00
001800
000000
000800
001800
001C00
003C00
007C00
007E00
00DE00
019E00
011F00
031F00
060F00
040F80
0FFF80
180F80
1807C0
3007C0
7007C0
FC1FF0
ENDCHAR
STARTCHAR Acircumflex
ENCODING 194
SWIDTH 741 0
DWIDTH 20 0
BBX 20 23 -1 0
BITMAP
000600
000E00
001E00
003300
006300
000000
001800
001C00
003C00
007C00
007E00
00DE00
019E00
011F00
031F00
060F00
040F80
0FFF80
180F80
1807C0
3007C0
7007C0
FC1FF0
ENDCHAR
STARTCHAR Atilde
ENCODING 195
SWIDTH 741 0
DWIDTH 20 0
BBX 20 22 -1 0
BITMAP
003C40
007F80
008F00
000000
000800
001800
001C00
003C00
007C00
007E00
00DE00
019E00
011F00
031F00
060F00
040F80
0FFF80
180F80
1807C0
3007C0
7007C0
FC1FF0
ENDCHAR
STARTCHAR Adieresis
ENCODING 196
SWIDTH 741 0
DWIDTH 20 0
BBX 20 22 -1 0
BITMAP
006180
00F3C0
00F3C0
006180
000000
001800
001C00
003C00
007C00
007E00
00DE00
019E00
011F00
031F00
060F00
040F80
0FFF80
180F80
1807C0
3007C0
7007C0
FC1FF0
ENDCHAR
STARTCHAR Aring
ENCODING 197
SWIDTH 741 0
DWIDTH 20 0
BBX 20 23 -1 0
BITMAP
001C00
003600
002200
003600
001C00
000000
001800
001C00
003C00
007C00
007E00
00DE00
019E00
011F00
031F00
060F00
040F80
0FFF80
180F80
1807C0
3007C0
7007C0
FC1FF0
ENDCHAR
STARTCHAR AE
ENCODING 198
SWIDTH 889 0
DWIDTH 24 0
BBX 24 18 -1 0
BITMAP
03FFFF
005F07
00DF03
009F02
019F02
011F00
033E08
023E18
063FF8
07FE30
0C3E10
083E10
187C11
107C01
307C03
207C06
607C1E
F9FFFE
ENDCHAR
STARTCHAR Ccedilla
ENCODING 199
SWIDTH 759 0
DWIDTH 18 0
BBX 17 23 0 -5
BITMAP
01FC80
0F8780
1E0380
3E0100
3C0100
7C0100
780000
F80000
F80000
F80000
F80000
F80000
F80000
780100
7C0300
3C0600
1E1C00
07F000
008000
01C000
00C000
00C000
038000
ENDCHAR
STARTCHAR Egrave
ENCODING 200
SWIDTH 741 0
DWIDTH 18 0
BBX 17 24 0 0
BITMAP
060000
070000
078000
01C000
006000
000000
3FFF80
0F8380
0F8180
0F8100
0F8100
0F8400
1F0400
1F0C00
1FFC00
1F1800
1F0800
1F0800
3E0880
3E0080
3E0180
3E0300
3E0F00
FFFF00
ENDCHAR
STARTCHAR Eacute
ENCODING 201
SWIDTH 741 0
DWIDTH 18 0
BBX 17 24 0 0
BITMAP
000600
000E00
001E00
003800
006000
000000
3FFF80
0F8380
0F8180
0F8100
0F8100
0F8400
1F0400
1F0C00
1FFC00
1F1800
1F0800
1F0800
3E0880
3E0080
3E0180
3E0300
3E0F00
FFFF00
ENDCHAR
STARTCHAR Ecircumflex
ENCODING 202
SWIDTH 741 0
DWIDTH 18 0
BBX 17 24 0 0
BITMAP
001800
003800
007800
00CC00
018C00
000000
3FFF80
0F8380
0F8180
0F8100
0F8100
0F8400
1F0400
1F0C00
1FFC00
1F1800
1F0800
1F0800
3E0880
3E0080
3E0180
3E0300
3E0F00
FFFF00
ENDCHAR
STARTCHAR Edieresis
ENCODING 203
SWIDTH 741 0
DWIDTH 18 0
BBX 17 23 0 0
BITMAP
030C00
079E00
079E00
030C00
000000
3FFF80
0F8380
0F8180
0F8100
0F8100
0F8400
1F0400
1F0C00
1FFC00
1F1800
1F0800
1F0800
3E0880
3E0080
3E0180
3E0300
3E0F00
FFFF00
ENDCHAR
STARTCHAR Igrave
ENCODING 204
SWIDTH 444 0
DWIDTH 12 0
BBX 11 24 0 0
BITMAP
0C00
0E00
0F00
0380
00C0
0000
3FE0
0F80
0F80
0F80
0F80
0F80
1F00
1F00
1F00
1F00
1F00
1F00
3E00
3E00
3E00
3E00
3E00
FF80
ENDCHAR
STARTCHAR Iacute
ENCODING 205
SWIDTH 444 0
DWIDTH 12 0
BBX 11 24 0 0
BITMAP
0060
00E0
01E0
0380
0600
0000
3FE0
0F80
0F80
0F80
0F80
0F80
1F00
1F00
1F00
1F00
1F00
1F00
3E00
3E00
3E00
3E00
3E00
FF80
ENDCHAR
STARTCHAR Icircumflex
ENCODING 206
SWIDTH 444 0
DWIDTH 12 0
BBX 11 24 0 0
BITMAP
0180
0380
0780
0CC0
18C0
0000
3FE0
0F80
0F80
0F80
0F80
0F80
1F00
1F00
1F00
1F00
1F00
1F00
3E00
3E00
3E00
3E00
3E00
FF80
ENDCHAR
STARTCHAR Idieresis
ENCODING 207
SWIDTH 444 0
DWIDTH 12 0
BBX 12 23 0 0
BITMAP
1860
3CF0
3CF0
1860
0000
3FE0
0F80
0F80
0F80
0F80
0F80
1F00
1F00
1F00
1F00
1F00
1F00
3E00
3E00
3E00
3E00
3E00
FF80
ENDCHAR
STARTCHAR Eth
ENCODING 208
SWIDTH 833 0
DWIDTH 21 0
BBX 20 18 0 0
BITMAP
3FFE00
0F8780
0F83C0
0F83E0
0F81E0
0F81F0
1F01F0
1F01F0
7FE1F0
1F01F0
1F01F0
1F01E0
3E03E0
3E03C0
3E07C0
3E0780
3E1F00
FFF800
ENDCHAR
STARTCHAR Ntilde
ENCODING 209
SWIDTH 852 0
DWIDTH 22 0
BBX 21 23 0 0
BITMAP
007880
00FF00
011E00
000000
000000
3E01F8
0F0060
0F8060
0FC060
0FE040
0FE040
0BF040
19F8C0
18FCC0
18FC80
187E80
103F80
101F80
301F80
300F80
300780
300380
FC0180
ENDCHAR
STARTCHAR Ograve
ENCODING 210
SWIDTH 833 0
DWIDTH 20 0
BBX 19 24 0 0
BITMAP
018000
01C000
01E000
007000
001800
000000
01FC00
0F8F00
1E0780
3E07C0
3C03C0
7C03E0
7803E0
F803E0
F803E0
F803E0
F803E0
F803C0
F807C0
780780
7C0F80
3C0F00
1E3E00
07F000
ENDCHAR
STARTCHAR Oacute
ENCODING 211
SWIDTH 833 0
DWIDTH 20 0
BBX 19 24 0 0
BITMAP
000300
000700
000F00
001C00
003000
000000
01FC00
0F8F00
1E0780
3E07C0
3C03C0
7C03E0
7803E0
F803E0
F803E0
F803E0
F803E0
F803C0
F807C0
780780
7C0F80
3C0F00
1E3E00
07F000
ENDCHAR
STARTCHAR Ocircumflex
ENCODING 212
SWIDTH 833 0
DWIDTH 20 0
BBX 19 24 0 0
BITMAP
001800
003800
007800
00CC00
018C00
000000
01FC00
0F8F00
1E0780
3E07C0
3C03C0
7C03E0
7803E0
F803E0
F803E0
F803E0
F803E0
F803C0
F807C0
780780
7C0F80
3C0F00
1E3E00
07F000
ENDCHAR
STARTCHAR Otilde
ENCODING 213
SWIDTH 833 0
DWIDTH 20 0
BBX 19 23 0 0
BITMAP
00F100
01FE00
023C00
000000
000000
01FC00
0F8F00
1E0780
3E07C0
3C03C0
7C03E0
7803E0
F803E0
F803E0
F803E0
F803E0
F803C0
F807C0
780780
7C0F80
3C0F00
1E3E00
07F000
ENDCHAR
STARTCHAR Odieresis
ENCODING 214
SWIDTH 833 0
DWIDTH 20 0
BBX 19 23 0 0
BITMAP
030C00
079E00
079E00
030C00
000000
01FC00
0F8F00
1E0780
3E07C0
3C03C0
7C03E0
7803E0
F803E0
F803E0
F803E0
F803E0
F803C0
F807C0
780780
7C0F80
3C0F00
1E3E00
07F000
ENDCHAR
STARTCHAR multiply
ENCODING 215
SWIDTH 606 0
DWIDTH 15 0
BBX 12 12 1 1
BITMAP
C030
E070
70E0
39C0
1F80
0F00
0F00
1F80
39C0
70E0
E070
C030
ENDCHAR
STARTCHAR Oslash
ENCODING 216
SWIDTH 833 0
DWIDTH 20 0
BBX 19 20 0 -1
BITMAP
000080
01FD80
0F8F00
1E0780
3E0FC0
3C1BC0
7C33E0
7823E0
F863E0
F8C3E0
F983E0
F903E0
FB03C0
FE07C0
7C0780
7C0F80
3C0F00
3E3E00
67F000
400000
ENDCHAR
STARTCHAR Ugrave
ENCODING 217
SWIDTH 833 0
DWIDTH 20 0
BBX 19 24 1 0
BITMAP
018000
01C000
01E000
007000
001800
000000
FF87E0
3E0180
3E0180
3E0180
3E0180
7C0100
7C0100
7C0300
7C0300
7C0300
7C0200
F80200
F80600
F80600
F80600
F80C00
7C3C00
1FF000
ENDCHAR
STARTCHAR Uacute
ENCODING 218
SWIDTH 833 0
DWIDTH 20 0
BBX 19 24 1 0
BITMAP
000300
000700
000F00
001C00
003000
000000
FF87E0
3E0180
3E0180
3E0180
3E0180
7C0100
7C0100
7C0300
7C0300
7C0300
7C0200
F80200
F80600
F80600
F80600
F80C00
7C3C00
1FF000
ENDCHAR
STARTCHAR Ucircumflex
ENCODING 219
SWIDTH 833 0
DWIDTH 20 0
BBX 19 24 1 0
BITMAP
001800
003800
007800
00CC00
018C00
000000
FF87E0
3E0180
3E0180
3E0180
3E0180
7C0100
7C0100
7C0300
7C0300
7C0300
7C0200
F80200
F80600
F80600
F80600
F80C00
7C3C00
1FF000
ENDCHAR
STARTCHAR Udieresis
ENCODING 220
SWIDTH 833 0
DWIDTH 20 0
BBX 19 23 1 0
BITMAP
030C00
079E00
079E00
030C00
000000
FF87E0
3E0180
3E0180
3E0180
3E0180
7C0100
7C0100
7C0300
7C0300
7C0300
7C0200
F80200
F80600
F80600
F80600
F80C00
7C3C00
1FF000
ENDCHAR
STARTCHAR Yacute
ENCODING 221
SWIDTH 704 0
DWIDTH 18 0
BBX 19 24 0 0
BITMAP
000600
000E00
001E00
003800
006000
000000
FF8FE0
3E0380
3E0300
3E0600
1F0400
1F0C00
1F1800
0F9000
0FB000
0FE000
07C000
07C000
078000
0F8000
0F8000
0F8000
0F8000
3FE000
ENDCHAR
STARTCHAR Thorn
ENCODING 222
SWIDTH 741 0
DWIDTH 19 0
BBX 18 18 0 0
BITMAP
3FE000
0F8000
0F8000
0F8000
0FFE00
0F0F80
1F07C0
1F07C0
1F07C0
1F07C0
1E07C0
1E0F80
3E1F00
3FFC00
3E0000
3E0000
3E0000
FF8000
ENDCHAR
STARTCHAR germandbls
ENCODING 223
SWIDTH 574 0
DWIDTH 15 0
BBX 15 23 -1 -5
BITMAP
01F0
079C
0F1E
0F1E
1E1E
1E3C
1E38
1EE0
1E38
3C3C
3C3C
3C3C
3C3C
3C3C
7878
7878
78F0
7BC0
7800
F000
F000
F000
C000
ENDCHAR
STARTCHAR agrave
ENCODING 224
SWIDTH 667 0
DWIDTH 16 0
BBX 15 18 0 0
BITMAP
0C00
0E00
0F00
0380
00C0
0000
0FBC
3CFC
787C
787C
F078
F078
F078
F078
F0F0
70F2
79F4
1E78
ENDCHAR
STARTCHAR aacute
ENCODING 225
SWIDTH 667 0
DWIDTH 16 0
BBX 15 18 0 0
BITMAP
0060
00E0
01E0
0380
0600
0000
0FBC
3CFC
787C
787C
F078
F078
F078
F078
F0F0
70F2
79F4
1E78
ENDCHAR
STARTCHAR acircumflex
ENCODING 226
SWIDTH 667 0
DWIDTH 16 0
BBX 15 18 0 0
BITMAP
0060
00E0
01E0
0330
0630
0000
0FBC
3CFC
787C
787C
F078
F078
F078
F078
F0F0
70F2
79F4
1E78
ENDCHAR
STARTCHAR atilde
ENCODING 227
SWIDTH 667 0
DWIDTH 16 0
BBX 15 17 0 0
BITMAP
03C4
07F8
08F0
0000
0000
0FBC
3CFC
787C
787C
F078
F078
F078
F078
F0F0
70F2
79F4
1E78
ENDCHAR
STARTCHAR adieresis
ENCODING 228
SWIDTH 667 0
DWIDTH 16 0
BBX 15 17 0 0
BITMAP
0C30
1E78
1E78
0C30
0000
0FBC
3CFC
787C
787C
F078
F078
F078
F078
F0F0
70F2
79F4
1E78
ENDCHAR
STARTCHAR aring
ENCODING 229
SWIDTH 667 0
DWIDTH 16 0
BBX 15 18 0 0
BITMAP
0380
06C0
0440
06C0
0380
0000
0FBC
3CFC
787C
787C
F078
F078
F078
F078
F0F0
70F2
79F4
1E78
ENDCHAR
STARTCHAR ae
ENCODING 230
SWIDTH 815 0
DWIDTH 23 0
BBX 21 12 0 0
BITMAP
0FC7E0
38EE78
787C38
707C38
007878
03F8F0
1E7F80
787800
F07800
F0B810
FF3C60
7C0F80
ENDCHAR
STARTCHAR ccedilla
ENCODING 231
SWIDTH 537 0
DWIDTH 14 0
BBX 12 17 0 -5
BITMAP
0FE0
3CF0
78F0
7860
F000
F000
F000
F000
F000
7020
78C0
1F00
0400
0E00
0600
0600
1C00
ENDCHAR
STARTCHAR egrave
ENCODING 232
SWIDTH 519 0
DWIDTH 14 0
BBX 12 18 0 0
BITMAP
1800
1C00
1E00
0700
0180
0000
0FC0
3CF0
7870
7870
F0F0
F1E0
FF00
F000
F000
7020
78C0
1F00
ENDCHAR
STARTCHAR eacute
ENCODING 233
SWIDTH 519 0
DWIDTH 14 0
BBX 12 18 0 0
BITMAP
00C0
01C0
03C0
0700
0C00
0000
0FC0
3CF0
7870
7870
F0F0
F1E0
FF00
F000
F000
7020
78C0
1F00
ENDCHAR
STARTCHAR ecircumflex
ENCODING 234
SWIDTH 519 0
DWIDTH 14 0
BBX 12 18 0 0
BITMAP
0180
0380
0780
0CC0
18C0
0000
0FC0
3CF0
7870
7870
F0F0
F1E0
FF00
F000
F000
7020
78C0
1F00
ENDCHAR
STARTCHAR edieresis
ENCODING 235
SWIDTH 519 0
DWIDTH 14 0
BBX 12 17 0 0
BITMAP
1860
3CF0
3CF0
1860
0000
0FC0
3CF0
7870
7870
F0F0
F1E0
FF00
F000
F000
7020
78C0
1F00
ENDCHAR
STARTCHAR igrave
ENCODING 236
SWIDTH 389 0
DWIDTH 8 0
BBX 7 18 0 0
BITMAP
C0
E0
F0
38
0C
00
FC
3C
3C
3C
78
78
78
78
F0
F2
F4
78
ENDCHAR
STARTCHAR iacute
ENCODING 237
SWIDTH 389 0
DWIDTH 8 0
BBX 7 18 0 0
BITMAP
0C
1C
3C
70
C0
00
FC
3C
3C
3C
78
78
78
78
F0
F2
F4
78
ENDCHAR
STARTCHAR icircumflex
ENCODING 238
SWIDTH 389 0
DWIDTH 8 0
BBX 7 18 0 0
BITMAP
0C
1C
3C
66
C6
00
FC
3C
3C
3C
78
78
78
78
F0
F2
F4
78
ENDCHAR
STARTCHAR idieresis
ENCODING 239
SWIDTH 389 0
DWIDTH 8 0
BBX 10 17 -1 0
BITMAP
6180
F3C0
F3C0
6180
0000
7E00
1E00
1E00
1E00
3C00
3C00
3C00
3C00
7800
7900
7A00
3C00
ENDCHAR
STARTCHAR eth
ENCODING 240
SWIDTH 574 0
DWIDTH 15 0
BBX 13 18 0 0
BITMAP
E000
3980
0E00
3700
0380
01C0
0FE0
3CF0
7870
7878
F078
F078
F078
F078
F0F0
70F0
79E0
1F80
ENDCHAR
STARTCHAR ntilde
ENCODING 241
SWIDTH 685 0
DWIDTH 16 0
BBX 15 17 0 0
BITMAP
03C4
07F8
08F0
0000
0000
FC38
3CFC
3D3C
3E3C
7C78
7878
7878
7878
F0F0
F0F2
F0F4
F078
ENDCHAR
STARTCHAR ograve
ENCODING 242
SWIDTH 574 0
DWIDTH 15 0
BBX 13 18 0 0
BITMAP
1800
1C00
1E00
0700
0180
0000
0FC0
3CF0
7870
7878
F078
F078
F078
F078
F0F0
70F0
79E0
1F80
ENDCHAR
STARTCHAR oacute
ENCODING 243
SWIDTH 574 0
DWIDTH 15 0
BBX 13 18 0 0
BITMAP
0030
0070
00F0
01C0
0300
0000
0FC0
3CF0
7870
7878
F078
F078
F078
F078
F0F0
70F0
79E0
1F80
ENDCHAR
STARTCHAR ocircumflex
ENCODING 244
SWIDTH 574 0
DWIDTH 15 0
BBX 13 18 0 0
BITMAP
00C0
01C0
03C0
0660
0C60
0000
0FC0
3CF0
7870
7878
F078
F078
F078
F078
F0F0
70F0
79E0
1F80
ENDCHAR
STARTCHAR otilde
ENCODING 245
SWIDTH 574 0
DWIDTH 15 0
BBX 13 17 0 0
BITMAP
0788
0FF0
11E0
0000
0000
0FC0
3CF0
7870
7878
F078
F078
F078
F078
F0F0
70F0
79E0
1F80
ENDCHAR
STARTCHAR odieresis
ENCODING 246
SWIDTH 574 0
DWIDTH 15 0
BBX 13 17 0 0
BITMAP
1860
3CF0
3CF0
1860
0000
0FC0
3CF0
7870
7878
F078
F078
F078
F078
F0F0
70F0
79E0
1F80
ENDCHAR
STARTCHAR divide
ENCODING 247
SWIDTH 606 0
DWIDTH 15 0
BBX 12 12 1 1
BITMAP
0600
0600
0600
0000
0000
FFF0
FFF0
0000
0000
0600
0600
0600
ENDCHAR
STARTCHAR oslash
ENCODING 248
SWIDTH 574 0
DWIDTH 15 0
BBX 13 16 0 -2
BITMAP
0020
0020
0FC0
3CF0
78F0
7978
F178
F278
F278
F478
F4F0
78F0
79E0
1F80
2000
2000
ENDCHAR
STARTCHAR ugrave
ENCODING 249
SWIDTH 685 0
DWIDTH 16 0
BBX 15 18 0 0
BITMAP
0C00
0E00
0F00
0380
00C0
0000
FC3C
3C3C
3C3C
3C3C
7878
7878
7878
78F8
F1F0
F2F2
FCF4
7878
ENDCHAR
STARTCHAR uacute
ENCODING 250
SWIDTH 685 0
DWIDTH 16 0
BBX 15 18 0 0
BITMAP
0030
0070
00F0
01C0
0300
0000
FC3C
3C3C
3C3C
3C3C
7878
7878
7878
78F8
F1F0
F2F2
FCF4
7878
ENDCHAR
STARTCHAR ucircumflex
ENCODING 251
SWIDTH 685 0
DWIDTH 16 0
BBX 15 18 0 0
BITMAP
00C0
01C0
03C0
0660
0C60
0000
FC3C
3C3C
3C3C
3C3C
7878
7878
7878
78F8
F1F0
F2F2
FCF4
7878
ENDCHAR
STARTCHAR udieresis
ENCODING 252
SWIDTH 685 0
DWIDTH 16 0
BBX 15 17 0 0
BITMAP
0C30
1E78
1E78
0C30
0000
FC3C
3C3C
3C3C
3C3C
7878
7878
7878
78F8
F1F0
F2F2
FCF4
7878
ENDCHAR
STARTCHAR yacute
ENCODING 253
SWIDTH 519 0
DWIDTH 13 0
BBX 15 23 -3 -5
BITMAP
000C
001C
003C
0070
00C0
0000
0E0E
1F0E
2F06
0784
078C
0788
03D8
03D0
03F0
01E0
01E0
01C0
0180
6300
F600
FC00
7000
ENDCHAR
STARTCHAR thorn
ENCODING 254
SWIDTH 648 0
DWIDTH 16 0
BBX 17 23 -3 -5
BITMAP
07E000
01E000
01E000
01E000
03C000
03C000
03FC00
03CF00
078700
078780
078780
0F0780
0F0780
0F0780
0F0F00
1F0F00
1F9E00
1EF800
1E0000
3C0000
3C0000
3C0000
FF0000
ENDCHAR
STARTCHAR ydieresis
ENCODING 255
SWIDTH 519 0
DWIDTH 13 0
BBX 15 22 -3 -5
BITMAP
030C
079E
079E
030C
0000
0E0E
1F0E
2F06
0784
078C
0788
03D8
03D0
03F0
01E0
01E0
01C0
0180
6300
F600
FC00
7000
ENDCHAR
STARTCHAR Amacron
ENCODING 256
SWIDTH 741 0
DWIDTH 20 0
BBX 20 21 -1 0
BITMAP
01FE00
01FE00
000000
000800
001800
001C00
003C00
007C00
007E00
00DE00
019E00
011F00
031F00
060F00
040F80
0FFF80
180F80
1807C0
3007C0
7007C0
FC1FF0
ENDCHAR
STARTCHAR amacron
ENCODING 257
SWIDTH 667 0
DWIDTH 16 0
BBX 15 15 0 0
BITMAP
0FF0
0FF0
0000
0FBC
3C7C
783C
783C
F078
F078
F078
F078
F0F0
70F2
79F4
1E78
ENDCHAR
STARTCHAR Abreve
ENCODING 258
SWIDTH 741 0
DWIDTH 20 0
BBX 20 23 -1 0
BITMAP
010200
018600
00FC00
007800
000000
000800
001800
001C00
003C00
007C00
007E00
00DE00
019E00
011F00
031F00
060F00
040F80
0FFF80
180F80
1807C0
3007C0
7007C0
FC1FF0
ENDCHAR
STARTCHAR abreve
ENCODING 259
SWIDTH 667 0
DWIDTH 16 0
BBX 15 17 0 0
BITMAP
0810
0C30
07E0
03C0
0000
0FBC
3C7C
783C
783C
F078
F078
F078
F078
F0F0
70F2
79F4
1E78
ENDCHAR
STARTCHAR Aogonek
ENCODING 260
SWIDTH 741 0
DWIDTH 20 0
BBX 20 23 -1 -5
BITMAP
000800
001800
001C00
003C00
007C00
007E00
00DE00
019E00
011F00
031F00
060F00
040F80
0FFF80
180F80
1807C0
3007C0
7007C0
FC1FF0
001000
002000
006000
006400
003800
ENDCHAR
STARTCHAR aogonek
ENCODING 261
SWIDTH 667 0
DWIDTH 16 0
BBX 15 17 0 -5
BITMAP
0FBC
3C7C
783C
783C
F078
F078
F078
F078
F0F0
70F2
79F4
1E78
0100
0200
0600
0640
0380
ENDCHAR
STARTCHAR Cacute
ENCODING 262
SWIDTH 759 0
DWIDTH 18 0
BBX 17 24 0 0
BITMAP
001800
003800
007800
00E000
018000
000000
01FC80
0F8780
1E0380
3E0100
3C0100
7C0100
780000
F80000
F80000
F80000
F80000
F80000
F80000
780100
7C0300
3C0600
1E1C00
07F000
ENDCHAR
STARTCHAR cacute
ENCODING 263
SWIDTH 537 0
DWIDTH 14 0
BBX 12 18 1 0
BITMAP
00C0
01C0
03C0
0700
0C00
0000
0FE0
3CF0
78F0
7860
F000
F000
F000
F000
F000
7020
78C0
1F00
ENDCHAR
STARTCHAR Ccircumflex
ENCODING 264
SWIDTH 759 0
DWIDTH 18 0
BBX 17 24 0 0
BITMAP
006000
00E000
01E000
033000
063000
000000
01FC80
0F8780
1E0380
3E0100
3C0100
7C0100
780000
F80000
F80000
F80000
F80000
F80000
F80000
780100
7C0300
3C0600
1E1C00
07F000
ENDCHAR
STARTCHAR ccircumflex
ENCODING 265
SWIDTH 537 0
DWIDTH 14 0
BBX 12 18 1 0
BITMAP
0180
0380
0780
0CC0
18C0
0000
0FE0
3CF0
78F0
7860
F000
F000
F000
F000
F000
7020
78C0
1F00
ENDCHAR
STARTCHAR Cdotaccent
ENCODING 266
SWIDTH 759 0
DWIDTH 18 0
BBX 17 23 0 0
BITMAP
00C000
01E000
01E000
00C000
000000
01FC80
0F8780
1E0380
3E0100
3C0100
7C0100
780000
F80000
F80000
F80000
F80000
F80000
F80000
780100
7C0300
3C0600
1E1C00
07F000
ENDCHAR
STARTCHAR cdotaccent
ENCODING 267
SWIDTH 537 0
DWIDTH 14 0
BBX 12 17 1 0
BITMAP
0600
0F00
0F00
0600
0000
0FE0
3CF0
78F0
7860
F000
F000
F000
F000
F000
7020
78C0
1F00
ENDCHAR
STARTCHAR Ccaron
ENCODING 268
SWIDTH 759 0
DWIDTH 18 0
BBX 17 24 0 0
BITMAP
031800
033000
01E000
01C000
018000
000000
01FC80
0F8780
1E0380
3E0100
3C0100
7C0100
780000
F80000
F80000
F80000
F80000
F80000
F80000
780100
7C0300
3C0600
1E1C00
07F000
ENDCHAR
STARTCHAR ccaron
ENCODING 269
SWIDTH 537 0
DWIDTH 14 0
BBX 12 18 1 0
BITMAP
0C60
0CC0
0780
0700
0600
0000
0FE0
3CF0
78F0
7860
F000
F000
F000
F000
F000
7020
78C0
1F00
ENDCHAR
STARTCHAR Dcaron
ENCODING 270
SWIDTH 833 0
DWIDTH 21 0
BBX 20 24 0 0
BITMAP
00C600
00CC00
007800
007000
006000
000000
3FFE00
0F8780
0F83C0
0F83E0
0F81E0
0F81F0
1F01F0
1F01F0
1F01F0
1F01F0
1F01F0
1F01E0
3E03E0
3E03C0
3E07C0
3E0780
3E1F00
FFF800
ENDCHAR
STARTCHAR dcaron
ENCODING 271
SWIDTH 893 0
DWIDTH 21 0
BBX 20 18 0 0
BITMAP
007EE0
001FF0
001FF0
001EF0
003C20
003C40
0FBC80
3CFD00
787C00
787800
F07800
F07800
F07800
F07800
F0F000
70F200
79F400
1E7800
ENDCHAR
STARTCHAR Dcroat
ENCODING 272
SWIDTH 833 0
DWIDTH 21 0
BBX 20 18 0 0
BITMAP
3FFE00
0F8780
0F83C0
0F83E0
0F81E0
0F81F0
1F01F0
1F01F0
7FE1F0
1F01F0
1F01F0
1F01E0
3E03E0
3E03C0
3E07C0
3E0780
3E1F00
FFF800
ENDCHAR
STARTCHAR dcroat
ENCODING 273
SWIDTH 667 0
DWIDTH 16 0
BBX 17 18 0 0
BITMAP
007E00
001E00
001E00
001E00
03FF80
03FF80
0FBC00
3CFC00
787C00
787800
F07800
F07800
F07800
F07800
F0F000
70F200
79F400
1E7800
ENDCHAR
STARTCHAR Emacron
ENCODING 274
SWIDTH 741 0
DWIDTH 18 0
BBX 17 21 0 0
BITMAP
07F800
07F800
000000
3FFF80
0F8380
0F8180
0F8100
0F8100
0F8400
1F0400
1F0C00
1FFC00
1F1800
1F0800
1F0800
3E0900
3E0100
3E0300
3E0600
3E0E00
FFFE00
ENDCHAR
STARTCHAR emacron
ENCODING 275
SWIDTH 519 0
DWIDTH 14 0
BBX 12 15 0 0
BITMAP
3FC0
3FC0
0000
0FC0
3CF0
7870
7870
F0F0
F1E0
FF00
F000
F000
7020
78C0
1F00
ENDCHAR
STARTCHAR Ebreve
ENCODING 276
SWIDTH 741 0
DWIDTH 18 0
BBX 17 23 0 0
BITMAP
040800
061800
03F000
01E000
000000
3FFF80
0F8380
0F8180
0F8100
0F8100
0F8400
1F0400
1F0C00
1FFC00
1F1800
1F0800
1F0800
3E0900
3E0100
3E0300
3E0600
3E0E00
FFFE00
ENDCHAR
STARTCHAR ebreve
ENCODING 277
SWIDTH 519 0
DWIDTH 14 0
BBX 12 17 0 0
BITMAP
2040
30C0
1F80
0F00
0000
0FC0
3CF0
7870
7870
F0F0
F1E0
FF00
F000
F000
7020
78C0
1F00
ENDCHAR
STARTCHAR Edotaccent
ENCODING 278
SWIDTH 741 0
DWIDTH 18 0
BBX 17 23 0 0
BITMAP
00C000
01E000
01E000
00C000
000000
3FFF80
0F8380
0F8180
0F8100
0F8100
0F8400
1F0400
1F0C00
1FFC00
1F1800
1F0800
1F0800
3E0900
3E0100
3E0300
3E0600
3E0E00
FFFE00
ENDCHAR
STARTCHAR edotaccent
ENCODING 279
SWIDTH 519 0
DWIDTH 14 0
BBX 12 17 0 0
BITMAP
0600
0F00
0F00
0600
0000
0FC0
3CF0
7870
7870
F0F0
F1E0
FF00
F000
F000
7020
78C0
1F00
ENDCHAR
STARTCHAR Eogonek
ENCODING 280
SWIDTH 741 0
DWIDTH 18 0
BBX 17 23 0 -5
BITMAP
3FFF80
0F8380
0F8180
0F8100
0F8100
0F8400
1F0400
1F0C00
1FFC00
1F1800
1F0800
1F0800
3E0900
3E0100
3E0300
3E0600
3E0E00
FFFE00
008000
010000
030000
032000
01C000
ENDCHAR
STARTCHAR eogonek
ENCODING 281
SWIDTH 519 0
DWIDTH 14 0
BBX 12 17 0 -5
BITMAP
0FC0
3CF0
7870
7870
F0F0
F1E0
FF00
F000
F000
7020
78C0
1F00
0400
0800
1800
1900
0E00
ENDCHAR
STARTCHAR Ecaron
ENCODING 282
SWIDTH 741 0
DWIDTH 18 0
BBX 17 24 0 0
BITMAP
031800
033000
01E000
01C000
018000
000000
3FFF80
0F8380
0F8180
0F8100
0F8100
0F8400
1F0400
1F0C00
1FFC00
1F1800
1F0800
1F0800
3E0900
3E0100
3E0300
3E0600
3E0E00
FFFE00
ENDCHAR
STARTCHAR ecaron
ENCODING 283
SWIDTH 519 0
DWIDTH 14 0
BBX 12 18 0 0
BITMAP
0C60
0CC0
0780
0700
0600
0000
0FC0
3CF0
7870
7870
F0F0
F1E0
FF00
F000
F000
7020
78C0
1F00
ENDCHAR
STARTCHAR Gcircumflex
ENCODING 284
SWIDTH 815 0
DWIDTH 19 0
BBX 18 24 0 0
BITMAP
003000
007000
00F000
019800
031800
000000
01FE40
0F83C0
1E01C0
3E0080
3C0080
7C0080
780000
F80000
F80000
F80000
F81FC0
F80780
F80780
780780
7C0F00
3C0F00
1E1F00
07F100
ENDCHAR
STARTCHAR gcircumflex
ENCODING 285
SWIDTH 611 0
DWIDTH 15 0
BBX 15 26 -2 -5
BITMAP
0030
0070
00F0
0198
0318
0000
0006
000E
0018
03F8
0F3C
0E1E
1E1E
1E1E
1E1E
0F3C
07F0
1C00
3800
3FE0
1FF8
307C
E03C
E03C
F078
3FE0
ENDCHAR
STARTCHAR Gbreve
ENCODING 286
SWIDTH 815 0
DWIDTH 19 0
BBX 18 23 0 0
BITMAP
040800
061800
03F000
01E000
000000
01FE40
0F83C0
1E01C0
3E0080
3C0080
7C0080
780000
F80000
F80000
F80000
F81FC0
F80780
F80780
780780
7C0F00
3C0F00
1E1F00
07F100
ENDCHAR
STARTCHAR gbreve
ENCODING 287
SWIDTH 611 0
DWIDTH 15 0
BBX 15 25 -2 -5
BITMAP
0408
0618
03F0
01E0
0000
0006
000E
0018
03F8
0F3C
0E1E
1E1E
1E1E
1E1E
0F3C
07F0
1C00
3800
3FE0
1FF8
307C
E03C
E03C
F078
3FE0
ENDCHAR
STARTCHAR Gdotaccent
ENCODING 288
SWIDTH 815 0
DWIDTH 19 0
BBX 18 23 0 0
BITMAP
00C000
01E000
01E000
00C000
000000
01FE40
0F83C0
1E01C0
3E0080
3C0080
7C0080
780000
F80000
F80000
F80000
F81FC0
F80780
F80780
780780
7C0F00
3C0F00
1E1F00
07F100
ENDCHAR
STARTCHAR gdotaccent
ENCODING 289
SWIDTH 611 0
DWIDTH 15 0
BBX 15 25 -2 -5
BITMAP
00C0
01E0
01E0
00C0
0000
0006
000E
0018
03F8
0F3C
0E1E
1E1E
1E1E
1E1E
0F3C
07F0
1C00
3800
3FE0
1FF8
307C
E03C
E03C
F078
3FE0
ENDCHAR
STARTCHAR Gcommaaccent
ENCODING 290
SWIDTH 815 0
DWIDTH 19 0
BBX 18 27 0 -9
BITMAP
01FE40
0F83C0
1E01C0
3E0080
3C0080
7C0080
780000
F80000
F80000
F80000
F81FC0
F80780
F80780
780780
7C0F00
3C0F00
1E1F00
07F100
000000
00E000
01F000
01F000
00F000
002000
004000
008000
010000
ENDCHAR
STARTCHAR gcommaaccent
ENCODING 291
SWIDTH 611 0
DWIDTH 15 0
BBX 15 29 -2 -5
BITMAP
0010
0020
0040
0080
01E0
01F0
01F0
00E0
0000
0006
000E
0018
03F8
0F3C
0E1E
1E1E
1E1E
1E1E
0F3C
07F0
1C00
3800
3FE0
1FF8
307C
E03C
E03C
F078
3FE0
ENDCHAR
STARTCHAR Hcircumflex
ENCODING 292
SWIDTH 870 0
DWIDTH 23 0
BBX 22 24 0 0
BITMAP
000C00
001C00
003C00
006600
00C600
000000
3FE7FC
0F81F0
0F81F0
0F81F0
0F81F0
0F81F0
1F03E0
1F03E0
1FFFE0
1F03E0
1F03E0
1F03E0
3E07C0
3E07C0
3E07C0
3E07C0
3E07C0
FF9FF0
ENDCHAR
STARTCHAR hcircumflex
ENCODING 293
SWIDTH 685 0
DWIDTH 16 0
BBX 15 24 0 0
BITMAP
0300
0700
0F00
1980
3180
0000
7E00
1E00
1E00
1E00
3C00
3C00
3C78
3CFC
3D3C
7E3C
7C78
7878
7878
7878
F0F0
F0F2
F0F4
F078
ENDCHAR
STARTCHAR Hbar
ENCODING 294
SWIDTH 870 0
DWIDTH 23 0
BBX 22 18 0 0
BITMAP
3FE7FC
0F81F0
0F81F0
0F81F0
0F81F0
FFFFFC
FFFFFC
1F03E0
1FFFE0
1F03E0
1F03E0
1F03E0
3E07C0
3E07C0
3E07C0
3E07C0
3E07C0
FF9FF0
ENDCHAR
STARTCHAR hbar
ENCODING 295
SWIDTH 685 0
DWIDTH 16 0
BBX 16 18 -1 0
BITMAP
3F00
0F00
0F00
0F00
FFE0
FFE0
1E3C
1E7E
1E9E
3F1E
3E3C
3C3C
3C3C
3C3C
7878
7879
787A
783C
ENDCHAR
STARTCHAR Itilde
ENCODING 296
SWIDTH 444 0
DWIDTH 12 0
BBX 11 22 0 0
BITMAP
1E20
3FC0
4780
0000
3FE0
0F80
0F80
0F80
0F80
0F80
1F00
1F00
1F00
1F00
1F00
1F00
3E00
3E00
3E00
3E00
3E00
FF80
ENDCHAR
STARTCHAR itilde
ENCODING 297
SWIDTH 389 0
DWIDTH 8 0
BBX 10 16 -1 0
BITMAP
3C40
7F80
8F00
0000
7E00
1E00
1E00
1E00
3C00
3C00
3C00
3C00
7800
7900
7A00
3C00
ENDCHAR
STARTCHAR Imacron
ENCODING 298
SWIDTH 444 0
DWIDTH 12 0
BBX 11 21 0 0
BITMAP
3FC0
3FC0
0000
3FE0
0F80
0F80
0F80
0F80
0F80
1F00
1F00
1F00
1F00
1F00
1F00
3E00
3E00
3E00
3E00
3E00
FF80
ENDCHAR
STARTCHAR imacron
ENCODING 299
SWIDTH 389 0
DWIDTH 8 0
BBX 8 15 0 0
BITMAP
FF
FF
00
FC
3C
3C
3C
78
78
78
78
F0
F2
F4
78
ENDCHAR
STARTCHAR Ibreve
ENCODING 300
SWIDTH 444 0
DWIDTH 12 0
BBX 11 23 0 0
BITMAP
2040
30C0
1F80
0F00
0000
3FE0
0F80
0F80
0F80
0F80
0F80
1F00
1F00
1F00
1F00
1F00
1F00
3E00
3E00
3E00
3E00
3E00
FF80
ENDCHAR
STARTCHAR ibreve
ENCODING 301
SWIDTH 389 0
DWIDTH 8 0
BBX 8 17 0 0
BITMAP
81
C3
7E
3C
00
FC
3C
3C
3C
78
78
78
78
F0
F2
F4
78
ENDCHAR
STARTCHAR Iogonek
ENCODING 302
SWIDTH 444 0
DWIDTH 12 0
BBX 11 23 0 -5
BITMAP
3FE0
0F80
0F80
0F80
0F80
0F80
1F00
1F00
1F00
1F00
1F00
1F00
3E00
3E00
3E00
3E00
3E00
FF80
0400
0800
1800
1900
0E00
ENDCHAR
STARTCHAR iogonek
ENCODING 303
SWIDTH 389 0
DWIDTH 8 0
BBX 7 22 0 -5
BITMAP
0E
0E
0E
00
00
FC
3C
3C
3C
78
78
78
78
F0
F2
F4
78
10
20
60
64
38
ENDCHAR
STARTCHAR Idotaccent
ENCODING 304
SWIDTH 444 0
DWIDTH 12 0
BBX 11 23 0 0
BITMAP
0600
0F00
0F00
0600
0000
3FE0
0F80
0F80
0F80
0F80
0F80
1F00
1F00
1F00
1F00
1F00
1F00
3E00
3E00
3E00
3E00
3E00
FF80
ENDCHAR
STARTCHAR dotlessi
ENCODING 305
SWIDTH 389 0
DWIDTH 8 0
BBX 7 12 0 0
BITMAP
FC
3C
3C
3C
78
78
78
78
F0
F2
F4
78
ENDCHAR
STARTCHAR IJ
ENCODING 306
SWIDTH 1089 0
DWIDTH 28 0
BBX 27 18 0 0
BITMAP
3FE03FE0
0F800F80
0F800F80
0F800F80
0F800F80
0F800F80
1F001F00
1F001F00
1F001F00
1F001F00
1F001F00
1F0E1F00
3E1F3E00
3E3F3E00
3E363E00
3E303E00
3E1C7C00
FF87F000
ENDCHAR
STARTCHAR ij
ENCODING 307
SWIDTH 740 0
DWIDTH 17 0
BBX 16 22 0 -5
BITMAP
0E07
0E07
0E07
0000
0000
FC7E
3C1E
3C1E
3C1E
783C
783C
783C
783C
F078
F278
F478
7878
0CF0
1EF0
1EF0
1DE0
0F80
ENDCHAR
STARTCHAR Jcircumflex
ENCODING 308
SWIDTH 667 0
DWIDTH 17 0
BBX 17 24 -1 0
BITMAP
000C00
001C00
003C00
006600
00C600
000000
00FF80
003E00
003E00
003E00
003E00
003E00
007C00
007C00
007C00
007C00
007C00
387C00
7CF800
FCF800
D8F800
C0F800
71F000
1FC000
ENDCHAR
STARTCHAR jcircumflex
ENCODING 309
SWIDTH 370 0
DWIDTH 9 0
BBX 13 23 -5 -5
BITMAP
0060
00E0
01E0
0330
0630
0000
03F0
00F0
00F0
00F0
01E0
01E0
01E0
01E0
03C0
03C0
03C0
03C0
6780
F780
F780
EF00
7C00
ENDCHAR
STARTCHAR Kcommaaccent
ENCODING 310
SWIDTH 778 0
DWIDTH 20 0
BBX 20 27 0 -9
BITMAP
3FE3F0
0F81C0
0F8180
0F8300
0F8600
0F8C00
1F1800
1F3000
1F7800
1FF800
1F7C00
1F3E00
3E3E00
3E1F00
3E1F80
3E0F80
3E0FC0
FF9FE0
000000
00E000
01F000
01F000
00F000
002000
004000
008000
010000
ENDCHAR
STARTCHAR kcommaaccent
ENCODING 311
SWIDTH 648 0
DWIDTH 16 0
BBX 15 27 0 -9
BITMAP
7E00
1E00
1E00
1E00
1E00
3C00
3CF8
3D3C
3E3C
3C3C
7878
7B80
79E0
78E0
F0F0
F0F2
F0F4
F078
0000
0700
0F80
0F80
0780
0100
0200
0400
0800
ENDCHAR
STARTCHAR kgreenlandic
ENCODING 312
SWIDTH 648 0
DWIDTH 16 0
BBX 15 12 0 0
BITMAP
3CF8
3D3C
3E3C
3C3C
7878
7B80
79E0
78E0
F0F0
F0F2
F0F4
F078
ENDCHAR
STARTCHAR Lacute
ENCODING 313
SWIDTH 704 0
DWIDTH 18 0
BBX 17 24 0 0
BITMAP
006000
00E000
01E000
038000
060000
000000
3FE000
0F8000
0F8000
0F8000
0F8000
0F8000
1F0000
1F0000
1F0000
1F0000
1F0000
1F0000
3E0080
3E0080
3E0180
3E0300
3E0F00
FFFF00
ENDCHAR
STARTCHAR lacute
ENCODING 314
SWIDTH 389 0
DWIDTH 8 0
BBX 8 24 0 0
BITMAP
03
07
0F
1C
30
00
7E
1E
1E
1E
3C
3C
3C
3C
3C
78
78
78
78
78
F0
F2
F4
78
ENDCHAR
STARTCHAR Lcommaaccent
ENCODING 315
SWIDTH 704 0
DWIDTH 18 0
BBX 17 27 0 -9
BITMAP
3FE000
0F8000
0F8000
0F8000
0F8000
0F8000
1F0000
1F0000
1F0000
1F0000
1F0000
1F0000
3E0080
3E0080
3E0180
3E0300
3E0F00
FFFF00
000000
01C000
03E000
03E000
01E000
004000
008000
010000
020000
ENDCHAR
STARTCHAR lcommaaccent
ENCODING 316
SWIDTH 389 0
DWIDTH 8 0
BBX 7 27 0 -9
BITMAP
7E
1E
1E
1E
3C
3C
3C
3C
3C
78
78
78
78
78
F0
F2
F4
78
00
70
F8
F8
78
10
20
40
80
ENDCHAR
STARTCHAR Lcaron
ENCODING 317
SWIDTH 928 0
DWIDTH 23 0
BBX 22 18 0 0
BITMAP
3FE038
0F807C
0F807C
0F803C
0F8008
0F8010
1F0020
1F0040
1F0000
1F0000
1F0000
1F0000
3E0080
3E0080
3E0180
3E0300
3E0F00
FFFF00
ENDCHAR
STARTCHAR lcaron
ENCODING 318
SWIDTH 629 0
DWIDTH 14 0
BBX 13 18 0 0
BITMAP
7E70
1EF8
1EF8
1E78
3C10
3C20
3C40
3C80
3C00
7800
7800
7800
7800
7800
F000
F200
F400
7800
ENDCHAR
STARTCHAR Ldot
ENCODING 319
SWIDTH 956 0
DWIDTH 24 0
BBX 22 18 0 0
BITMAP
3FE000
0F8000
0F8000
0F8000
0F8000
0F8000
1F0000
1F0000
1F0018
1F003C
1F003C
1F003C
3E0098
3E0080
3E0180
3E0300
3E0F00
FFFF00
ENDCHAR
STARTCHAR ldot
ENCODING 320
SWIDTH 657 0
DWIDTH 15 0
BBX 13 18 0 0
BITMAP
7E00
1E00
1E00
1E00
3C00
3C00
3C00
3C00
3C30
7878
7878
7878
7830
7800
F000
F200
F400
7800
ENDCHAR
STARTCHAR Lslash
ENCODING 321
SWIDTH 704 0
DWIDTH 18 0
BBX 18 18 -1 0
BITMAP
1FF000
07C000
07C000
07C000
07C000
07C000
0F8000
0F9800
0FE000
0F8000
3F8000
CF8000
1F0040
1F0040
1F0080
1F0180
1F0780
7FFF80
ENDCHAR
STARTCHAR lslash
ENCODING 322
SWIDTH 389 0
DWIDTH 8 0
BBX 9 18 -1 0
BITMAP
3F00
0F00
0F00
0F00
1E00
1E00
1E80
1F00
1E00
3C00
7C00
BC00
3C00
3C00
7800
7800
7A00
3C00
ENDCHAR
STARTCHAR Nacute
ENCODING 323
SWIDTH 852 0
DWIDTH 22 0
BBX 21 24 0 0
BITMAP
000C00
001C00
003C00
007000
00C000
000000
3E01F8
0F0060
0F8060
0FC060
0FE040
0FE040
0BF040
19F8C0
18FCC0
18FC80
187E80
103F80
101F80
301F00
300F00
300700
300300
FC0300
ENDCHAR
STARTCHAR nacute
ENCODING 324
SWIDTH 685 0
DWIDTH 16 0
BBX 15 18 0 0
BITMAP
0060
00E0
01E0
0380
0600
0000
FC38
3CFC
3D3C
3E3C
7C78
7878
7878
7878
F0F0
F0F2
F0F4
F078
ENDCHAR
STARTCHAR Ncommaaccent
ENCODING 325
SWIDTH 852 0
DWIDTH 22 0
BBX 21 27 0 -9
BITMAP
3E01F8
0F0060
0F8060
0FC060
0FE040
0FE040
0BF040
19F8C0
18FCC0
18FC80
187E80
103F80
101F80
301F00
300F00
300700
300300
FC0300
000000
00E000
01F000
01F000
00F000
002000
004000
008000
010000
ENDCHAR
STARTCHAR ncommaaccent
ENCODING 326
SWIDTH 685 0
DWIDTH 16 0
BBX 15 21 0 -9
BITMAP
FC38
3CFC
3D3C
3E3C
7C78
7878
7878
7878
F0F0
F0F2
F0F4
F078
0000
0700
0F80
0F80
0780
0100
0200
0400
0800
ENDCHAR
STARTCHAR Ncaron
ENCODING 327
SWIDTH 852 0
DWIDTH 22 0
BBX 21 24 0 0
BITMAP
00C600
00CC00
007800
007000
006000
000000
3E01F8
0F0060
0F8060
0FC060
0FE040
0FE040
0BF040
19F8C0
18FCC0
18FC80
187E80
103F80
101F80
301F00
300F00
300700
300300
FC0300
ENDCHAR
STARTCHAR ncaron
ENCODING 328
SWIDTH 685 0
DWIDTH 16 0
BBX 15 18 0 0
BITMAP
0630
0660
03C0
0380
0300
0000
FC38
3CFC
3D3C
3E3C
7C78
7878
7878
7878
F0F0
F0F2
F0F4
F078
ENDCHAR
STARTCHAR napostrophe
ENCODING 329
SWIDTH 931 0
DWIDTH 22 0
BBX 21 18 0 0
BITMAP
700000
F80000
F80000
780000
100000
200000
43F0E0
80F3F0
00F4F0
00F8F0
01F1E0
01E1E0
01E1E0
01E1E0
03C3C0
03C3C8
03C3D0
03C1E0
ENDCHAR
STARTCHAR Eng
ENCODING 330
SWIDTH 852 0
DWIDTH 22 0
BBX 21 23 0 -5
BITMAP
3E01F8
0F0060
0F8060
0FC060
0FE040
0FE040
0BF040
19F8C0
18FCC0
18FC80
187E80
103F80
101F80
301F00
301F00
301F00
301F00
FC1F00
033C00
07BC00
07BC00
077800
03E000
ENDCHAR
STARTCHAR eng
ENCODING 331
SWIDTH 685 0
DWIDTH 16 0
BBX 14 17 0 -5
BITMAP
FC38
3CFC
3D3C
3E3C
7C78
7878
7878
7878
F0F0
F0F0
F0F0
F0F0
19E0
3DE0
3DE0
3BC0
1F00
ENDCHAR
STARTCHAR Omacron
ENCODING 332
SWIDTH 833 0
DWIDTH 20 0
BBX 19 21 0 0
BITMAP
03FC00
03FC00
000000
01FC00
0F8F00
1E0780
3E07C0
3C03C0
7C03E0
7803E0
F803E0
F803E0
F803E0
F803E0
F803C0
F807C0
780780
7C0F80
3C0F00
1E3E00
07F000
ENDCHAR
STARTCHAR omacron
ENCODING 333
SWIDTH 574 0
DWIDTH 15 0
BBX 13 15 0 0
BITMAP
1FE0
1FE0
0000
0FC0
3CF0
7870
7878
F078
F078
F078
F078
F0F0
70F0
79E0
1F80
ENDCHAR
STARTCHAR Obreve
ENCODING 334
SWIDTH 833 0
DWIDTH 20 0
BBX 19 23 0 0
BITMAP
020400
030C00
01F800
00F000
000000
01FC00
0F8F00
1E0780
3E07C0
3C03C0
7C03E0
7803E0
F803E0
F803E0
F803E0
F803E0
F803C0
F807C0
780780
7C0F80
3C0F00
1E3E00
07F000
ENDCHAR
STARTCHAR obreve
ENCODING 335
SWIDTH 574 0
DWIDTH 15 0
BBX 13 17 0 0
BITMAP
1020
1860
0FC0
0780
0000
0FC0
3CF0
7870
7878
F078
F078
F078
F078
F0F0
70F0
79E0
1F80
ENDCHAR
STARTCHAR Ohungarumlaut
ENCODING 336
SWIDTH 833 0
DWIDTH 20 0
BBX 19 24 0 0
BITMAP
006180
00E380
01E780
038E00
061800
000000
01FC00
0F8F00
1E0780
3E07C0
3C03C0
7C03E0
7803E0
F803E0
F803E0
F803E0
F803E0
F803C0
F807C0
780780
7C0F80
3C0F00
1E3E00
07F000
ENDCHAR
STARTCHAR ohungarumlaut
ENCODING 337
SWIDTH 574 0
DWIDTH 15 0
BBX 13 18 0 0
BITMAP
0618
0E38
1E78
38E0
6180
0000
0FC0
3CF0
7870
7878
F078
F078
F078
F078
F0F0
70F0
79E0
1F80
ENDCHAR
STARTCHAR OE
ENCODING 338
SWIDTH 963 0
DWIDTH 27 0
BBX 26 18 0 0
BITMAP
01FFFFC0
0F87C1C0
1E07C0C0
3E07C080
3C07C080
7C07C000
780F8200
F80F8600
F80FFE00
F80F8C00
F80F8400
F80F8400
F81F0440
781F0040
7C1F00C0
3C1F0180
1E1F0780
07FFFF80
ENDCHAR
STARTCHAR oe
ENCODING 339
SWIDTH 852 0
DWIDTH 23 0
BBX 21 12 0 0
BITMAP
0FC7E0
3CFE78
787C38
787C38
F07878
F078F0
F07F80
F07800
F0F800
70F810
79FC60
1F8F80
ENDCHAR
STARTCHAR Racute
ENCODING 340
SWIDTH 796 0
DWIDTH 20 0
BBX 19 24 0 0
BITMAP
000C00
001C00
003C00
007000
00C000
000000
3FFF00
0F87C0
0F83E0
0F83E0
0F83E0
0F83E0
1F03C0
1F0780
1FFC00
1F3C00
1F1E00
1F1E00
3E1F00
3E1F00
3E1F20
3E0FA0
3E0FC0
FF8780
ENDCHAR
STARTCHAR racute
ENCODING 341
SWIDTH 519 0
DWIDTH 13 0
BBX 12 18 0 0
BITMAP
00C0
01C0
03C0
0700
0C00
0000
FCE0
3DF0
3EF0
3C60
7800
7800
7800
7800
F000
F000
F000
F000
ENDCHAR
STARTCHAR Rcommaaccent
ENCODING 342
SWIDTH 796 0
DWIDTH 20 0
BBX 19 27 0 -9
BITMAP
3FFF00
0F87C0
0F83E0
0F83E0
0F83E0
0F83E0
1F03C0
1F0780
1FFC00
1F3C00
1F1E00
1F1E00
3E1F00
3E1F00
3E1F20
3E0FA0
3E0FC0
FF8780
000000
00E000
01F000
01F000
00F000
002000
004000
008000
010000
ENDCHAR
STARTCHAR rcommaaccent
ENCODING 343
SWIDTH 519 0
DWIDTH 13 0
BBX 12 21 0 -9
BITMAP
FCE0
3DF0
3EF0
3C60
7800
7800
7800
7800
F000
F000
F000
F000
0000
3800
7C00
7C00
3C00
0800
1000
2000
4000
ENDCHAR
STARTCHAR Rcaron
ENCODING 344
SWIDTH 796 0
DWIDTH 20 0
BBX 19 24 0 0
BITMAP
00C600
00CC00
007800
007000
006000
000000
3FFF00
0F87C0
0F83E0
0F83E0
0F83E0
0F83E0
1F03C0
1F0780
1FFC00
1F3C00
1F1E00
1F1E00
3E1F00
3E1F00
3E1F20
3E0FA0
3E0FC0
FF8780
ENDCHAR
STARTCHAR rcaron
ENCODING 345
SWIDTH 519 0
DWIDTH 13 0
BBX 12 18 0 0
BITMAP
0C60
0CC0
0780
0700
0600
0000
FCE0
3DF0
3EF0
3C60
7800
7800
7800
7800
F000
F000
F000
F000
ENDCHAR
STARTCHAR Sacute
ENCODING 346
SWIDTH 685 0
DWIDTH 16 0
BBX 15 24 0 0
BITMAP
0030
0070
00F0
01C0
0300
0000
03F2
0E1E
180E
3804
3804
3C04
3F00
3FE0
1FF8
1FF8
07FC
00FC
403C
401C
401C
E018
F070
9FC0
ENDCHAR
STARTCHAR sacute
ENCODING 347
SWIDTH 481 0
DWIDTH 13 0
BBX 11 18 0 0
BITMAP
00C0
01C0
03C0
0700
0C00
0000
0FC0
39E0
71E0
78C0
7E00
3F00
0F80
03C0
61C0
F1C0
F380
7E00
ENDCHAR
STARTCHAR Scircumflex
ENCODING 348
SWIDTH 685 0
DWIDTH 16 0
BBX 15 24 0 0
BITMAP
0060
00E0
01E0
0330
0630
0000
03F2
0E1E
180E
3804
3804
3C04
3F00
3FE0
1FF8
1FF8
07FC
00FC
403C
401C
401C
E018
F070
9FC0
ENDCHAR
STARTCHAR scircumflex
ENCODING 349
SWIDTH 481 0
DWIDTH 13 0
BBX 11 18 0 0
BITMAP
0300
0700
0F00
1980
3180
0000
0FC0
39E0
71E0
78C0
7E00
3F00
0F80
03C0
61C0
F1C0
F380
7E00
ENDCHAR
STARTCHAR Scedilla
ENCODING 350
SWIDTH 685 0
DWIDTH 16 0
BBX 15 23 0 -5
BITMAP
03F2
0E1E
180E
3804
3804
3C04
3F00
3FE0
1FF8
1FF8
07FC
00FC
403C
401C
401C
E018
F070
9FC0
0100
0380
0180
0180
0700
ENDCHAR
STARTCHAR scedilla
ENCODING 351
SWIDTH 481 0
DWIDTH 13 0
BBX 11 17 0 -5
BITMAP
0FC0
39E0
71E0
78C0
7E00
3F00
0F80
03C0
61C0
F1C0
F380
7E00
0400
0E00
0600
0600
1C00
ENDCHAR
STARTCHAR Scaron
ENCODING 352
SWIDTH 685 0
DWIDTH 16 0
BBX 15 18 0 0
BITMAP
018C
0198
00F0
00E0
00C0
03F8
0F8A
1E06
1F84
3FE0
3FF0
1FF8
47FC
43FC
40FC
E078
F070
9FC0
ENDCHAR
STARTCHAR scaron
ENCODING 353
SWIDTH 481 0
DWIDTH 13 0
BBX 11 18 0 0
BITMAP
0C60
0CC0
0780
0700
0600
0000
0FC0
39E0
71E0
78C0
7E00
3F00
0F80
03C0
61C0
F1C0
F380
7E00
ENDCHAR
STARTCHAR Tcommaaccent
ENCODING 354
SWIDTH 722 0
DWIDTH 18 0
BBX 17 23 0 -5
BITMAP
7FFF80
73E780
E3E380
C3E300
83E100
83E100
07C000
07C000
07C000
07C000
07C000
07C000
0F8000
0F8000
0F8000
0F8000
0F8000
3FE000
010000
038000
018000
018000
070000
ENDCHAR
STARTCHAR tcommaaccent
ENCODING 355
SWIDTH 407 0
DWIDTH 10 0
BBX 9 21 0 -5
BITMAP
1E00
1E00
1E00
1E00
FF80
3C00
3C00
3C00
7800
7800
7800
7800
F000
F100
F200
7C00
1000
3800
1800
1800
7000
ENDCHAR
STARTCHAR Tcaron
ENCODING 356
SWIDTH 722 0
DWIDTH 18 0
BBX 17 24 0 0
BITMAP
031800
033000
01E000
01C000
018000
000000
7FFF80
73E780
E3E380
C3E300
83E100
83E100
07C000
07C000
07C000
07C000
07C000
07C000
0F8000
0F8000
0F8000
0F8000
0F8000
3FE000
ENDCHAR
STARTCHAR tcaron
ENCODING 357
SWIDTH 646 0
DWIDTH 16 0
BBX 15 18 0 0
BITMAP
001C
003E
1E3E
1E1E
1E04
1E08
FF90
3C20
3C00
3C00
7800
7800
7800
7800
F000
F100
F200
7C00
ENDCHAR
STARTCHAR Tbar
ENCODING 358
SWIDTH 722 0
DWIDTH 18 0
BBX 17 18 0 0
BITMAP
7FFF80
73E780
E3E380
C3E300
83E100
83E100
07C000
07C000
1FFC00
1FFC00
07C000
07C000
0F8000
0F8000
0F8000
0F8000
0F8000
3FE000
ENDCHAR
STARTCHAR tbar
ENCODING 359
SWIDTH 407 0
DWIDTH 10 0
BBX 11 16 -1 0
BITMAP
0F00
0F00
0F00
0F00
7FC0
1E00
1E00
1E00
3C00
FFE0
FFE0
3C00
7800
7880
7900
3E00
ENDCHAR
STARTCHAR Utilde
ENCODING 360
SWIDTH 833 0
DWIDTH 20 0
BBX 19 22 1 0
BITMAP
03C400
07F800
08F000
000000
FF87E0
3E0180
3E0180
3E0180
3E0180
7C0100
7C0100
7C0300
7C0300
7C0300
7C0200
F80200
F80600
F80600
F80600
F80C00
7C3C00
1FF000
ENDCHAR
STARTCHAR utilde
ENCODING 361
SWIDTH 685 0
DWIDTH 16 0
BBX 15 16 0 0
BITMAP
0788
0FF0
11E0
0000
FC3C
3C3C
3C3C
3C3C
7878
7878
7878
78F8
F1F0
F2F2
FCF4
7878
ENDCHAR
STARTCHAR Umacron
ENCODING 362
SWIDTH 833 0
DWIDTH 20 0
BBX 19 21 1 0
BITMAP
07F800
07F800
000000
FF87E0
3E0180
3E0180
3E0180
3E0180
7C0100
7C0100
7C0300
7C0300
7C0300
7C0200
F80200
F80600
F80600
F80600
F80C00
7C3C00
1FF000
ENDCHAR
STARTCHAR umacron
ENCODING 363
SWIDTH 685 0
DWIDTH 16 0
BBX 15 15 0 0
BITMAP
0FF0
0FF0
0000
FC3C
3C3C
3C3C
3C3C
7878
7878
7878
78F8
F1F0
F2F2
FCF4
7878
ENDCHAR
STARTCHAR Ubreve
ENCODING 364
SWIDTH 833 0
DWIDTH 20 0
BBX 19 23 1 0
BITMAP
040800
061800
03F000
01E000
000000
FF87E0
3E0180
3E0180
3E0180
3E0180
7C0100
7C0100
7C0300
7C0300
7C0300
7C0200
F80200
F80600
F80600
F80600
F80C00
7C3C00
1FF000
ENDCHAR
STARTCHAR ubreve
ENCODING 365
SWIDTH 685 0
DWIDTH 16 0
BBX 15 17 0 0
BITMAP
0810
0C30
07E0
03C0
0000
FC3C
3C3C
3C3C
3C3C
7878
7878
7878
78F8
F1F0
F2F2
FCF4
7878
ENDCHAR
STARTCHAR Uring
ENCODING 366
SWIDTH 833 0
DWIDTH 20 0
BBX 19 24 1 0
BITMAP
01C000
036000
022000
036000
01C000
000000
FF87E0
3E0180
3E0180
3E0180
3E0180
7C0100
7C0100
7C0300
7C0300
7C0300
7C0200
F80200
F80600
F80600
F80600
F80C00
7C3C00
1FF000
ENDCHAR
STARTCHAR uring
ENCODING 367
SWIDTH 685 0
DWIDTH 16 0
BBX 15 18 0 0
BITMAP
0380
06C0
0440
06C0
0380
0000
FC3C
3C3C
3C3C
3C3C
7878
7878
7878
78F8
F1F0
F2F2
FCF4
7878
ENDCHAR
STARTCHAR Uhungarumlaut
ENCODING 368
SWIDTH 833 0
DWIDTH 20 0
BBX 19 24 1 0
BITMAP
018600
038E00
079E00
0E3800
186000
000000
FF87E0
3E0180
3E0180
3E0180
3E0180
7C0100
7C0100
7C0300
7C0300
7C0300
7C0200
F80200
F80600
F80600
F80600
F80C00
7C3C00
1FF000
ENDCHAR
STARTCHAR uhungarumlaut
ENCODING 369
SWIDTH 685 0
DWIDTH 16 0
BBX 15 18 0 0
BITMAP
030C
071C
0F3C
1C70
30C0
0000
FC3C
3C3C
3C3C
3C3C
7878
7878
7878
78F8
F1F0
F2F2
FCF4
7878
ENDCHAR
STARTCHAR Uogonek
ENCODING 370
SWIDTH 833 0
DWIDTH 20 0
BBX 19 23 1 -5
BITMAP
FF87E0
3E0180
3E0180
3E0180
3E0180
7C0100
7C0100
7C0300
7C0300
7C0300
7C0200
F80200
F80600
F80600
F80600
F80C00
7C3C00
1FF000
010000
020000
060000
064000
038000
ENDCHAR
STARTCHAR uogonek
ENCODING 371
SWIDTH 685 0
DWIDTH 16 0
BBX 15 17 0 -5
BITMAP
FC3C
3C3C
3C3C
3C3C
7878
7878
7878
78F8
F1F0
F2F2
FCF4
7878
0100
0200
0600
0640
0380
ENDCHAR
STARTCHAR Wcircumflex
ENCODING 372
SWIDTH 944 0
DWIDTH 25 0
BBX 25 24 0 0
BITMAP
000C0000
001C0000
003C0000
00660000
00C60000
00000000
FF8F1F80
3E0F0600
3E0F0400
3E1F0C00
3E1F0800
3E1F0800
1F3F9800
1F2F9000
1F2F9000
1F6FB000
1F4FA000
1F4FA000
0F87C000
0F87C000
0F078000
07038000
06030000
06030000
ENDCHAR
STARTCHAR wcircumflex
ENCODING 373
SWIDTH 833 0
DWIDTH 20 0
BBX 19 18 0 0
BITMAP
003000
007000
00F000
019800
031800
000000
FC3CC0
3C3CE0
3C3C60
787820
787820
787820
F0F020
F0F040
F0F040
F0F080
797900
3E3E00
ENDCHAR
STARTCHAR Ycircumflex
ENCODING 374
SWIDTH 704 0
DWIDTH 18 0
BBX 19 24 0 0
BITMAP
006000
00E000
01E000
033000
063000
000000
FF8FE0
3E0380
3E0300
3E0600
1F0400
1F0C00
1F1800
0F9000
0FB000
0FE000
07C000
07C000
078000
0F8000
0F8000
0F8000
0F8000
3FE000
ENDCHAR
STARTCHAR ycircumflex
ENCODING 375
SWIDTH 519 0
DWIDTH 13 0
BBX 15 23 -3 -5
BITMAP
00C0
01C0
03C0
0660
0C60
0000
0E0C
1F0E
2F06
0784
078C
0788
03D8
03D0
03F0
01E0
01E0
01C0
0180
6300
F600
FC00
7000
ENDCHAR
STARTCHAR Ydieresis
ENCODING 376
SWIDTH 704 0
DWIDTH 18 0
BBX 17 18 0 0
BITMAP
030C00
079E00
079E00
030C00
000000
000000
FF1F80
3E0600
1E0C00
1F1800
0F3000
0FE000
07C000
078000
078000
0F8000
0F8000
3FE000
ENDCHAR
STARTCHAR Zacute
ENCODING 377
SWIDTH 704 0
DWIDTH 18 0
BBX 17 24 0 0
BITMAP
000C00
001C00
003C00
007000
00C000
000000
1FFF80
1C0F80
181F80
303F00
207E00
207C00
00F800
01F000
03F000
07E000
0FC000
0F8000
1F0100
3F0100
7E0300
FC0600
FC0E00
FFFE00
ENDCHAR
STARTCHAR zacute
ENCODING 378
SWIDTH 519 0
DWIDTH 14 0
BBX 13 18 0 0
BITMAP
0060
00E0
01E0
0380
0600
0000
1E18
3FF8
7FF0
41E0
00C0
0180
0600
1C00
3E10
7FF0
FFE0
C7C0
ENDCHAR
STARTCHAR Zdotaccent
ENCODING 379
SWIDTH 704 0
DWIDTH 18 0
BBX 17 23 0 0
BITMAP
006000
00F000
00F000
006000
000000
1FFF80
1C0F80
181F80
303F00
207E00
207C00
00F800
01F000
03F000
07E000
0FC000
0F8000
1F0100
3F0100
7E0300
FC0600
FC0E00
FFFE00
ENDCHAR
STARTCHAR zdotaccent
ENCODING 380
SWIDTH 519 0
DWIDTH 14 0
BBX 13 17 0 0
BITMAP
0300
0780
0780
0300
0000
1E18
3FF8
7FF0
41E0
00C0
0180
0600
1C00
3E10
7FF0
FFE0
C7C0
ENDCHAR
STARTCHAR Zcaron
ENCODING 381
SWIDTH 704 0
DWIDTH 18 0
BBX 17 18 0 0
BITMAP
018C00
019800
00F000
00E000
00C000
3FFF80
303F00
607E00
60FC00
41F800
03F000
07E000
0FC100
1F8100
3F0300
7E0600
FC0E00
FFFE00
ENDCHAR
STARTCHAR zcaron
ENCODING 382
SWIDTH 519 0
DWIDTH 14 0
BBX 13 18 0 0
BITMAP
0630
0660
03C0
0380
0300
0000
1E18
3FF8
7FF0
41E0
00C0
0180
0600
1C00
3E10
7FF0
FFE0
C7C0
ENDCHAR
STARTCHAR uni0186
ENCODING 390
SWIDTH 759 0
DWIDTH 18 0
BBX 17 18 0 0
BITMAP
07F000
1C3C00
301E00
601F00
400F00
000F80
000F80
000F80
000F80
000F80
000F80
000F00
401F00
401E00
403E00
E03C00
F0F800
9FC000
ENDCHAR
STARTCHAR uni0189
ENCODING 393
SWIDTH 833 0
DWIDTH 21 0
BBX 20 18 0 0
BITMAP
3FFE00
0F8780
0F83C0
0F83E0
0F81E0
0F81F0
1F01F0
1F01F0
7FE1F0
1F01F0
1F01F0
1F01E0
3E03E0
3E03C0
3E07C0
3E0780
3E1F00
FFF800
ENDCHAR
STARTCHAR uni018E
ENCODING 398
SWIDTH 741 0
DWIDTH 18 0
BBX 17 18 0 0
BITMAP
3FFF80
383E00
303E00
603E00
403E00
483E00
087C00
087C00
0C7C00
1FFC00
187C00
107C00
10F800
40F800
40F800
C0F800
E0F800
FFFE00
ENDCHAR
STARTCHAR florin
ENCODING 402
SWIDTH 574 0
DWIDTH 15 0
BBX 17 23 -2 -5
BITMAP
001F00
007B80
007380
00F300
00F000
00F000
00F000
07FE00
01E000
01E000
01E000
01E000
03C000
03C000
03C000
03C000
078000
078000
078000
678000
E70000
EF0000
7C0000
ENDCHAR
STARTCHAR uni0197
ENCODING 407
SWIDTH 444 0
DWIDTH 12 0
BBX 11 18 0 0
BITMAP
3FE0
0F80
0F80
0F80
0F80
0F80
1F00
1F00
FFE0
FFE0
1F00
1F00
3E00
3E00
3E00
3E00
3E00
FF80
ENDCHAR
STARTCHAR uni019A
ENCODING 410
SWIDTH 389 0
DWIDTH 8 0
BBX 11 18 -2 0
BITMAP
1F80
0780
0780
0780
0F00
0F00
0F00
0F00
FFE0
FFE0
1E00
1E00
1E00
1E00
3C00
3C80
3D00
1E00
ENDCHAR
STARTCHAR uni019D
ENCODING 413
SWIDTH 852 0
DWIDTH 22 0
BBX 26 23 -5 -5
BITMAP
01F00FC0
00780300
007C0300
007E0300
007F0200
007F0200
005F8200
00CFC600
00C7E600
00C7E400
00C3F400
0081FC00
0080FC00
01E0F800
03C07800
03C03800
03C01800
03C01800
67800000
F7800000
F7800000
EF000000
7C000000
ENDCHAR
STARTCHAR uni019F
ENCODING 415
SWIDTH 833 0
DWIDTH 20 0
BBX 19 18 0 0
BITMAP
01FC00
0F8F00
1E0780
3E07C0
3C03C0
7C03E0
7803E0
F803E0
FFFFE0
FFFFE0
F803E0
F803C0
F807C0
780780
7C0F80
3C0F00
1E3E00
07F000
ENDCHAR
STARTCHAR Ohorn
ENCODING 416
SWIDTH 833 0
DWIDTH 20 0
BBX 22 18 0 0
BITMAP
01FC38
0F8F7C
1E07FC
3E07FC
3C03C8
7C03F0
7803E0
F803E0
F803E0
F803E0
F803E0
F803C0
F807C0
780780
7C0F80
3C0F00
1E3E00
07F000
ENDCHAR
STARTCHAR ohorn
ENCODING 417
SWIDTH 574 0
DWIDTH 15 0
BBX 17 12 0 0
BITMAP
0FC700
3CFF80
787F80
787F80
F07900
F07A00
F07C00
F07800
F0F000
70F000
79E000
1F8000
ENDCHAR
STARTCHAR Uhorn
ENCODING 431
SWIDTH 833 0
DWIDTH 20 0
BBX 22 18 1 0
BITMAP
FF87F8
3E01FC
3E01FC
3E01BC
3E0188
7C0110
7C0120
7C0340
7C0300
7C0300
7C0200
F80200
F80600
F80600
F80600
F80C00
7C3C00
1FF000
ENDCHAR
STARTCHAR uhorn
ENCODING 432
SWIDTH 685 0
DWIDTH 16 0
BBX 19 12 0 0
BITMAP
FC3DC0
3C3FE0
3C3FE0
3C3DE0
787840
787880
787900
78FA00
F1F000
F2F200
FCF400
787800
ENDCHAR
STARTCHAR uni01B5
ENCODING 437
SWIDTH 704 0
DWIDTH 18 0
BBX 17 18 0 0
BITMAP
1FFF80
1C0F80
181F80
303F00
207E00
207C00
00F800
01F000
1FFC00
1FFC00
0FC000
0F8000
1F0100
3F0100
7E0300
FC0600
FC0E00
FFFE00
ENDCHAR
STARTCHAR uni01B6
ENCODING 438
SWIDTH 519 0
DWIDTH 14 0
BBX 13 12 0 0
BITMAP
1E18
3FF8
7FF0
41E0
00C0
7FF0
7FF0
1C00
3E10
7FF0
FFE0
C7C0
ENDCHAR
STARTCHAR uni01BB
ENCODING 443
SWIDTH 574 0
DWIDTH 14 0
BBX 13 18 0 0
BITMAP
03C0
0FF0
18F0
3078
3878
3C78
3C78
1870
FFF8
FFF8
0380
0700
0C10
1810
3030
7FE0
FFE0
FFE0
ENDCHAR
STARTCHAR uni01BC
ENCODING 444
SWIDTH 574 0
DWIDTH 14 0
BBX 13 18 0 0
BITMAP
1FF8
1FF0
1FE0
1800
1800
3000
3780
3FE0
21F0
00F0
00F0
00F0
60F0
F0F0
F1E0
E1E0
63C0
3F00
ENDCHAR
STARTCHAR uni01C0
ENCODING 448
SWIDTH 606 0
DWIDTH 15 0
BBX 2 18 6 0
BITMAP
C0
C0
C0
C0
C0
C0
C0
C0
C0
C0
C0
C0
C0
C0
C0
C0
C0
C0
ENDCHAR
STARTCHAR uni01C2
ENCODING 450
SWIDTH 606 0
DWIDTH 15 0
BBX 12 18 1 -2
BITMAP
0600
0600
0600
0600
0600
0600
FFF0
FFF0
0600
0600
FFF0
FFF0
0600
0600
0600
0600
0600
0600
ENDCHAR
STARTCHAR uni01C3
ENCODING 451
SWIDTH 333 0
DWIDTH 8 0
BBX 7 18 0 0
BITMAP
1C
3E
3E
3E
3C
3C
38
38
38
30
30
30
30
00
70
F8
F8
70
ENDCHAR
STARTCHAR uni01CD
ENCODING 461
SWIDTH 741 0
DWIDTH 20 0
BBX 20 24 -1 0
BITMAP
006300
006600
003C00
003800
003000
000000
000800
001800
001C00
003C00
007C00
007E00
00DE00
019E00
011F00
031F00
060F00
040F80
0FFF80
180F80
1807C0
3007C0
7007C0
FC1FF0
ENDCHAR
STARTCHAR uni01CE
ENCODING 462
SWIDTH 667 0
DWIDTH 16 0
BBX 15 18 0 0
BITMAP
0630
0660
03C0
0380
0300
0000
0FBC
3C7C
783C
783C
F078
F078
F078
F078
F0F0
70F2
79F4
1E78
ENDCHAR
STARTCHAR uni01CF
ENCODING 463
SWIDTH 444 0
DWIDTH 12 0
BBX 11 24 0 0
BITMAP
18C0
1980
0F00
0E00
0C00
0000
3FE0
0F80
0F80
0F80
0F80
0F80
1F00
1F00
1F00
1F00
1F00
1F00
3E00
3E00
3E00
3E00
3E00
FF80
ENDCHAR
STARTCHAR uni01D0
ENCODING 464
SWIDTH 389 0
DWIDTH 8 0
BBX 8 18 0 0
BITMAP
63
66
3C
38
30
00
FC
3C
3C
3C
78
78
78
78
F0
F2
F4
78
ENDCHAR
STARTCHAR uni01D1
ENCODING 465
SWIDTH 833 0
DWIDTH 20 0
BBX 19 24 0 0
BITMAP
018C00
019800
00F000
00E000
00C000
000000
01FC00
0F8F00
1E0780
3E07C0
3C03C0
7C03E0
7803E0
F803E0
F803E0
F803E0
F803E0
F803C0
F807C0
780780
7C0F80
3C0F00
1E3E00
07F000
ENDCHAR
STARTCHAR uni01D2
ENCODING 466
SWIDTH 574 0
DWIDTH 15 0
BBX 13 18 0 0
BITMAP
0C60
0CC0
0780
0700
0600
0000
0FC0
3CF0
7870
7878
F078
F078
F078
F078
F0F0
70F0
79E0
1F80
ENDCHAR
STARTCHAR uni01D3
ENCODING 467
SWIDTH 833 0
DWIDTH 20 0
BBX 19 24 1 0
BITMAP
031800
033000
01E000
01C000
018000
000000
FF87E0
3E0180
3E0180
3E0180
3E0180
7C0100
7C0100
7C0300
7C0300
7C0300
7C0200
F80200
F80600
F80600
F80600
F80C00
7C3C00
1FF000
ENDCHAR
STARTCHAR uni01D4
ENCODING 468
SWIDTH 685 0
DWIDTH 16 0
BBX 15 18 0 0
BITMAP
0630
0660
03C0
0380
0300
0000
FC3C
3C3C
3C3C
3C3C
7878
7878
7878
78F8
F1F0
F2F2
FCF4
7878
ENDCHAR
STARTCHAR uni01D5
ENCODING 469
SWIDTH 833 0
DWIDTH 20 0
BBX 19 26 1 0
BITMAP
03FC00
03FC00
000000
030C00
079E00
079E00
030C00
000000
FF87E0
3E0180
3E0180
3E0180
3E0180
7C0100
7C0100
7C0300
7C0300
7C0300
7C0200
F80200
F80600
F80600
F80600
F80C00
7C3C00
1FF000
ENDCHAR
STARTCHAR uni01D6
ENCODING 470
SWIDTH 685 0
DWIDTH 16 0
BBX 15 20 0 0
BITMAP
0FF0
0FF0
0000
0C30
1E78
1E78
0C30
0000
FC3C
3C3C
3C3C
3C3C
7878
7878
7878
78F8
F1F0
F2F2
FCF4
7878
ENDCHAR
STARTCHAR uni01D7
ENCODING 471
SWIDTH 833 0
DWIDTH 20 0
BBX 19 29 1 0
BITMAP
001800
003800
007800
00E000
018000
000000
030C00
079E00
079E00
030C00
000000
FF87E0
3E0180
3E0180
3E0180
3E0180
7C0100
7C0100
7C0300
7C0300
7C0300
7C0200
F80200
F80600
F80600
F80600
F80C00
7C3C00
1FF000
ENDCHAR
STARTCHAR uni01D8
ENCODING 472
SWIDTH 685 0
DWIDTH 16 0
BBX 15 23 0 0
BITMAP
0030
0070
00F0
01C0
0300
0000
0C30
1E78
1E78
0C30
0000
FC3C
3C3C
3C3C
3C3C
7878
7878
7878
78F8
F1F0
F2F2
FCF4
7878
ENDCHAR
STARTCHAR uni01D9
ENCODING 473
SWIDTH 833 0
DWIDTH 20 0
BBX 19 29 1 0
BITMAP
018C00
019800
00F000
00E000
00C000
000000
030C00
079E00
079E00
030C00
000000
FF87E0
3E0180
3E0180
3E0180
3E0180
7C0100
7C0100
7C0300
7C0300
7C0300
7C0200
F80200
F80600
F80600
F80600
F80C00
7C3C00
1FF000
ENDCHAR
STARTCHAR uni01DA
ENCODING 474
SWIDTH 685 0
DWIDTH 16 0
BBX 15 23 0 0
BITMAP
0630
0660
03C0
0380
0300
0000
0C30
1E78
1E78
0C30
0000
FC3C
3C3C
3C3C
3C3C
7878
7878
7878
78F8
F1F0
F2F2
FCF4
7878
ENDCHAR
STARTCHAR uni01DB
ENCODING 475
SWIDTH 833 0
DWIDTH 20 0
BBX 19 29 1 0
BITMAP
030000
038000
03C000
00E000
003000
000000
030C00
079E00
079E00
030C00
000000
FF87E0
3E0180
3E0180
3E0180
3E0180
7C0100
7C0100
7C0300
7C0300
7C0300
7C0200
F80200
F80600
F80600
F80600
F80C00
7C3C00
1FF000
ENDCHAR
STARTCHAR uni01DC
ENCODING 476
SWIDTH 685 0
DWIDTH 16 0
BBX 15 23 0 0
BITMAP
0C00
0E00
0F00
0380
00C0
0000
0C30
1E78
1E78
0C30
0000
FC3C
3C3C
3C3C
3C3C
7878
7878
7878
78F8
F1F0
F2F2
FCF4
7878
ENDCHAR
STARTCHAR uni01DD
ENCODING 477
SWIDTH 519 0
DWIDTH 14 0
BBX 12 12 0 0
BITMAP
0F80
31E0
40E0
00F0
00F0
0FF0
78F0
F0F0
E1E0
E1E0
F3C0
3F00
ENDCHAR
STARTCHAR uni01DE
ENCODING 478
SWIDTH 741 0
DWIDTH 20 0
BBX 20 25 -1 0
BITMAP
00FF00
00FF00
000000
006180
00F3C0
00F3C0
006180
000000
001800
001C00
003C00
007C00
007E00
00DE00
019E00
011F00
031F00
060F00
040F80
0FFF80
180F80
1807C0
3007C0
7007C0
FC1FF0
ENDCHAR
STARTCHAR uni01DF
ENCODING 479
SWIDTH 667 0
DWIDTH 16 0
BBX 15 20 0 0
BITMAP
0FF0
0FF0
0000
0C30
1E78
1E78
0C30
0000
0FBC
3CFC
787C
787C
F078
F078
F078
F078
F0F0
70F2
79F4
1E78
ENDCHAR
STARTCHAR uni01E0
ENCODING 480
SWIDTH 741 0
DWIDTH 20 0
BBX 20 26 -1 0
BITMAP
01FE00
01FE00
000000
003000
007800
007800
003000
000000
000800
001800
001C00
003C00
007C00
007E00
00DE00
019E00
011F00
031F00
060F00
040F80
0FFF80
180F80
1807C0
3007C0
7007C0
FC1FF0
ENDCHAR
STARTCHAR uni01E1
ENCODING 481
SWIDTH 667 0
DWIDTH 16 0
BBX 15 20 0 0
BITMAP
0FF0
0FF0
0000
0180
03C0
03C0
0180
0000
0FBC
3C7C
783C
783C
F078
F078
F078
F078
F0F0
70F2
79F4
1E78
ENDCHAR
STARTCHAR uni01E2
ENCODING 482
SWIDTH 889 0
DWIDTH 24 0
BBX 24 21 -1 0
BITMAP
003FC0
003FC0
000000
03FFFF
005F07
00DF03
009F02
019F02
011F00
033E08
023E18
063FF8
07FE30
0C3E10
083E10
187C11
107C01
307C03
207C06
607C1E
F9FFFE
ENDCHAR
STARTCHAR uni01E3
ENCODING 483
SWIDTH 815 0
DWIDTH 23 0
BBX 21 15 0 0
BITMAP
01FE00
01FE00
000000
0FC7E0
38EE78
787C38
707C38
007878
03F8F0
1E7F80
787800
F07800
F0B810
FF3C60
7C0F80
ENDCHAR
STARTCHAR uni01E4
ENCODING 484
SWIDTH 815 0
DWIDTH 19 0
BBX 21 18 0 0
BITMAP
01FE40
0F83C0
1E01C0
3E0080
3C0080
7C0080
780000
F80000
F80000
F80000
F81FC0
F80780
F80780
780780
7C3FF8
3C3FF8
1E1F00
07F100
ENDCHAR
STARTCHAR uni01E5
ENCODING 485
SWIDTH 611 0
DWIDTH 15 0
BBX 15 20 -2 -5
BITMAP
0006
000E
0018
03F8
0F3C
0E1E
1E1E
1E1E
1E1E
0F3C
07F0
1C00
3800
3FE0
FFFE
FFFE
E03C
E03C
F078
3FE0
ENDCHAR
STARTCHAR Gcaron
ENCODING 486
SWIDTH 815 0
DWIDTH 19 0
BBX 18 24 0 0
BITMAP
018C00
019800
00F000
00E000
00C000
000000
01FE40
0F83C0
1E01C0
3E0080
3C0080
7C0080
780000
F80000
F80000
F80000
F81FC0
F80780
F80780
780780
7C0F00
3C0F00
1E1F00
07F100
ENDCHAR
STARTCHAR gcaron
ENCODING 487
SWIDTH 611 0
DWIDTH 15 0
BBX 15 26 -2 -5
BITMAP
018C
0198
00F0
00E0
00C0
0000
0006
000E
0018
03F8
0F3C
0E1E
1E1E
1E1E
1E1E
0F3C
07F0
1C00
3800
3FE0
1FF8
307C
E03C
E03C
F078
3FE0
ENDCHAR
STARTCHAR uni01E8
ENCODING 488
SWIDTH 778 0
DWIDTH 20 0
BBX 20 24 0 0
BITMAP
018C00
019800
00F000
00E000
00C000
000000
3FE3F0
0F81C0
0F8180
0F8300
0F8600
0F8C00
1F1800
1F3000
1F7800
1FF800
1F7C00
1F3E00
3E3E00
3E1F00
3E1F80
3E0F80
3E0FC0
FF9FE0
ENDCHAR
STARTCHAR uni01E9
ENCODING 489
SWIDTH 648 0
DWIDTH 16 0
BBX 15 24 0 0
BITMAP
18C0
1980
0F00
0E00
0C00
0000
7E00
1E00
1E00
1E00
1E00
3C00
3CF8
3D3C
3E3C
3C3C
7878
7B80
79E0
78E0
F0F0
F0F2
F0F4
F078
ENDCHAR
STARTCHAR uni01EA
ENCODING 490
SWIDTH 833 0
DWIDTH 20 0
BBX 19 23 0 -5
BITMAP
01FC00
0F8F00
1E0780
3E07C0
3C03C0
7C03E0
7803E0
F803E0
F803E0
F803E0
F803E0
F803C0
F807C0
780780
7C0F80
3C0F00
1E3E00
07F000
004000
008000
018000
019000
00E000
ENDCHAR
STARTCHAR uni01EB
ENCODING 491
SWIDTH 574 0
DWIDTH 15 0
BBX 13 17 0 -5
BITMAP
0FC0
3CF0
7870
7878
F078
F078
F078
F078
F0F0
70F0
79E0
1F80
0200
0400
0C00
0C80
0700
ENDCHAR
STARTCHAR uni01EC
ENCODING 492
SWIDTH 833 0
DWIDTH 20 0
BBX 19 26 0 -5
BITMAP
03FC00
03FC00
000000
01FC00
0F8F00
1E0780
3E07C0
3C03C0
7C03E0
7803E0
F803E0
F803E0
F803E0
F803E0
F803C0
F807C0
780780
7C0F80
3C0F00
1E3E00
07F000
004000
008000
018000
019000
00E000
ENDCHAR
STARTCHAR uni01ED
ENCODING 493
SWIDTH 574 0
DWIDTH 15 0
BBX 13 20 0 -5
BITMAP
1FE0
1FE0
0000
0FC0
3CF0
7870
7878
F078
F078
F078
F078
F0F0
70F0
79E0
1F80
0200
0400
0C00
0C80
0700
ENDCHAR
STARTCHAR uni01F0
ENCODING 496
SWIDTH 370 0
DWIDTH 9 0
BBX 13 23 -5 -5
BITMAP
0318
0330
01E0
01C0
0180
0000
03F0
00F0
00F0
00F0
01E0
01E0
01E0
01E0
03C0
03C0
03C0
03C0
6780
F780
F780
EF00
7C00
ENDCHAR
STARTCHAR uni01F4
ENCODING 500
SWIDTH 815 0
DWIDTH 19 0
BBX 18 24 0 0
BITMAP
001800
003800
007800
00E000
018000
000000
01FE40
0F83C0
1E01C0
3E0080
3C0080
7C0080
780000
F80000
F80000
F80000
F81FC0
F80780
F80780
780780
7C0F00
3C0F00
1E1F00
07F100
ENDCHAR
STARTCHAR uni01F5
ENCODING 501
SWIDTH 611 0
DWIDTH 15 0
BBX 15 26 -2 -5
BITMAP
0018
0038
0078
00E0
0180
0000
0006
000E
0018
03F8
0F3C
0E1E
1E1E
1E1E
1E1E
0F3C
07F0
1C00
3800
3FE0
1FF8
307C
E03C
E03C
F078
3FE0
ENDCHAR
STARTCHAR uni01F8
ENCODING 504
SWIDTH 852 0
DWIDTH 22 0
BBX 21 24 0 0
BITMAP
018000
01C000
01E000
007000
001800
000000
3E01F8
0F0060
0F8060
0FC060
0FE040
0FE040
0BF040
19F8C0
18FCC0
18FC80
187E80
103F80
101F80
301F00
300F00
300700
300300
FC0300
ENDCHAR
STARTCHAR uni01F9
ENCODING 505
SWIDTH 685 0
DWIDTH 16 0
BBX 15 18 0 0
BITMAP
0C00
0E00
0F00
0380
00C0
0000
FC38
3CFC
3D3C
3E3C
7C78
7878
7878
7878
F0F0
F0F2
F0F4
F078
ENDCHAR
STARTCHAR Aringacute
ENCODING 506
SWIDTH 741 0
DWIDTH 20 0
BBX 20 29 -1 0
BITMAP
000600
000E00
001E00
003800
006000
000000
001C00
003600
002200
003600
001C00
000000
001800
001C00
003C00
007C00
007E00
00DE00
019E00
011F00
031F00
060F00
040F80
0FFF80
180F80
1807C0
3007C0
7007C0
FC1FF0
ENDCHAR
STARTCHAR aringacute
ENCODING 507
SWIDTH 667 0
DWIDTH 16 0
BBX 15 24 0 0
BITMAP
0060
00E0
01E0
0380
0600
0000
0380
06C0
0440
06C0
0380
0000
0FBC
3CFC
787C
787C
F078
F078
F078
F078
F0F0
70F2
79F4
1E78
ENDCHAR
STARTCHAR AEacute
ENCODING 508
SWIDTH 889 0
DWIDTH 24 0
BBX 24 24 -1 0
BITMAP
0000C0
0001C0
0003C0
000700
000C00
000000
03FFFF
005F07
00DF03
009F02
019F02
011F00
033E08
023E18
063FF8
07FE30
0C3E10
083E10
187C11
107C01
307C03
207C06
607C1E
F9FFFE
ENDCHAR
STARTCHAR aeacute
ENCODING 509
SWIDTH 815 0
DWIDTH 23 0
BBX 21 18 0 0
BITMAP
000600
000E00
001E00
003800
006000
000000
0FC7E0
38EE78
787C38
707C38
007878
03F8F0
1E7F80
787800
F07800
F0B810
FF3C60
7C0F80
ENDCHAR
STARTCHAR Oslashacute
ENCODING 510
SWIDTH 833 0
DWIDTH 20 0
BBX 19 26 0 -1
BITMAP
000C00
001C00
003C00
007000
00C000
000000
000080
01FD80
0F8F00
1E0780
3E0FC0
3C1BC0
7C33E0
7823E0
F863E0
F8C3E0
F983E0
F903E0
FB03C0
FE07C0
7C0780
7C0F80
3C0F00
3E3E00
67F000
400000
ENDCHAR
STARTCHAR oslashacute
ENCODING 511
SWIDTH 574 0
DWIDTH 15 0
BBX 13 22 0 -2
BITMAP
0060
00E0
01E0
0380
0600
0000
0020
0020
0FC0
3CF0
78F0
7978
F178
F278
F278
F478
F4F0
78F0
79E0
1F80
2000
2000
ENDCHAR
STARTCHAR Scommaaccent
ENCODING 536
SWIDTH 685 0
DWIDTH 16 0
BBX 15 27 0 -9
BITMAP
03F2
0E1E
180E
3804
3804
3C04
3F00
3FE0
1FF8
1FF8
07FC
00FC
403C
401C
401C
E018
F070
9FC0
0000
0380
07C0
07C0
03C0
0080
0100
0200
0400
ENDCHAR
STARTCHAR scommaaccent
ENCODING 537
SWIDTH 481 0
DWIDTH 13 0
BBX 11 21 0 -9
BITMAP
0FC0
39E0
71E0
78C0
7E00
3F00
0F80
03C0
61C0
F1C0
F380
7E00
0000
1C00
3E00
3E00
1E00
0400
0800
1000
2000
ENDCHAR
STARTCHAR Tcommaaccent
ENCODING 538
SWIDTH 722 0
DWIDTH 18 0
BBX 17 27 0 -9
BITMAP
7FFF80
73E780
E3E380
C3E300
83E100
83E100
07C000
07C000
07C000
07C000
07C000
07C000
0F8000
0F8000
0F8000
0F8000
0F8000
3FE000
000000
038000
07C000
07C000
03C000
008000
010000
020000
040000
ENDCHAR
STARTCHAR tcommaaccent
ENCODING 539
SWIDTH 407 0
DWIDTH 10 0
BBX 9 25 0 -9
BITMAP
1E00
1E00
1E00
1E00
FF80
3C00
3C00
3C00
7800
7800
7800
7800
F000
F100
F200
7C00
0000
3800
7C00
7C00
3C00
0800
1000
2000
4000
ENDCHAR
STARTCHAR uni021E
ENCODING 542
SWIDTH 870 0
DWIDTH 23 0
BBX 22 24 0 0
BITMAP
006300
006600
003C00
003800
003000
000000
3FE7FC
0F81F0
0F81F0
0F81F0
0F81F0
0F81F0
1F03E0
1F03E0
1FFFE0
1F03E0
1F03E0
1F03E0
3E07C0
3E07C0
3E07C0
3E07C0
3E07C0
FF9FF0
ENDCHAR
STARTCHAR uni021F
ENCODING 543
SWIDTH 685 0
DWIDTH 16 0
BBX 15 24 0 0
BITMAP
18C0
1980
0F00
0E00
0C00
0000
7E00
1E00
1E00
1E00
3C00
3C00
3C78
3CFC
3D3C
7E3C
7C78
7878
7878
7878
F0F0
F0F2
F0F4
F078
ENDCHAR
STARTCHAR uni0226
ENCODING 550
SWIDTH 741 0
DWIDTH 20 0
BBX 20 23 -1 0
BITMAP
003000
007800
007800
003000
000000
000800
001800
001C00
003C00
007C00
007E00
00DE00
019E00
011F00
031F00
060F00
040F80
0FFF80
180F80
1807C0
3007C0
7007C0
FC1FF0
ENDCHAR
STARTCHAR uni0227
ENCODING 551
SWIDTH 667 0
DWIDTH 16 0
BBX 15 17 0 0
BITMAP
0180
03C0
03C0
0180
0000
0FBC
3C7C
783C
783C
F078
F078
F078
F078
F0F0
70F2
79F4
1E78
ENDCHAR
STARTCHAR uni0228
ENCODING 552
SWIDTH 741 0
DWIDTH 18 0
BBX 17 23 0 -5
BITMAP
3FFF80
0F8380
0F8180
0F8100
0F8100
0F8400
1F0400
1F0C00
1FFC00
1F1800
1F0800
1F0800
3E0900
3E0100
3E0300
3E0600
3E0E00
FFFE00
010000
038000
018000
018000
070000
ENDCHAR
STARTCHAR uni0229
ENCODING 553
SWIDTH 519 0
DWIDTH 14 0
BBX 12 17 0 -5
BITMAP
0FC0
3CF0
7870
7870
F0F0
F1E0
FF00
F000
F000
7020
78C0
1F00
0400
0E00
0600
0600
1C00
ENDCHAR
STARTCHAR uni022A
ENCODING 554
SWIDTH 833 0
DWIDTH 20 0
BBX 19 26 0 0
BITMAP
03FC00
03FC00
000000
030C00
079E00
079E00
030C00
000000
01FC00
0F8F00
1E0780
3E07C0
3C03C0
7C03E0
7803E0
F803E0
F803E0
F803E0
F803E0
F803C0
F807C0
780780
7C0F80
3C0F00
1E3E00
07F000
ENDCHAR
STARTCHAR uni022B
ENCODING 555
SWIDTH 574 0
DWIDTH 15 0
BBX 13 20 0 0
BITMAP
1FE0
1FE0
0000
1860
3CF0
3CF0
1860
0000
0FC0
3CF0
7870
7878
F078
F078
F078
F078
F0F0
70F0
79E0
1F80
ENDCHAR
STARTCHAR uni022C
ENCODING 556
SWIDTH 833 0
DWIDTH 20 0
BBX 19 26 0 0
BITMAP
03FC00
03FC00
000000
00F100
01FE00
023C00
000000
000000
01FC00
0F8F00
1E0780
3E07C0
3C03C0
7C03E0
7803E0
F803E0
F803E0
F803E0
F803E0
F803C0
F807C0
780780
7C0F80
3C0F00
1E3E00
07F000
ENDCHAR
STARTCHAR uni022D
ENCODING 557
SWIDTH 574 0
DWIDTH 15 0
BBX 13 20 0 0
BITMAP
0FF0
0FF0
0000
0788
0FF0
11E0
0000
0000
0FC0
3CF0
7870
7878
F078
F078
F078
F078
F0F0
70F0
79E0
1F80
ENDCHAR
STARTCHAR uni022E
ENCODING 558
SWIDTH 833 0
DWIDTH 20 0
BBX 19 23 0 0
BITMAP
006000
00F000
00F000
006000
000000
01FC00
0F8F00
1E0780
3E07C0
3C03C0
7C03E0
7803E0
F803E0
F803E0
F803E0
F803E0
F803C0
F807C0
780780
7C0F80
3C0F00
1E3E00
07F000
ENDCHAR
STARTCHAR uni022F
ENCODING 559
SWIDTH 574 0
DWIDTH 15 0
BBX 13 17 0 0
BITMAP
0300
0780
0780
0300
0000
0FC0
3CF0
7870
7878
F078
F078
F078
F078
F0F0
70F0
79E0
1F80
ENDCHAR
STARTCHAR uni0230
ENCODING 560
SWIDTH 833 0
DWIDTH 20 0
BBX 19 26 0 0
BITMAP
03FC00
03FC00
000000
006000
00F000
00F000
006000
000000
01FC00
0F8F00
1E0780
3E07C0
3C03C0
7C03E0
7803E0
F803E0
F803E0
F803E0
F803E0
F803C0
F807C0
780780
7C0F80
3C0F00
1E3E00
07F000
ENDCHAR
STARTCHAR uni0231
ENCODING 561
SWIDTH 574 0
DWIDTH 15 0
BBX 13 20 0 0
BITMAP
1FE0
1FE0
0000
0300
0780
0780
0300
0000
0FC0
3CF0
7870
7878
F078
F078
F078
F078
F0F0
70F0
79E0
1F80
ENDCHAR
STARTCHAR uni0232
ENCODING 562
SWIDTH 704 0
DWIDTH 18 0
BBX 19 21 0 0
BITMAP
07F800
07F800
000000
FF8FE0
3E0380
3E0300
3E0600
1F0400
1F0C00
1F1800
0F9000
0FB000
0FE000
07C000
07C000
078000
0F8000
0F8000
0F8000
0F8000
3FE000
ENDCHAR
STARTCHAR uni0233
ENCODING 563
SWIDTH 519 0
DWIDTH 13 0
BBX 15 20 -3 -5
BITMAP
0FF0
0FF0
0000
0E0C
1F0E
2F06
0784
078C
0788
03D8
03D0
03F0
01E0
01E0
01C0
0180
6300
F600
FC00
7000
ENDCHAR
STARTCHAR uni0250
ENCODING 592
SWIDTH 667 0
DWIDTH 16 0
BBX 15 12 0 0
BITMAP
3CF0
5F3C
9E1C
1E1E
3C1E
3C1E
3C1E
3C1E
783C
783C
7C78
7BE0
ENDCHAR
STARTCHAR uni0259
ENCODING 601
SWIDTH 519 0
DWIDTH 14 0
BBX 12 12 0 0
BITMAP
0F80
31E0
40E0
00F0
00F0
0FF0
78F0
F0F0
E1E0
E1E0
F3C0
3F00
ENDCHAR
STARTCHAR uni025F
ENCODING 607
SWIDTH 389 0
DWIDTH 10 0
BBX 14 23 -1 -11
BITMAP
000C
003C
003C
003C
0078
0078
0078
0078
00F0
00F0
00F0
00F0
01E0
01E0
01E0
01E0
1FF0
03C0
03C0
63C0
F780
F780
7E00
ENDCHAR
STARTCHAR uni0265
ENCODING 613
SWIDTH 685 0
DWIDTH 16 0
BBX 15 18 0 -6
BITMAP
3C1E
5E1E
9E1E
1E1E
3C3C
3C3C
3C3C
3C7C
78FC
7978
7E78
3C78
0078
0078
00F0
00F0
00F0
00FC
ENDCHAR
STARTCHAR uni0275
ENCODING 629
SWIDTH 574 0
DWIDTH 15 0
BBX 13 12 0 0
BITMAP
0FC0
3CF0
7870
7878
F078
FFF8
FFF8
F078
F0F0
70F0
79E0
1F80
ENDCHAR
STARTCHAR uni0279
ENCODING 633
SWIDTH 519 0
DWIDTH 13 0
BBX 12 12 0 0
BITMAP
00F0
00F0
00F0
00F0
01E0
01E0
01E0
01E0
63C0
F7C0
FBC0
73F0
ENDCHAR
STARTCHAR uni0287
ENCODING 647
SWIDTH 407 0
DWIDTH 10 0
BBX 9 16 0 0
BITMAP
1F00
2780
4780
0780
0F00
0F00
0F00
0F00
1E00
1E00
1E00
FF80
3C00
3C00
3C00
3C00
ENDCHAR
STARTCHAR uni0289
ENCODING 649
SWIDTH 685 0
DWIDTH 16 0
BBX 15 12 0 0
BITMAP
FC3C
3C3C
3C3C
3C3C
7878
FFFE
FFFE
78F8
F1F0
F2F2
FCF4
7878
ENDCHAR
STARTCHAR uni028C
ENCODING 652
SWIDTH 556 0
DWIDTH 13 0
BBX 12 12 0 0
BITMAP
07C0
19E0
20F0
20F0
40F0
40F0
81E0
81E0
81E0
C3C0
E3C0
63F0
ENDCHAR
STARTCHAR uni028D
ENCODING 653
SWIDTH 833 0
DWIDTH 20 0
BBX 19 12 0 0
BITMAP
0F8F80
13D3C0
21E1E0
41E1E0
41E1E0
81E1E0
83C3C0
83C3C0
83C3C0
C78780
E78780
6787E0
ENDCHAR
STARTCHAR uni028E
ENCODING 654
SWIDTH 519 0
DWIDTH 13 0
BBX 15 17 -3 0
BITMAP
001C
007E
00DE
018C
0300
0700
0F00
0F00
1F80
1780
3780
23C0
63C0
43C0
C1E8
E1F0
60E0
ENDCHAR
STARTCHAR uni029E
ENCODING 670
SWIDTH 648 0
DWIDTH 16 0
BBX 15 18 0 -6
BITMAP
3C1E
5E1E
9E1E
1E1E
0E3C
0F3C
03BC
3C3C
7878
78F8
7978
3E78
0078
00F0
00F0
00F0
00F0
00FC
ENDCHAR
STARTCHAR uni02BB
ENCODING 699
SWIDTH 259 0
DWIDTH 6 0
BBX 5 8 0 10
BITMAP
08
10
20
40
F0
F8
F8
70
ENDCHAR
STARTCHAR afii57929
ENCODING 700
SWIDTH 259 0
DWIDTH 6 0
BBX 5 8 0 10
BITMAP
70
F8
F8
78
10
20
40
80
ENDCHAR
STARTCHAR afii64937
ENCODING 701
SWIDTH 259 0
DWIDTH 6 0
BBX 5 8 0 10
BITMAP
70
F8
F8
F0
40
20
10
08
ENDCHAR
STARTCHAR circumflex
ENCODING 710
SWIDTH 333 0
DWIDTH 8 0
BBX 7 5 0 13
BITMAP
0C
1C
3C
66
C6
ENDCHAR
STARTCHAR caron
ENCODING 711
SWIDTH 333 0
DWIDTH 8 0
BBX 7 5 0 13
BITMAP
C6
CC
78
70
60
ENDCHAR
STARTCHAR uni02C8
ENCODING 712
SWIDTH 287 0
DWIDTH 5 0
BBX 2 6 1 12
BITMAP
C0
C0
C0
C0
C0
C0
ENDCHAR
STARTCHAR macron
ENCODING 713
SWIDTH 333 0
DWIDTH 9 0
BBX 8 2 1 14
BITMAP
FF
FF
ENDCHAR
STARTCHAR uni02CA
ENCODING 714
SWIDTH 333 0
DWIDTH 7 0
BBX 6 5 1 13
BITMAP
0C
1C
3C
70
C0
ENDCHAR
STARTCHAR uni02CB
ENCODING 715
SWIDTH 333 0
DWIDTH 7 0
BBX 6 5 0 13
BITMAP
C0
E0
F0
38
0C
ENDCHAR
STARTCHAR uni02CD
ENCODING 717
SWIDTH 333 0
DWIDTH 9 0
BBX 8 2 1 -3
BITMAP
FF
FF
ENDCHAR
STARTCHAR uni02CE
ENCODING 718
SWIDTH 333 0
DWIDTH 7 0
BBX 6 5 0 -6
BITMAP
C0
E0
F0
38
0C
ENDCHAR
STARTCHAR uni02CF
ENCODING 719
SWIDTH 333 0
DWIDTH 7 0
BBX 6 5 1 -6
BITMAP
0C
1C
3C
70
C0
ENDCHAR
STARTCHAR breve
ENCODING 728
SWIDTH 333 0
DWIDTH 9 0
BBX 8 4 0 13
BITMAP
81
C3
7E
3C
ENDCHAR
STARTCHAR dotaccent
ENCODING 729
SWIDTH 333 0
DWIDTH 7 0
BBX 4 4 1 13
BITMAP
60
F0
F0
60
ENDCHAR
STARTCHAR ring
ENCODING 730
SWIDTH 333 0
DWIDTH 8 0
BBX 5 5 1 13
BITMAP
70
D8
88
D8
70
ENDCHAR
STARTCHAR ogonek
ENCODING 731
SWIDTH 333 0
DWIDTH 8 0
BBX 5 5 1 -5
BITMAP
20
40
C0
C8
70
ENDCHAR
STARTCHAR tilde
ENCODING 732
SWIDTH 333 0
DWIDTH 11 0
BBX 10 3 0 13
BITMAP
3C40
7F80
8F00
ENDCHAR
STARTCHAR hungarumlaut
ENCODING 733
SWIDTH 333 0
DWIDTH 13 0
BBX 12 5 0 13
BITMAP
0C30
1C70
3CF0
71C0
C300
ENDCHAR
STARTCHAR uni02EE
ENCODING 750
SWIDTH 481 0
DWIDTH 12 0
BBX 11 8 0 10
BITMAP
71C0
FBE0
FBE0
79E0
1040
2080
4100
8200
ENDCHAR
STARTCHAR uni037E
ENCODING 894
SWIDTH 287 0
DWIDTH 9 0
BBX 7 16 0 -4
BITMAP
1C
3E
3E
1C
00
00
00
00
70
F8
F8
78
10
20
40
80
ENDCHAR
STARTCHAR tonos
ENCODING 900
SWIDTH 333 0
DWIDTH 7 0
BBX 6 5 1 13
BITMAP
0C
1C
3C
70
C0
ENDCHAR
STARTCHAR dieresistonos
ENCODING 901
SWIDTH 333 0
DWIDTH 11 0
BBX 10 10 1 13
BITMAP
0180
0380
0780
0E00
1800
0000
6180
F3C0
F3C0
6180
ENDCHAR
STARTCHAR anoteleia
ENCODING 903
SWIDTH 287 0
DWIDTH 7 0
BBX 4 5 1 5
BITMAP
60
F0
F0
F0
60
ENDCHAR
STARTCHAR mu
ENCODING 956
SWIDTH 576 0
DWIDTH 16 0
BBX 17 17 -2 -5
BITMAP
3F0F00
0F0F00
0F0F00
0F0F00
1E1E00
1E1E00
1E1E00
1E3E00
3C7C00
3CBC80
3F3D00
7E1E00
700000
700000
F00000
F80000
700000
ENDCHAR
STARTCHAR uni1E00
ENCODING 7680
SWIDTH 741 0
DWIDTH 20 0
BBX 20 24 -1 -6
BITMAP
000800
001800
001C00
003C00
007C00
007E00
00DE00
019E00
011F00
031F00
060F00
040F80
0FFF80
180F80
1807C0
3007C0
7007C0
FC1FF0
000000
007000
00D800
008800
00D800
007000
ENDCHAR
STARTCHAR uni1E01
ENCODING 7681
SWIDTH 667 0
DWIDTH 16 0
BBX 15 18 0 -6
BITMAP
0FBC
3C7C
783C
783C
F078
F078
F078
F078
F0F0
70F2
79F4
1E78
0000
0380
06C0
0440
06C0
0380
ENDCHAR
STARTCHAR uni1E02
ENCODING 7682
SWIDTH 759 0
DWIDTH 19 0
BBX 18 23 0 0
BITMAP
006000
00F000
00F000
006000
000000
3FFE00
0F8F80
0F87C0
0F87C0
0F87C0
0F87C0
1F0780
1F0F00
1FFC00
1F0F00
1F0780
1F07C0
3E07C0
3E07C0
3E07C0
3E0F80
3E1F00
FFFC00
ENDCHAR
STARTCHAR uni1E03
ENCODING 7683
SWIDTH 611 0
DWIDTH 15 0
BBX 13 23 0 0
BITMAP
0C00
1E00
1E00
0C00
0000
7E00
1E00
1E00
1E00
3C00
3C00
3DC0
3EF0
7870
7878
7078
7078
F078
F078
F0F0
70F0
79E0
1F80
ENDCHAR
STARTCHAR uni1E04
ENCODING 7684
SWIDTH 759 0
DWIDTH 19 0
BBX 18 23 0 -5
BITMAP
3FFE00
0F8F80
0F87C0
0F87C0
0F87C0
0F87C0
1F0780
1F0F00
1FFC00
1F0F00
1F0780
1F07C0
3E07C0
3E07C0
3E07C0
3E0F80
3E1F00
FFFC00
000000
00C000
01E000
01E000
00C000
ENDCHAR
STARTCHAR uni1E05
ENCODING 7685
SWIDTH 611 0
DWIDTH 15 0
BBX 13 23 0 -5
BITMAP
7E00
1E00
1E00
1E00
3C00
3C00
3DC0
3EF0
7870
7878
7078
7078
F078
F078
F0F0
70F0
79E0
1F80
0000
0600
0F00
0F00
0600
ENDCHAR
STARTCHAR uni1E06
ENCODING 7686
SWIDTH 759 0
DWIDTH 19 0
BBX 18 21 0 -3
BITMAP
3FFE00
0F8F80
0F87C0
0F87C0
0F87C0
0F87C0
1F0780
1F0F00
1FFC00
1F0F00
1F0780
1F07C0
3E07C0
3E07C0
3E07C0
3E0F80
3E1F00
FFFC00
000000
07F800
07F800
ENDCHAR
STARTCHAR uni1E07
ENCODING 7687
SWIDTH 611 0
DWIDTH 15 0
BBX 13 21 0 -3
BITMAP
7E00
1E00
1E00
1E00
3C00
3C00
3DC0
3EF0
7870
7878
7078
7078
F078
F078
F0F0
70F0
79E0
1F80
0000
3FC0
3FC0
ENDCHAR
STARTCHAR uni1E08
ENCODING 7688
SWIDTH 759 0
DWIDTH 18 0
BBX 17 29 0 -5
BITMAP
003000
007000
00F000
01C000
030000
000000
01FC80
0F8780
1E0380
3E0100
3C0100
7C0100
780000
F80000
F80000
F80000
F80000
F80000
F80000
780100
7C0300
3C0600
1E1C00
07F000
008000
01C000
00C000
00C000
038000
ENDCHAR
STARTCHAR uni1E09
ENCODING 7689
SWIDTH 537 0
DWIDTH 14 0
BBX 12 23 0 -5
BITMAP
00C0
01C0
03C0
0700
0C00
0000
0FE0
3CF0
78F0
7860
F000
F000
F000
F000
F000
7020
78C0
1F00
0400
0E00
0600
0600
1C00
ENDCHAR
STARTCHAR uni1E0A
ENCODING 7690
SWIDTH 833 0
DWIDTH 21 0
BBX 20 23 0 0
BITMAP
006000
00F000
00F000
006000
000000
3FFE00
0F8780
0F83C0
0F83E0
0F81E0
0F81F0
1F01F0
1F01F0
1F01F0
1F01F0
1F01F0
1F01E0
3E03E0
3E03C0
3E07C0
3E0780
3E1F00
FFF800
ENDCHAR
STARTCHAR uni1E0B
ENCODING 7691
SWIDTH 667 0
DWIDTH 16 0
BBX 15 23 0 0
BITMAP
0030
0078
0078
0030
0000
007E
001E
001E
001E
003C
003C
0FBC
3CFC
787C
7878
F078
F078
F078
F078
F0F0
70F2
79F4
1E78
ENDCHAR
STARTCHAR uni1E0C
ENCODING 7692
SWIDTH 833 0
DWIDTH 21 0
BBX 20 23 0 -5
BITMAP
3FFE00
0F8780
0F83C0
0F83E0
0F81E0
0F81F0
1F01F0
1F01F0
1F01F0
1F01F0
1F01F0
1F01E0
3E03E0
3E03C0
3E07C0
3E0780
3E1F00
FFF800
000000
00C000
01E000
01E000
00C000
ENDCHAR
STARTCHAR uni1E0D
ENCODING 7693
SWIDTH 667 0
DWIDTH 16 0
BBX 15 23 0 -5
BITMAP
007E
001E
001E
001E
003C
003C
0FBC
3CFC
787C
7878
F078
F078
F078
F078
F0F0
70F2
79F4
1E78
0000
0300
0780
0780
0300
ENDCHAR
STARTCHAR uni1E0E
ENCODING 7694
SWIDTH 833 0
DWIDTH 21 0
BBX 20 21 0 -3
BITMAP
3FFE00
0F8780
0F83C0
0F83E0
0F81E0
0F81F0
1F01F0
1F01F0
1F01F0
1F01F0
1F01F0
1F01E0
3E03E0
3E03C0
3E07C0
3E0780
3E1F00
FFF800
000000
07F800
07F800
ENDCHAR
STARTCHAR uni1E0F
ENCODING 7695
SWIDTH 667 0
DWIDTH 16 0
BBX 15 21 0 -3
BITMAP
007E
001E
001E
001E
003C
003C
0FBC
3CFC
787C
7878
F078
F078
F078
F078
F0F0
70F2
79F4
1E78
0000
1FE0
1FE0
ENDCHAR
STARTCHAR uni1E10
ENCODING 7696
SWIDTH 833 0
DWIDTH 21 0
BBX 20 23 0 -5
BITMAP
3FFE00
0F8780
0F83C0
0F83E0
0F81E0
0F81F0
1F01F0
1F01F0
1F01F0
1F01F0
1F01F0
1F01E0
3E03E0
3E03C0
3E07C0
3E0780
3E1F00
FFF800
004000
00E000
006000
006000
01C000
ENDCHAR
STARTCHAR uni1E11
ENCODING 7697
SWIDTH 667 0
DWIDTH 16 0
BBX 15 23 0 -5
BITMAP
007E
001E
001E
001E
003C
003C
0FBC
3CFC
787C
7878
F078
F078
F078
F078
F0F0
70F2
79F4
1E78
0100
0380
0180
0180
0700
ENDCHAR
STARTCHAR uni1E12
ENCODING 7698
SWIDTH 833 0
DWIDTH 21 0
BBX 20 24 0 -6
BITMAP
3FFE00
0F8780
0F83C0
0F83E0
0F81E0
0F81F0
1F01F0
1F01F0
1F01F0
1F01F0
1F01F0
1F01E0
3E03E0
3E03C0
3E07C0
3E0780
3E1F00
FFF800
000000
006000
00E000
01E000
033000
063000
ENDCHAR
STARTCHAR uni1E13
ENCODING 7699
SWIDTH 667 0
DWIDTH 16 0
BBX 15 24 0 -6
BITMAP
007E
001E
001E
001E
003C
003C
0FBC
3CFC
787C
7878
F078
F078
F078
F078
F0F0
70F2
79F4
1E78
0000
0180
0380
0780
0CC0
18C0
ENDCHAR
STARTCHAR uni1E14
ENCODING 7700
SWIDTH 741 0
DWIDTH 18 0
BBX 17 27 0 0
BITMAP
060000
070000
078000
01C000
006000
000000
07F800
07F800
000000
3FFF80
0F8380
0F8180
0F8100
0F8100
0F8400
1F0400
1F0C00
1FFC00
1F1800
1F0800
1F0800
3E0900
3E0100
3E0300
3E0600
3E0E00
FFFE00
ENDCHAR
STARTCHAR uni1E15
ENCODING 7701
SWIDTH 519 0
DWIDTH 14 0
BBX 12 21 0 0
BITMAP
3000
3800
3C00
0E00
0300
0000
3FC0
3FC0
0000
0FC0
3CF0
7870
7870
F0F0
F1E0
FF00
F000
F000
7020
78C0
1F00
ENDCHAR
STARTCHAR uni1E16
ENCODING 7702
SWIDTH 741 0
DWIDTH 18 0
BBX 17 27 0 0
BITMAP
001800
003800
007800
00E000
018000
000000
07F800
07F800
000000
3FFF80
0F8380
0F8180
0F8100
0F8100
0F8400
1F0400
1F0C00
1FFC00
1F1800
1F0800
1F0800
3E0900
3E0100
3E0300
3E0600
3E0E00
FFFE00
ENDCHAR
STARTCHAR uni1E17
ENCODING 7703
SWIDTH 519 0
DWIDTH 14 0
BBX 12 21 0 0
BITMAP
00C0
01C0
03C0
0700
0C00
0000
3FC0
3FC0
0000
0FC0
3CF0
7870
7870
F0F0
F1E0
FF00
F000
F000
7020
78C0
1F00
ENDCHAR
STARTCHAR uni1E18
ENCODING 7704
SWIDTH 741 0
DWIDTH 18 0
BBX 17 24 0 -6
BITMAP
3FFF80
0F8380
0F8180
0F8100
0F8100
0F8400
1F0400
1F0C00
1FFC00
1F1800
1F0800
1F0800
3E0900
3E0100
3E0300
3E0600
3E0E00
FFFE00
000000
018000
038000
078000
0CC000
18C000
ENDCHAR
STARTCHAR uni1E19
ENCODING 7705
SWIDTH 519 0
DWIDTH 14 0
BBX 12 18 0 -6
BITMAP
0FC0
3CF0
7870
7870
F0F0
F1E0
FF00
F000
F000
7020
78C0
1F00
0000
0600
0E00
1E00
3300
6300
ENDCHAR
STARTCHAR uni1E1A
ENCODING 7706
SWIDTH 741 0
DWIDTH 18 0
BBX 17 22 0 -4
BITMAP
3FFF80
0F8380
0F8180
0F8100
0F8100
0F8400
1F0400
1F0C00
1FFC00
1F1800
1F0800
1F0800
3E0900
3E0100
3E0300
3E0600
3E0E00
FFFE00
000000
078800
0FF000
11E000
ENDCHAR
STARTCHAR uni1E1B
ENCODING 7707
SWIDTH 519 0
DWIDTH 14 0
BBX 12 16 0 -4
BITMAP
0FC0
3CF0
7870
7870
F0F0
F1E0
FF00
F000
F000
7020
78C0
1F00
0000
3C40
7F80
8F00
ENDCHAR
STARTCHAR uni1E1C
ENCODING 7708
SWIDTH 741 0
DWIDTH 18 0
BBX 17 28 0 -5
BITMAP
040800
061800
03F000
01E000
000000
3FFF80
0F8380
0F8180
0F8100
0F8100
0F8400
1F0400
1F0C00
1FFC00
1F1800
1F0800
1F0800
3E0900
3E0100
3E0300
3E0600
3E0E00
FFFE00
010000
038000
018000
018000
070000
ENDCHAR
STARTCHAR uni1E1D
ENCODING 7709
SWIDTH 519 0
DWIDTH 14 0
BBX 12 22 0 -5
BITMAP
2040
30C0
1F80
0F00
0000
0FC0
3CF0
7870
7870
F0F0
F1E0
FF00
F000
F000
7020
78C0
1F00
0400
0E00
0600
0600
1C00
ENDCHAR
STARTCHAR uni1E1E
ENCODING 7710
SWIDTH 704 0
DWIDTH 17 0
BBX 17 23 0 0
BITMAP
00C000
01E000
01E000
00C000
000000
3FFF80
0F8380
0F8180
0F8100
0F8100
0F8400
1F0400
1F0C00
1FFC00
1F1800
1F0800
1F0800
3E0800
3E0000
3E0000
3E0000
3E0000
FF8000
ENDCHAR
STARTCHAR uni1E1F
ENCODING 7711
SWIDTH 389 0
DWIDTH 10 0
BBX 14 28 -1 -5
BITMAP
0180
03C0
03C0
0180
0000
01F8
07BC
07BC
0F18
0F00
0F00
3FE0
1E00
1E00
1E00
1E00
3C00
3C00
3C00
3C00
7800
7800
7800
7800
F000
F000
F000
C000
ENDCHAR
STARTCHAR uni1E20
ENCODING 7712
SWIDTH 815 0
DWIDTH 19 0
BBX 18 21 0 0
BITMAP
07F800
07F800
000000
01FE40
0F83C0
1E01C0
3E0080
3C0080
7C0080
780000
F80000
F80000
F80000
F81FC0
F80780
F80780
780780
7C0F00
3C0F00
1E1F00
07F100
ENDCHAR
STARTCHAR uni1E21
ENCODING 7713
SWIDTH 611 0
DWIDTH 15 0
BBX 15 23 -2 -5
BITMAP
07F8
07F8
0000
0006
000E
0018
03F8
0F3C
0E1E
1E1E
1E1E
1E1E
0F3C
07F0
1C00
3800
3FE0
1FF8
307C
E03C
E03C
F078
3FE0
ENDCHAR
STARTCHAR uni1E22
ENCODING 7714
SWIDTH 870 0
DWIDTH 23 0
BBX 22 23 0 0
BITMAP
001800
003C00
003C00
001800
000000
3FE7FC
0F81F0
0F81F0
0F81F0
0F81F0
0F81F0
1F03E0
1F03E0
1FFFE0
1F03E0
1F03E0
1F03E0
3E07C0
3E07C0
3E07C0
3E07C0
3E07C0
FF9FF0
ENDCHAR
STARTCHAR uni1E23
ENCODING 7715
SWIDTH 685 0
DWIDTH 16 0
BBX 15 23 0 0
BITMAP
0600
0F00
0F00
0600
0000
7E00
1E00
1E00
1E00
3C00
3C00
3C78
3CFC
3D3C
7E3C
7C78
7878
7878
7878
F0F0
F0F2
F0F4
F078
ENDCHAR
STARTCHAR uni1E24
ENCODING 7716
SWIDTH 870 0
DWIDTH 23 0
BBX 22 23 0 -5
BITMAP
3FE7FC
0F81F0
0F81F0
0F81F0
0F81F0
0F81F0
1F03E0
1F03E0
1FFFE0
1F03E0
1F03E0
1F03E0
3E07C0
3E07C0
3E07C0
3E07C0
3E07C0
FF9FF0
000000
006000
00F000
00F000
006000
ENDCHAR
STARTCHAR uni1E25
ENCODING 7717
SWIDTH 685 0
DWIDTH 16 0
BBX 15 23 0 -5
BITMAP
7E00
1E00
1E00
1E00
3C00
3C00
3C78
3CFC
3D3C
7E3C
7C78
7878
7878
7878
F0F0
F0F2
F0F4
F078
0000
0300
0780
0780
0300
ENDCHAR
STARTCHAR uni1E26
ENCODING 7718
SWIDTH 870 0
DWIDTH 23 0
BBX 22 23 0 0
BITMAP
00C300
01E780
01E780
00C300
000000
3FE7FC
0F81F0
0F81F0
0F81F0
0F81F0
0F81F0
1F03E0
1F03E0
1FFFE0
1F03E0
1F03E0
1F03E0
3E07C0
3E07C0
3E07C0
3E07C0
3E07C0
FF9FF0
ENDCHAR
STARTCHAR uni1E27
ENCODING 7719
SWIDTH 685 0
DWIDTH 16 0
BBX 15 23 0 0
BITMAP
30C0
79E0
79E0
30C0
0000
7E00
1E00
1E00
1E00
3C00
3C00
3C78
3CFC
3D3C
7E3C
7C78
7878
7878
7878
F0F0
F0F2
F0F4
F078
ENDCHAR
STARTCHAR uni1E28
ENCODING 7720
SWIDTH 870 0
DWIDTH 23 0
BBX 22 23 0 -5
BITMAP
3FE7FC
0F81F0
0F81F0
0F81F0
0F81F0
0F81F0
1F03E0
1F03E0
1FFFE0
1F03E0
1F03E0
1F03E0
3E07C0
3E07C0
3E07C0
3E07C0
3E07C0
FF9FF0
002000
007000
003000
003000
00E000
ENDCHAR
STARTCHAR uni1E29
ENCODING 7721
SWIDTH 685 0
DWIDTH 16 0
BBX 15 23 0 -5
BITMAP
7E00
1E00
1E00
1E00
3C00
3C00
3C78
3CFC
3D3C
7E3C
7C78
7878
7878
7878
F0F0
F0F2
F0F4
F078
0100
0380
0180
0180
0700
ENDCHAR
STARTCHAR uni1E2A
ENCODING 7722
SWIDTH 870 0
DWIDTH 23 0
BBX 22 23 0 -5
BITMAP
3FE7FC
0F81F0
0F81F0
0F81F0
0F81F0
0F81F0
1F03E0
1F03E0
1FFFE0
1F03E0
1F03E0
1F03E0
3E07C0
3E07C0
3E07C0
3E07C0
3E07C0
FF9FF0
000000
020400
030C00
01F800
00F000
ENDCHAR
STARTCHAR uni1E2B
ENCODING 7723
SWIDTH 685 0
DWIDTH 16 0
BBX 15 23 0 -5
BITMAP
7E00
1E00
1E00
1E00
3C00
3C00
3C78
3CFC
3D3C
7E3C
7C78
7878
7878
7878
F0F0
F0F2
F0F4
F078
0000
1020
1860
0FC0
0780
ENDCHAR
STARTCHAR uni1E2C
ENCODING 7724
SWIDTH 444 0
DWIDTH 12 0
BBX 11 22 0 -4
BITMAP
3FE0
0F80
0F80
0F80
0F80
0F80
1F00
1F00
1F00
1F00
1F00
1F00
3E00
3E00
3E00
3E00
3E00
FF80
0000
3C40
7F80
8F00
ENDCHAR
STARTCHAR uni1E2D
ENCODING 7725
SWIDTH 389 0
DWIDTH 8 0
BBX 10 21 -2 -4
BITMAP
0380
0380
0380
0000
0000
3F00
0F00
0F00
0F00
1E00
1E00
1E00
1E00
3C00
3C80
3D00
1E00
0000
3C40
7F80
8F00
ENDCHAR
STARTCHAR uni1E2E
ENCODING 7726
SWIDTH 444 0
DWIDTH 12 0
BBX 12 29 0 0
BITMAP
00C0
01C0
03C0
0700
0C00
0000
1860
3CF0
3CF0
1860
0000
3FE0
0F80
0F80
0F80
0F80
0F80
1F00
1F00
1F00
1F00
1F00
1F00
3E00
3E00
3E00
3E00
3E00
FF80
ENDCHAR
STARTCHAR uni1E2F
ENCODING 7727
SWIDTH 389 0
DWIDTH 8 0
BBX 10 23 -1 0
BITMAP
0180
0380
0780
0E00
1800
0000
6180
F3C0
F3C0
6180
0000
7E00
1E00
1E00
1E00
3C00
3C00
3C00
3C00
7800
7900
7A00
3C00
ENDCHAR
STARTCHAR uni1E30
ENCODING 7728
SWIDTH 778 0
DWIDTH 20 0
BBX 20 24 0 0
BITMAP
000C00
001C00
003C00
007000
00C000
000000
3FE3F0
0F81C0
0F8180
0F8300
0F8600
0F8C00
1F1800
1F3000
1F7800
1FF800
1F7C00
1F3E00
3E3E00
3E1F00
3E1F80
3E0F80
3E0FC0
FF9FE0
ENDCHAR
STARTCHAR uni1E31
ENCODING 7729
SWIDTH 648 0
DWIDTH 16 0
BBX 15 24 0 0
BITMAP
0180
0380
0780
0E00
1800
0000
7E00
1E00
1E00
1E00
1E00
3C00
3CF8
3D3C
3E3C
3C3C
7878
7B80
79E0
78E0
F0F0
F0F2
F0F4
F078
ENDCHAR
STARTCHAR uni1E32
ENCODING 7730
SWIDTH 778 0
DWIDTH 20 0
BBX 20 23 0 -5
BITMAP
3FE3F0
0F81C0
0F8180
0F8300
0F8600
0F8C00
1F1800
1F3000
1F7800
1FF800
1F7C00
1F3E00
3E3E00
3E1F00
3E1F80
3E0F80
3E0FC0
FF9FE0
000000
006000
00F000
00F000
006000
ENDCHAR
STARTCHAR uni1E33
ENCODING 7731
SWIDTH 648 0
DWIDTH 16 0
BBX 15 23 0 -5
BITMAP
7E00
1E00
1E00
1E00
1E00
3C00
3CF8
3D3C
3E3C
3C3C
7878
7B80
79E0
78E0
F0F0
F0F2
F0F4
F078
0000
0300
0780
0780
0300
ENDCHAR
STARTCHAR uni1E34
ENCODING 7732
SWIDTH 778 0
DWIDTH 20 0
BBX 20 21 0 -3
BITMAP
3FE3F0
0F81C0
0F8180
0F8300
0F8600
0F8C00
1F1800
1F3000
1F7800
1FF800
1F7C00
1F3E00
3E3E00
3E1F00
3E1F80
3E0F80
3E0FC0
FF9FE0
000000
03FC00
03FC00
ENDCHAR
STARTCHAR uni1E35
ENCODING 7733
SWIDTH 648 0
DWIDTH 16 0
BBX 15 21 0 -3
BITMAP
7E00
1E00
1E00
1E00
1E00
3C00
3CF8
3D3C
3E3C
3C3C
7878
7B80
79E0
78E0
F0F0
F0F2
F0F4
F078
0000
1FE0
1FE0
ENDCHAR
STARTCHAR uni1E36
ENCODING 7734
SWIDTH 704 0
DWIDTH 18 0
BBX 17 23 0 -5
BITMAP
3FE000
0F8000
0F8000
0F8000
0F8000
0F8000
1F0000
1F0000
1F0000
1F0000
1F0000
1F0000
3E0080
3E0080
3E0180
3E0300
3E0F00
FFFF00
000000
018000
03C000
03C000
018000
ENDCHAR
STARTCHAR uni1E37
ENCODING 7735
SWIDTH 389 0
DWIDTH 8 0
BBX 7 23 0 -5
BITMAP
7E
1E
1E
1E
3C
3C
3C
3C
3C
78
78
78
78
78
F0
F2
F4
78
00
30
78
78
30
ENDCHAR
STARTCHAR uni1E38
ENCODING 7736
SWIDTH 704 0
DWIDTH 18 0
BBX 17 26 0 -5
BITMAP
1FE000
1FE000
000000
3FE000
0F8000
0F8000
0F8000
0F8000
0F8000
1F0000
1F0000
1F0000
1F0000
1F0000
1F0000
3E0080
3E0080
3E0180
3E0300
3E0F00
FFFF00
000000
018000
03C000
03C000
018000
ENDCHAR
STARTCHAR uni1E39
ENCODING 7737
SWIDTH 389 0
DWIDTH 8 0
BBX 8 26 0 -5
BITMAP
FF
FF
00
7E
1E
1E
1E
3C
3C
3C
3C
3C
78
78
78
78
78
F0
F2
F4
78
00
30
78
78
30
ENDCHAR
STARTCHAR uni1E3A
ENCODING 7738
SWIDTH 704 0
DWIDTH 18 0
BBX 17 21 0 -3
BITMAP
3FE000
0F8000
0F8000
0F8000
0F8000
0F8000
1F0000
1F0000
1F0000
1F0000
1F0000
1F0000
3E0080
3E0080
3E0180
3E0300
3E0F00
FFFF00
000000
0FF000
0FF000
ENDCHAR
STARTCHAR uni1E3B
ENCODING 7739
SWIDTH 389 0
DWIDTH 8 0
BBX 8 21 -1 -3
BITMAP
3F
0F
0F
0F
1E
1E
1E
1E
1E
3C
3C
3C
3C
3C
78
79
7A
3C
00
FF
FF
ENDCHAR
STARTCHAR uni1E3C
ENCODING 7740
SWIDTH 704 0
DWIDTH 18 0
BBX 17 24 0 -6
BITMAP
3FE000
0F8000
0F8000
0F8000
0F8000
0F8000
1F0000
1F0000
1F0000
1F0000
1F0000
1F0000
3E0080
3E0080
3E0180
3E0300
3E0F00
FFFF00
000000
00C000
01C000
03C000
066000
0C6000
ENDCHAR
STARTCHAR uni1E3D
ENCODING 7741
SWIDTH 389 0
DWIDTH 8 0
BBX 8 24 -1 -6
BITMAP
3F
0F
0F
0F
1E
1E
1E
1E
1E
3C
3C
3C
3C
3C
78
79
7A
3C
00
0C
1C
3C
66
C6
ENDCHAR
STARTCHAR uni1E3E
ENCODING 7742
SWIDTH 944 0
DWIDTH 26 0
BBX 25 24 0 0
BITMAP
00018000
00038000
00078000
000E0000
00180000
00000000
3FC03F80
0FC07E00
0FC07E00
0FC0FE00
0FC0BE00
0BE1BE00
0BE17C00
1BE37C00
1BE27C00
1BE67C00
11E47C00
11EC7C00
11F8F800
31F8F800
31F0F800
30F0F800
30E0F800
FCE3FE00
ENDCHAR
STARTCHAR uni1E3F
ENCODING 7743
SWIDTH 944 0
DWIDTH 24 0
BBX 23 18 0 0
BITMAP
000600
000E00
001E00
003800
006000
000000
FC7878
3CFCFC
3D3D3C
3E3E3C
7C7C78
787878
787878
787878
F0F0F0
F0F0F2
F0F0F4
F0F078
ENDCHAR
STARTCHAR uni1E40
ENCODING 7744
SWIDTH 944 0
DWIDTH 26 0
BBX 25 23 0 0
BITMAP
000C0000
001E0000
001E0000
000C0000
00000000
3FC03F80
0FC07E00
0FC07E00
0FC0FE00
0FC0BE00
0BE1BE00
0BE17C00
1BE37C00
1BE27C00
1BE67C00
11E47C00
11EC7C00
11F8F800
31F8F800
31F0F800
30F0F800
30E0F800
FCE3FE00
ENDCHAR
STARTCHAR uni1E41
ENCODING 7745
SWIDTH 944 0
DWIDTH 24 0
BBX 23 17 0 0
BITMAP
003000
007800
007800
003000
000000
FC7878
3CFCFC
3D3D3C
3E3E3C
7C7C78
787878
787878
787878
F0F0F0
F0F0F2
F0F0F4
F0F078
ENDCHAR
STARTCHAR uni1E42
ENCODING 7746
SWIDTH 944 0
DWIDTH 26 0
BBX 25 23 0 -5
BITMAP
3FC03F80
0FC07E00
0FC07E00
0FC0FE00
0FC0BE00
0BE1BE00
0BE17C00
1BE37C00
1BE27C00
1BE67C00
11E47C00
11EC7C00
11F8F800
31F8F800
31F0F800
30F0F800
30E0F800
FCE3FE00
00000000
00180000
003C0000
003C0000
00180000
ENDCHAR
STARTCHAR uni1E43
ENCODING 7747
SWIDTH 944 0
DWIDTH 24 0
BBX 23 17 0 -5
BITMAP
FC7878
3CFCFC
3D3D3C
3E3E3C
7C7C78
787878
787878
787878
F0F0F0
F0F0F2
F0F0F4
F0F078
000000
003000
007800
007800
003000
ENDCHAR
STARTCHAR uni1E44
ENCODING 7748
SWIDTH 852 0
DWIDTH 22 0
BBX 21 23 0 0
BITMAP
006000
00F000
00F000
006000
000000
3E01F8
0F0060
0F8060
0FC060
0FE040
0FE040
0BF040
19F8C0
18FCC0
18FC80
187E80
103F80
101F80
301F00
300F00
300700
300300
FC0300
ENDCHAR
STARTCHAR uni1E45
ENCODING 7749
SWIDTH 685 0
DWIDTH 16 0
BBX 15 17 0 0
BITMAP
0300
0780
0780
0300
0000
FC38
3CFC
3D3C
3E3C
7C78
7878
7878
7878
F0F0
F0F2
F0F4
F078
ENDCHAR
STARTCHAR uni1E46
ENCODING 7750
SWIDTH 852 0
DWIDTH 22 0
BBX 21 23 0 -5
BITMAP
3E01F8
0F0060
0F8060
0FC060
0FE040
0FE040
0BF040
19F8C0
18FCC0
18FC80
187E80
103F80
101F80
301F00
300F00
300700
300300
FC0300
000000
00C000
01E000
01E000
00C000
ENDCHAR
STARTCHAR uni1E47
ENCODING 7751
SWIDTH 685 0
DWIDTH 16 0
BBX 15 17 0 -5
BITMAP
FC38
3CFC
3D3C
3E3C
7C78
7878
7878
7878
F0F0
F0F2
F0F4
F078
0000
0300
0780
0780
0300
ENDCHAR
STARTCHAR uni1E48
ENCODING 7752
SWIDTH 852 0
DWIDTH 22 0
BBX 21 21 0 -3
BITMAP
3E01F8
0F0060
0F8060
0FC060
0FE040
0FE040
0BF040
19F8C0
18FCC0
18FC80
187E80
103F80
101F80
301F00
300F00
300700
300300
FC0300
000000
07F800
07F800
ENDCHAR
STARTCHAR uni1E49
ENCODING 7753
SWIDTH 685 0
DWIDTH 16 0
BBX 15 15 0 -3
BITMAP
FC38
3CFC
3D3C
3E3C
7C78
7878
7878
7878
F0F0
F0F2
F0F4
F078
0000
1FE0
1FE0
ENDCHAR
STARTCHAR uni1E4A
ENCODING 7754
SWIDTH 852 0
DWIDTH 22 0
BBX 21 24 0 -6
BITMAP
3E01F8
0F0060
0F8060
0FC060
0FE040
0FE040
0BF040
19F8C0
18FCC0
18FC80
187E80
103F80
101F80
301F00
300F00
300700
300300
FC0300
000000
006000
00E000
01E000
033000
063000
ENDCHAR
STARTCHAR uni1E4B
ENCODING 7755
SWIDTH 685 0
DWIDTH 16 0
BBX 15 18 0 -6
BITMAP
FC38
3CFC
3D3C
3E3C
7C78
7878
7878
7878
F0F0
F0F2
F0F4
F078
0000
0180
0380
0780
0CC0
18C0
ENDCHAR
STARTCHAR uni1E4C
ENCODING 7756
SWIDTH 833 0
DWIDTH 20 0
BBX 19 29 0 0
BITMAP
000C00
001C00
003C00
007000
00C000
000000
00F100
01FE00
023C00
000000
000000
01FC00
0F8F00
1E0780
3E07C0
3C03C0
7C03E0
7803E0
F803E0
F803E0
F803E0
F803E0
F803C0
F807C0
780780
7C0F80
3C0F00
1E3E00
07F000
ENDCHAR
STARTCHAR uni1E4D
ENCODING 7757
SWIDTH 574 0
DWIDTH 15 0
BBX 13 23 0 0
BITMAP
0060
00E0
01E0
0380
0600
0000
0788
0FF0
11E0
0000
0000
0FC0
3CF0
7870
7878
F078
F078
F078
F078
F0F0
70F0
79E0
1F80
ENDCHAR
STARTCHAR uni1E4E
ENCODING 7758
SWIDTH 833 0
DWIDTH 20 0
BBX 19 28 0 0
BITMAP
030C00
079E00
079E00
030C00
000000
00F100
01FE00
023C00
000000
000000
01FC00
0F8F00
1E0780
3E07C0
3C03C0
7C03E0
7803E0
F803E0
F803E0
F803E0
F803E0
F803C0
F807C0
780780
7C0F80
3C0F00
1E3E00
07F000
ENDCHAR
STARTCHAR uni1E4F
ENCODING 7759
SWIDTH 574 0
DWIDTH 15 0
BBX 13 22 0 0
BITMAP
0C30
1E78
1E78
0C30
0000
0788
0FF0
11E0
0000
0000
0FC0
3CF0
7870
7878
F078
F078
F078
F078
F0F0
70F0
79E0
1F80
ENDCHAR
STARTCHAR uni1E50
ENCODING 7760
SWIDTH 833 0
DWIDTH 20 0
BBX 19 27 0 0
BITMAP
030000
038000
03C000
00E000
003000
000000
03FC00
03FC00
000000
01FC00
0F8F00
1E0780
3E07C0
3C03C0
7C03E0
7803E0
F803E0
F803E0
F803E0
F803E0
F803C0
F807C0
780780
7C0F80
3C0F00
1E3E00
07F000
ENDCHAR
STARTCHAR uni1E51
ENCODING 7761
SWIDTH 574 0
DWIDTH 15 0
BBX 13 21 0 0
BITMAP
1800
1C00
1E00
0700
0180
0000
1FE0
1FE0
0000
0FC0
3CF0
7870
7878
F078
F078
F078
F078
F0F0
70F0
79E0
1F80
ENDCHAR
STARTCHAR uni1E52
ENCODING 7762
SWIDTH 833 0
DWIDTH 20 0
BBX 19 27 0 0
BITMAP
000C00
001C00
003C00
007000
00C000
000000
03FC00
03FC00
000000
01FC00
0F8F00
1E0780
3E07C0
3C03C0
7C03E0
7803E0
F803E0
F803E0
F803E0
F803E0
F803C0
F807C0
780780
7C0F80
3C0F00
1E3E00
07F000
ENDCHAR
STARTCHAR uni1E53
ENCODING 7763
SWIDTH 574 0
DWIDTH 15 0
BBX 13 21 0 0
BITMAP
0060
00E0
01E0
0380
0600
0000
1FE0
1FE0
0000
0FC0
3CF0
7870
7878
F078
F078
F078
F078
F0F0
70F0
79E0
1F80
ENDCHAR
STARTCHAR uni1E54
ENCODING 7764
SWIDTH 741 0
DWIDTH 19 0
BBX 19 24 0 0
BITMAP
000C00
001C00
003C00
007000
00C000
000000
3FFF00
0F87C0
0F83E0
0F83E0
0F83E0
0F83E0
1F03E0
1F07C0
1F0F80
1FFE00
1F0000
1F0000
3E0000
3E0000
3E0000
3E0000
3E0000
FF8000
ENDCHAR
STARTCHAR uni1E55
ENCODING 7765
SWIDTH 648 0
DWIDTH 16 0
BBX 17 23 -3 -5
BITMAP
001800
003800
007800
00E000
018000
000000
1FBC00
07CF00
078700
078780
078780
0F0780
0F0780
0F0780
0F0F00
1F0F00
1F9E00
1EF800
1E0000
3C0000
3C0000
3C0000
FF0000
ENDCHAR
STARTCHAR uni1E56
ENCODING 7766
SWIDTH 741 0
DWIDTH 19 0
BBX 19 23 0 0
BITMAP
006000
00F000
00F000
006000
000000
3FFF00
0F87C0
0F83E0
0F83E0
0F83E0
0F83E0
1F03E0
1F07C0
1F0F80
1FFE00
1F0000
1F0000
3E0000
3E0000
3E0000
3E0000
3E0000
FF8000
ENDCHAR
STARTCHAR uni1E57
ENCODING 7767
SWIDTH 648 0
DWIDTH 16 0
BBX 17 22 -3 -5
BITMAP
006000
00F000
00F000
006000
000000
1FBC00
07CF00
078700
078780
078780
0F0780
0F0780
0F0780
0F0F00
1F0F00
1F9E00
1EF800
1E0000
3C0000
3C0000
3C0000
FF0000
ENDCHAR
STARTCHAR uni1E58
ENCODING 7768
SWIDTH 796 0
DWIDTH 20 0
BBX 19 23 0 0
BITMAP
006000
00F000
00F000
006000
000000
3FFF00
0F87C0
0F83E0
0F83E0
0F83E0
0F83E0
1F03C0
1F0780
1FFC00
1F3C00
1F1E00
1F1E00
3E1F00
3E1F00
3E1F20
3E0FA0
3E0FC0
FF8780
ENDCHAR
STARTCHAR uni1E59
ENCODING 7769
SWIDTH 519 0
DWIDTH 13 0
BBX 12 17 0 0
BITMAP
0600
0F00
0F00
0600
0000
FCE0
3DF0
3EF0
3C60
7800
7800
7800
7800
F000
F000
F000
F000
ENDCHAR
STARTCHAR uni1E5A
ENCODING 7770
SWIDTH 796 0
DWIDTH 20 0
BBX 19 23 0 -5
BITMAP
3FFF00
0F87C0
0F83E0
0F83E0
0F83E0
0F83E0
1F03C0
1F0780
1FFC00
1F3C00
1F1E00
1F1E00
3E1F00
3E1F00
3E1F20
3E0FA0
3E0FC0
FF8780
000000
00C000
01E000
01E000
00C000
ENDCHAR
STARTCHAR uni1E5B
ENCODING 7771
SWIDTH 519 0
DWIDTH 13 0
BBX 12 17 0 -5
BITMAP
FCE0
3DF0
3EF0
3C60
7800
7800
7800
7800
F000
F000
F000
F000
0000
3000
7800
7800
3000
ENDCHAR
STARTCHAR uni1E5C
ENCODING 7772
SWIDTH 796 0
DWIDTH 20 0
BBX 19 26 0 -5
BITMAP
03FC00
03FC00
000000
3FFF00
0F87C0
0F83E0
0F83E0
0F83E0
0F83E0
1F03C0
1F0780
1FFC00
1F3C00
1F1E00
1F1E00
3E1F00
3E1F00
3E1F20
3E0FA0
3E0FC0
FF8780
000000
00C000
01E000
01E000
00C000
ENDCHAR
STARTCHAR uni1E5D
ENCODING 7773
SWIDTH 519 0
DWIDTH 13 0
BBX 12 20 0 -5
BITMAP
3FC0
3FC0
0000
FCE0
3DF0
3EF0
3C60
7800
7800
7800
7800
F000
F000
F000
F000
0000
3000
7800
7800
3000
ENDCHAR
STARTCHAR uni1E5E
ENCODING 7774
SWIDTH 796 0
DWIDTH 20 0
BBX 19 21 0 -3
BITMAP
3FFF00
0F87C0
0F83E0
0F83E0
0F83E0
0F83E0
1F03C0
1F0780
1FFC00
1F3C00
1F1E00
1F1E00
3E1F00
3E1F00
3E1F20
3E0FA0
3E0FC0
FF8780
000000
07F800
07F800
ENDCHAR
STARTCHAR uni1E5F
ENCODING 7775
SWIDTH 519 0
DWIDTH 13 0
BBX 13 15 -1 -3
BITMAP
7E70
1EF8
1F78
1E30
3C00
3C00
3C00
3C00
7800
7800
7800
7800
0000
FF00
FF00
ENDCHAR
STARTCHAR uni1E60
ENCODING 7776
SWIDTH 685 0
DWIDTH 16 0
BBX 15 23 0 0
BITMAP
0180
03C0
03C0
0180
0000
03F2
0E1E
180E
3804
3804
3C04
3F00
3FE0
1FF8
1FF8
07FC
00FC
403C
401C
401C
E018
F070
9FC0
ENDCHAR
STARTCHAR uni1E61
ENCODING 7777
SWIDTH 481 0
DWIDTH 13 0
BBX 11 17 0 0
BITMAP
0600
0F00
0F00
0600
0000
0FC0
39E0
71E0
78C0
7E00
3F00
0F80
03C0
61C0
F1C0
F380
7E00
ENDCHAR
STARTCHAR uni1E62
ENCODING 7778
SWIDTH 685 0
DWIDTH 16 0
BBX 15 23 0 -5
BITMAP
03F2
0E1E
180E
3804
3804
3C04
3F00
3FE0
1FF8
1FF8
07FC
00FC
403C
401C
401C
E018
F070
9FC0
0000
0300
0780
0780
0300
ENDCHAR
STARTCHAR uni1E63
ENCODING 7779
SWIDTH 481 0
DWIDTH 13 0
BBX 11 17 0 -5
BITMAP
0FC0
39E0
71E0
78C0
7E00
3F00
0F80
03C0
61C0
F1C0
F380
7E00
0000
0C00
1E00
1E00
0C00
ENDCHAR
STARTCHAR uni1E64
ENCODING 7780
SWIDTH 685 0
DWIDTH 16 0
BBX 15 29 0 0
BITMAP
00C0
01E0
01E0
00C0
0000
0030
0070
00F0
01C0
0300
0000
03F2
0E1E
180E
3804
3804
3C04
3F00
3FE0
1FF8
1FF8
07FC
00FC
403C
401C
401C
E018
F070
9FC0
ENDCHAR
STARTCHAR uni1E65
ENCODING 7781
SWIDTH 481 0
DWIDTH 13 0
BBX 11 23 0 0
BITMAP
0300
0780
0780
0300
0000
00C0
01C0
03C0
0700
0C00
0000
0FC0
39E0
71E0
78C0
7E00
3F00
0F80
03C0
61C0
F1C0
F380
7E00
ENDCHAR
STARTCHAR uni1E66
ENCODING 7782
SWIDTH 685 0
DWIDTH 16 0
BBX 15 23 0 0
BITMAP
00C0
01E0
01E0
00C0
0000
018C
0198
00F0
00E0
00C0
03F8
0F8A
1E06
1F84
3FE0
3FF0
1FF8
47FC
43FC
40FC
E078
F070
9FC0
ENDCHAR
STARTCHAR uni1E67
ENCODING 7783
SWIDTH 481 0
DWIDTH 13 0
BBX 11 23 0 0
BITMAP
0600
0F00
0F00
0600
0000
0C60
0CC0
0780
0700
0600
0000
0FC0
39E0
71E0
78C0
7E00
3F00
0F80
03C0
61C0
F1C0
F380
7E00
ENDCHAR
STARTCHAR uni1E68
ENCODING 7784
SWIDTH 685 0
DWIDTH 16 0
BBX 15 28 0 -5
BITMAP
0180
03C0
03C0
0180
0000
03F2
0E1E
180E
3804
3804
3C04
3F00
3FE0
1FF8
1FF8
07FC
00FC
403C
401C
401C
E018
F070
9FC0
0000
0300
0780
0780
0300
ENDCHAR
STARTCHAR uni1E69
ENCODING 7785
SWIDTH 481 0
DWIDTH 13 0
BBX 11 22 0 -5
BITMAP
0600
0F00
0F00
0600
0000
0FC0
39E0
71E0
78C0
7E00
3F00
0F80
03C0
61C0
F1C0
F380
7E00
0000
0C00
1E00
1E00
0C00
ENDCHAR
STARTCHAR uni1E6A
ENCODING 7786
SWIDTH 722 0
DWIDTH 18 0
BBX 17 23 0 0
BITMAP
00C000
01E000
01E000
00C000
000000
7FFF80
73E780
E3E380
C3E300
83E100
83E100
07C000
07C000
07C000
07C000
07C000
07C000
0F8000
0F8000
0F8000
0F8000
0F8000
3FE000
ENDCHAR
STARTCHAR uni1E6B
ENCODING 7787
SWIDTH 407 0
DWIDTH 10 0
BBX 9 21 0 0
BITMAP
0C00
1E00
1E00
0C00
0000
1E00
1E00
1E00
1E00
FF80
3C00
3C00
3C00
7800
7800
7800
7800
F000
F100
F200
7C00
ENDCHAR
STARTCHAR uni1E6C
ENCODING 7788
SWIDTH 722 0
DWIDTH 18 0
BBX 17 23 0 -5
BITMAP
7FFF80
73E780
E3E380
C3E300
83E100
83E100
07C000
07C000
07C000
07C000
07C000
07C000
0F8000
0F8000
0F8000
0F8000
0F8000
3FE000
000000
030000
078000
078000
030000
ENDCHAR
STARTCHAR uni1E6D
ENCODING 7789
SWIDTH 407 0
DWIDTH 10 0
BBX 9 21 0 -5
BITMAP
1E00
1E00
1E00
1E00
FF80
3C00
3C00
3C00
7800
7800
7800
7800
F000
F100
F200
7C00
0000
3000
7800
7800
3000
ENDCHAR
STARTCHAR uni1E6E
ENCODING 7790
SWIDTH 722 0
DWIDTH 18 0
BBX 17 21 0 -3
BITMAP
7FFF80
73E780
E3E380
C3E300
83E100
83E100
07C000
07C000
07C000
07C000
07C000
07C000
0F8000
0F8000
0F8000
0F8000
0F8000
3FE000
000000
1FE000
1FE000
ENDCHAR
STARTCHAR uni1E6F
ENCODING 7791
SWIDTH 407 0
DWIDTH 10 0
BBX 10 19 -1 -3
BITMAP
0F00
0F00
0F00
0F00
7FC0
1E00
1E00
1E00
3C00
3C00
3C00
3C00
7800
7880
7900
3E00
0000
FF00
FF00
ENDCHAR
STARTCHAR uni1E70
ENCODING 7792
SWIDTH 722 0
DWIDTH 18 0
BBX 17 24 0 -6
BITMAP
7FFF80
73E780
E3E380
C3E300
83E100
83E100
07C000
07C000
07C000
07C000
07C000
07C000
0F8000
0F8000
0F8000
0F8000
0F8000
3FE000
000000
018000
038000
078000
0CC000
18C000
ENDCHAR
STARTCHAR uni1E71
ENCODING 7793
SWIDTH 407 0
DWIDTH 10 0
BBX 10 22 -1 -6
BITMAP
0F00
0F00
0F00
0F00
7FC0
1E00
1E00
1E00
3C00
3C00
3C00
3C00
7800
7880
7900
3E00
0000
0C00
1C00
3C00
6600
C600
ENDCHAR
STARTCHAR uni1E72
ENCODING 7794
SWIDTH 833 0
DWIDTH 20 0
BBX 19 23 1 -5
BITMAP
FF87E0
3E0180
3E0180
3E0180
3E0180
7C0100
7C0100
7C0300
7C0300
7C0300
7C0200
F80200
F80600
F80600
F80600
F80C00
7C3C00
1FF000
000000
186000
3CF000
3CF000
186000
ENDCHAR
STARTCHAR uni1E73
ENCODING 7795
SWIDTH 685 0
DWIDTH 16 0
BBX 15 17 0 -5
BITMAP
FC3C
3C3C
3C3C
3C3C
7878
7878
7878
78F8
F1F0
F2F2
FCF4
7878
0000
1860
3CF0
3CF0
1860
ENDCHAR
STARTCHAR uni1E74
ENCODING 7796
SWIDTH 833 0
DWIDTH 20 0
BBX 19 22 1 -4
BITMAP
FF87E0
3E0180
3E0180
3E0180
3E0180
7C0100
7C0100
7C0300
7C0300
7C0300
7C0200
F80200
F80600
F80600
F80600
F80C00
7C3C00
1FF000
000000
0F1000
1FE000
23C000
ENDCHAR
STARTCHAR uni1E75
ENCODING 7797
SWIDTH 685 0
DWIDTH 16 0
BBX 15 16 0 -4
BITMAP
FC3C
3C3C
3C3C
3C3C
7878
7878
7878
78F8
F1F0
F2F2
FCF4
7878
0000
0F10
1FE0
23C0
ENDCHAR
STARTCHAR uni1E76
ENCODING 7798
SWIDTH 833 0
DWIDTH 20 0
BBX 19 24 1 -6
BITMAP
FF87E0
3E0180
3E0180
3E0180
3E0180
7C0100
7C0100
7C0300
7C0300
7C0300
7C0200
F80200
F80600
F80600
F80600
F80C00
7C3C00
1FF000
000000
018000
038000
078000
0CC000
18C000
ENDCHAR
STARTCHAR uni1E77
ENCODING 7799
SWIDTH 685 0
DWIDTH 16 0
BBX 15 18 0 -6
BITMAP
FC3C
3C3C
3C3C
3C3C
7878
7878
7878
78F8
F1F0
F2F2
FCF4
7878
0000
0180
0380
0780
0CC0
18C0
ENDCHAR
STARTCHAR uni1E78
ENCODING 7800
SWIDTH 833 0
DWIDTH 20 0
BBX 19 28 1 0
BITMAP
001800
003800
007800
00E000
018000
000000
03C400
07F800
08F000
000000
FF87E0
3E0180
3E0180
3E0180
3E0180
7C0100
7C0100
7C0300
7C0300
7C0300
7C0200
F80200
F80600
F80600
F80600
F80C00
7C3C00
1FF000
ENDCHAR
STARTCHAR uni1E79
ENCODING 7801
SWIDTH 685 0
DWIDTH 16 0
BBX 15 22 0 0
BITMAP
0060
00E0
01E0
0380
0600
0000
0788
0FF0
11E0
0000
FC3C
3C3C
3C3C
3C3C
7878
7878
7878
78F8
F1F0
F2F2
FCF4
7878
ENDCHAR
STARTCHAR uni1E7A
ENCODING 7802
SWIDTH 833 0
DWIDTH 20 0
BBX 19 26 1 0
BITMAP
061800
0F3C00
0F3C00
061800
000000
07F800
07F800
000000
FF87E0
3E0180
3E0180
3E0180
3E0180
7C0100
7C0100
7C0300
7C0300
7C0300
7C0200
F80200
F80600
F80600
F80600
F80C00
7C3C00
1FF000
ENDCHAR
STARTCHAR uni1E7B
ENCODING 7803
SWIDTH 685 0
DWIDTH 16 0
BBX 15 20 0 0
BITMAP
1860
3CF0
3CF0
1860
0000
0FF0
0FF0
0000
FC3C
3C3C
3C3C
3C3C
7878
7878
7878
78F8
F1F0
F2F2
FCF4
7878
ENDCHAR
STARTCHAR uni1E7C
ENCODING 7804
SWIDTH 741 0
DWIDTH 19 0
BBX 20 22 0 0
BITMAP
03C400
07F800
08F000
000000
FF83F0
3E00C0
3E0080
3E0180
1F0100
1F0300
1F0200
0F8600
0F8400
0F8C00
07C800
07D800
07D000
03F000
03E000
03E000
01C000
01C000
ENDCHAR
STARTCHAR uni1E7D
ENCODING 7805
SWIDTH 556 0
DWIDTH 13 0
BBX 12 16 0 0
BITMAP
1E20
3FC0
4780
0000
FC60
3C70
3C30
7810
7810
7810
F020
F020
F040
F040
7980
3E00
ENDCHAR
STARTCHAR uni1E7E
ENCODING 7806
SWIDTH 741 0
DWIDTH 19 0
BBX 20 23 0 -5
BITMAP
FF83F0
3E00C0
3E0080
3E0180
1F0100
1F0300
1F0200
0F8600
0F8400
0F8C00
07C800
07D800
07D000
03F000
03E000
03E000
01C000
01C000
000000
00C000
01E000
01E000
00C000
ENDCHAR
STARTCHAR uni1E7F
ENCODING 7807
SWIDTH 556 0
DWIDTH 13 0
BBX 12 17 0 -5
BITMAP
FC60
3C70
3C30
7810
7810
7810
F020
F020
F040
F040
7980
3E00
0000
0C00
1E00
1E00
0C00
ENDCHAR
STARTCHAR Wgrave
ENCODING 7808
SWIDTH 944 0
DWIDTH 25 0
BBX 25 24 0 0
BITMAP
00C00000
00E00000
00F00000
00380000
000C0000
00000000
FF8F1F80
3E0F0600
3E0F0400
3E1F0C00
3E1F0800
3E1F0800
1F3F9800
1F2F9000
1F2F9000
1F6FB000
1F4FA000
1F4FA000
0F87C000
0F87C000
0F078000
07038000
06030000
06030000
ENDCHAR
STARTCHAR wgrave
ENCODING 7809
SWIDTH 833 0
DWIDTH 20 0
BBX 19 18 0 0
BITMAP
030000
038000
03C000
00E000
003000
000000
FC3CC0
3C3CE0
3C3C60
787820
787820
787820
F0F020
F0F040
F0F040
F0F080
797900
3E3E00
ENDCHAR
STARTCHAR Wacute
ENCODING 7810
SWIDTH 944 0
DWIDTH 25 0
BBX 25 24 0 0
BITMAP
00060000
000E0000
001E0000
00380000
00600000
00000000
FF8F1F80
3E0F0600
3E0F0400
3E1F0C00
3E1F0800
3E1F0800
1F3F9800
1F2F9000
1F2F9000
1F6FB000
1F4FA000
1F4FA000
0F87C000
0F87C000
0F078000
07038000
06030000
06030000
ENDCHAR
STARTCHAR wacute
ENCODING 7811
SWIDTH 833 0
DWIDTH 20 0
BBX 19 18 0 0
BITMAP
001800
003800
007800
00E000
018000
000000
FC3CC0
3C3CE0
3C3C60
787820
787820
787820
F0F020
F0F040
F0F040
F0F080
797900
3E3E00
ENDCHAR
STARTCHAR Wdieresis
ENCODING 7812
SWIDTH 944 0
DWIDTH 25 0
BBX 25 23 0 0
BITMAP
00C30000
01E78000
01E78000
00C30000
00000000
FF8F1F80
3E0F0600
3E0F0400
3E1F0C00
3E1F0800
3E1F0800
1F3F9800
1F2F9000
1F2F9000
1F6FB000
1F4FA000
1F4FA000
0F87C000
0F87C000
0F078000
07038000
06030000
06030000
ENDCHAR
STARTCHAR wdieresis
ENCODING 7813
SWIDTH 833 0
DWIDTH 20 0
BBX 19 17 0 0
BITMAP
061800
0F3C00
0F3C00
061800
000000
FC3CC0
3C3CE0
3C3C60
787820
787820
787820
F0F020
F0F040
F0F040
F0F080
797900
3E3E00
ENDCHAR
STARTCHAR uni1E86
ENCODING 7814
SWIDTH 944 0
DWIDTH 25 0
BBX 25 23 0 0
BITMAP
00180000
003C0000
003C0000
00180000
00000000
FF8F1F80
3E0F0600
3E0F0400
3E1F0C00
3E1F0800
3E1F0800
1F3F9800
1F2F9000
1F2F9000
1F6FB000
1F4FA000
1F4FA000
0F87C000
0F87C000
0F078000
07038000
06030000
06030000
ENDCHAR
STARTCHAR uni1E87
ENCODING 7815
SWIDTH 833 0
DWIDTH 20 0
BBX 19 17 0 0
BITMAP
00C000
01E000
01E000
00C000
000000
FC3CC0
3C3CE0
3C3C60
787820
787820
787820
F0F020
F0F040
F0F040
F0F080
797900
3E3E00
ENDCHAR
STARTCHAR uni1E88
ENCODING 7816
SWIDTH 944 0
DWIDTH 25 0
BBX 25 23 0 -5
BITMAP
FF8F1F80
3E0F0600
3E0F0400
3E1F0C00
3E1F0800
3E1F0800
1F3F9800
1F2F9000
1F2F9000
1F6FB000
1F4FA000
1F4FA000
0F87C000
0F87C000
0F078000
07038000
06030000
06030000
00000000
00300000
00780000
00780000
00300000
ENDCHAR
STARTCHAR uni1E89
ENCODING 7817
SWIDTH 833 0
DWIDTH 20 0
BBX 19 17 0 -5
BITMAP
FC3CC0
3C3CE0
3C3C60
787820
787820
787820
F0F020
F0F040
F0F040
F0F080
797900
3E3E00
000000
018000
03C000
03C000
018000
ENDCHAR
STARTCHAR uni1E8A
ENCODING 7818
SWIDTH 741 0
DWIDTH 21 0
BBX 22 23 -1 0
BITMAP
003000
007800
007800
003000
000000
1FF1FC
07C070
03E060
03E0C0
01F180
01F300
00FE00
00FC00
007C00
007C00
00FE00
01BE00
031F00
061F00
0C0F80
180F80
3807C0
FC1FF0
ENDCHAR
STARTCHAR uni1E8B
ENCODING 7819
SWIDTH 574 0
DWIDTH 15 0
BBX 15 17 -1 0
BITMAP
0180
03C0
03C0
0180
0000
1E0E
3E1E
4F3C
0F60
07C0
0780
0380
07C0
0FC0
79E4
F1F8
E0F0
ENDCHAR
STARTCHAR uni1E8C
ENCODING 7820
SWIDTH 741 0
DWIDTH 21 0
BBX 22 23 -1 0
BITMAP
018600
03CF00
03CF00
018600
000000
1FF1FC
07C070
03E060
03E0C0
01F180
01F300
00FE00
00FC00
007C00
007C00
00FE00
01BE00
031F00
061F00
0C0F80
180F80
3807C0
FC1FF0
ENDCHAR
STARTCHAR uni1E8D
ENCODING 7821
SWIDTH 574 0
DWIDTH 15 0
BBX 15 17 -1 0
BITMAP
0C30
1E78
1E78
0C30
0000
1E0E
3E1E
4F3C
0F60
07C0
0780
0380
07C0
0FC0
79E4
F1F8
E0F0
ENDCHAR
STARTCHAR uni1E8E
ENCODING 7822
SWIDTH 704 0
DWIDTH 18 0
BBX 19 23 0 0
BITMAP
00C000
01E000
01E000
00C000
000000
FF8FE0
3E0380
3E0300
3E0600
1F0400
1F0C00
1F1800
0F9000
0FB000
0FE000
07C000
07C000
078000
0F8000
0F8000
0F8000
0F8000
3FE000
ENDCHAR
STARTCHAR uni1E8F
ENCODING 7823
SWIDTH 519 0
DWIDTH 13 0
BBX 15 22 -3 -5
BITMAP
0180
03C0
03C0
0180
0000
0E0C
1F0E
2F06
0784
078C
0788
03D8
03D0
03F0
01E0
01E0
01C0
0180
6300
F600
FC00
7000
ENDCHAR
STARTCHAR uni1E90
ENCODING 7824
SWIDTH 704 0
DWIDTH 18 0
BBX 17 24 0 0
BITMAP
003000
007000
00F000
019800
031800
000000
1FFF80
1C0F80
181F80
303F00
207E00
207C00
00F800
01F000
03F000
07E000
0FC000
0F8000
1F0100
3F0100
7E0300
FC0600
FC0E00
FFFE00
ENDCHAR
STARTCHAR uni1E91
ENCODING 7825
SWIDTH 519 0
DWIDTH 14 0
BBX 13 18 0 0
BITMAP
0180
0380
0780
0CC0
18C0
0000
1E18
3FF8
7FF0
41E0
00C0
0180
0600
1C00
3E10
7FF0
FFE0
C7C0
ENDCHAR
STARTCHAR uni1E92
ENCODING 7826
SWIDTH 704 0
DWIDTH 18 0
BBX 17 23 0 -5
BITMAP
1FFF80
1C0F80
181F80
303F00
207E00
207C00
00F800
01F000
03F000
07E000
0FC000
0F8000
1F0100
3F0100
7E0300
FC0600
FC0E00
FFFE00
000000
030000
078000
078000
030000
ENDCHAR
STARTCHAR uni1E93
ENCODING 7827
SWIDTH 519 0
DWIDTH 14 0
BBX 13 17 0 -5
BITMAP
1E18
3FF8
7FF0
41E0
00C0
0180
0600
1C00
3E10
7FF0
FFE0
C7C0
0000
0600
0F00
0F00
0600
ENDCHAR
STARTCHAR uni1E94
ENCODING 7828
SWIDTH 704 0
DWIDTH 18 0
BBX 17 21 0 -3
BITMAP
1FFF80
1C0F80
181F80
303F00
207E00
207C00
00F800
01F000
03F000
07E000
0FC000
0F8000
1F0100
3F0100
7E0300
FC0600
FC0E00
FFFE00
000000
1FE000
1FE000
ENDCHAR
STARTCHAR uni1E95
ENCODING 7829
SWIDTH 519 0
DWIDTH 14 0
BBX 13 15 0 -3
BITMAP
1E18
3FF8
7FF0
41E0
00C0
0180
0600
1C00
3E10
7FF0
FFE0
C7C0
0000
3FC0
3FC0
ENDCHAR
STARTCHAR uni1E96
ENCODING 7830
SWIDTH 685 0
DWIDTH 16 0
BBX 15 21 0 -3
BITMAP
7E00
1E00
1E00
1E00
3C00
3C00
3C78
3CFC
3D3C
7E3C
7C78
7878
7878
7878
F0F0
F0F2
F0F4
F078
0000
1FE0
1FE0
ENDCHAR
STARTCHAR uni1E97
ENCODING 7831
SWIDTH 407 0
DWIDTH 10 0
BBX 10 21 0 0
BITMAP
6180
F3C0
F3C0
6180
0000
1E00
1E00
1E00
1E00
FF80
3C00
3C00
3C00
7800
7800
7800
7800
F000
F100
F200
7C00
ENDCHAR
STARTCHAR uni1E98
ENCODING 7832
SWIDTH 833 0
DWIDTH 20 0
BBX 19 18 0 0
BITMAP
00E000
01B000
011000
01B000
00E000
000000
FC3CC0
3C3CE0
3C3C60
787820
787820
787820
F0F020
F0F040
F0F040
F0F080
797900
3E3E00
ENDCHAR
STARTCHAR uni1E99
ENCODING 7833
SWIDTH 519 0
DWIDTH 13 0
BBX 15 23 -3 -5
BITMAP
01C0
0360
0220
0360
01C0
0000
0E0C
1F0E
2F06
0784
078C
0788
03D8
03D0
03F0
01E0
01E0
01C0
0180
6300
F600
FC00
7000
ENDCHAR
STARTCHAR uni1EA0
ENCODING 7840
SWIDTH 741 0
DWIDTH 20 0
BBX 20 23 -1 -5
BITMAP
000800
001800
001C00
003C00
007C00
007E00
00DE00
019E00
011F00
031F00
060F00
040F80
0FFF80
180F80
1807C0
3007C0
7007C0
FC1FF0
000000
003000
007800
007800
003000
ENDCHAR
STARTCHAR uni1EA1
ENCODING 7841
SWIDTH 667 0
DWIDTH 16 0
BBX 15 17 0 -5
BITMAP
0FBC
3C7C
783C
783C
F078
F078
F078
F078
F0F0
70F2
79F4
1E78
0000
0300
0780
0780
0300
ENDCHAR
STARTCHAR uni1EA4
ENCODING 7844
SWIDTH 741 0
DWIDTH 20 0
BBX 20 29 -1 0
BITMAP
000300
000700
000F00
001C00
003000
000000
000600
000E00
001E00
003300
006300
000000
001800
001C00
003C00
007C00
007E00
00DE00
019E00
011F00
031F00
060F00
040F80
0FFF80
180F80
1807C0
3007C0
7007C0
FC1FF0
ENDCHAR
STARTCHAR uni1EA5
ENCODING 7845
SWIDTH 667 0
DWIDTH 16 0
BBX 15 24 0 0
BITMAP
0030
0070
00F0
01C0
0300
0000
0060
00E0
01E0
0330
0630
0000
0FBC
3CFC
787C
787C
F078
F078
F078
F078
F0F0
70F2
79F4
1E78
ENDCHAR
STARTCHAR uni1EA6
ENCODING 7846
SWIDTH 741 0
DWIDTH 20 0
BBX 20 29 -1 0
BITMAP
00C000
00E000
00F000
003800
000C00
000000
000600
000E00
001E00
003300
006300
000000
001800
001C00
003C00
007C00
007E00
00DE00
019E00
011F00
031F00
060F00
040F80
0FFF80
180F80
1807C0
3007C0
7007C0
FC1FF0
ENDCHAR
STARTCHAR uni1EA7
ENCODING 7847
SWIDTH 667 0
DWIDTH 16 0
BBX 15 24 0 0
BITMAP
0600
0700
0780
01C0
0060
0000
0060
00E0
01E0
0330
0630
0000
0FBC
3CFC
787C
787C
F078
F078
F078
F078
F0F0
70F2
79F4
1E78
ENDCHAR
STARTCHAR uni1EAA
ENCODING 7850
SWIDTH 741 0
DWIDTH 20 0
BBX 20 27 -1 0
BITMAP
007880
00FF00
011E00
000000
000600
000E00
001E00
003300
006300
000000
001800
001C00
003C00
007C00
007E00
00DE00
019E00
011F00
031F00
060F00
040F80
0FFF80
180F80
1807C0
3007C0
7007C0
FC1FF0
ENDCHAR
STARTCHAR uni1EAB
ENCODING 7851
SWIDTH 667 0
DWIDTH 16 0
BBX 15 22 0 0
BITMAP
03C4
07F8
08F0
0000
0060
00E0
01E0
0330
0630
0000
0FBC
3CFC
787C
787C
F078
F078
F078
F078
F0F0
70F2
79F4
1E78
ENDCHAR
STARTCHAR uni1EAC
ENCODING 7852
SWIDTH 741 0
DWIDTH 20 0
BBX 20 29 -1 -5
BITMAP
000C00
001C00
003C00
006600
00C600
000000
000800
001800
001C00
003C00
007C00
007E00
00DE00
019E00
011F00
031F00
060F00
040F80
0FFF80
180F80
1807C0
3007C0
7007C0
FC1FF0
000000
003000
007800
007800
003000
ENDCHAR
STARTCHAR uni1EAD
ENCODING 7853
SWIDTH 667 0
DWIDTH 16 0
BBX 15 23 0 -5
BITMAP
00C0
01C0
03C0
0660
0C60
0000
0FBC
3C7C
783C
783C
F078
F078
F078
F078
F0F0
70F2
79F4
1E78
0000
0300
0780
0780
0300
ENDCHAR
STARTCHAR uni1EAE
ENCODING 7854
SWIDTH 741 0
DWIDTH 20 0
BBX 20 29 -1 0
BITMAP
000C00
001C00
003C00
007000
00C000
000000
010200
018600
00FC00
007800
000000
000800
001800
001C00
003C00
007C00
007E00
00DE00
019E00
011F00
031F00
060F00
040F80
0FFF80
180F80
1807C0
3007C0
7007C0
FC1FF0
ENDCHAR
STARTCHAR uni1EAF
ENCODING 7855
SWIDTH 667 0
DWIDTH 16 0
BBX 15 23 0 0
BITMAP
0030
0070
00F0
01C0
0300
0000
0810
0C30
07E0
03C0
0000
0FBC
3C7C
783C
783C
F078
F078
F078
F078
F0F0
70F2
79F4
1E78
ENDCHAR
STARTCHAR uni1EB0
ENCODING 7856
SWIDTH 741 0
DWIDTH 20 0
BBX 20 29 -1 0
BITMAP
018000
01C000
01E000
007000
001800
000000
010200
018600
00FC00
007800
000000
000800
001800
001C00
003C00
007C00
007E00
00DE00
019E00
011F00
031F00
060F00
040F80
0FFF80
180F80
1807C0
3007C0
7007C0
FC1FF0
ENDCHAR
STARTCHAR uni1EB1
ENCODING 7857
SWIDTH 667 0
DWIDTH 16 0
BBX 15 23 0 0
BITMAP
0C00
0E00
0F00
0380
00C0
0000
0810
0C30
07E0
03C0
0000
0FBC
3C7C
783C
783C
F078
F078
F078
F078
F0F0
70F2
79F4
1E78
ENDCHAR
STARTCHAR uni1EB4
ENCODING 7860
SWIDTH 741 0
DWIDTH 20 0
BBX 20 27 -1 0
BITMAP
00F100
01FE00
023C00
000000
010200
018600
00FC00
007800
000000
000800
001800
001C00
003C00
007C00
007E00
00DE00
019E00
011F00
031F00
060F00
040F80
0FFF80
180F80
1807C0
3007C0
7007C0
FC1FF0
ENDCHAR
STARTCHAR uni1EB5
ENCODING 7861
SWIDTH 667 0
DWIDTH 16 0
BBX 15 21 0 0
BITMAP
0788
0FF0
11E0
0000
0810
0C30
07E0
03C0
0000
0FBC
3C7C
783C
783C
F078
F078
F078
F078
F0F0
70F2
79F4
1E78
ENDCHAR
STARTCHAR uni1EB6
ENCODING 7862
SWIDTH 741 0
DWIDTH 20 0
BBX 20 28 -1 -5
BITMAP
010200
018600
00FC00
007800
000000
000800
001800
001C00
003C00
007C00
007E00
00DE00
019E00
011F00
031F00
060F00
040F80
0FFF80
180F80
1807C0
3007C0
7007C0
FC1FF0
000000
003000
007800
007800
003000
ENDCHAR
STARTCHAR uni1EB7
ENCODING 7863
SWIDTH 667 0
DWIDTH 16 0
BBX 15 22 0 -5
BITMAP
0810
0C30
07E0
03C0
0000
0FBC
3C7C
783C
783C
F078
F078
F078
F078
F0F0
70F2
79F4
1E78
0000
0300
0780
0780
0300
ENDCHAR
STARTCHAR uni1EB8
ENCODING 7864
SWIDTH 741 0
DWIDTH 18 0
BBX 17 23 0 -5
BITMAP
3FFF80
0F8380
0F8180
0F8100
0F8100
0F8400
1F0400
1F0C00
1FFC00
1F1800
1F0800
1F0800
3E0900
3E0100
3E0300
3E0600
3E0E00
FFFE00
000000
018000
03C000
03C000
018000
ENDCHAR
STARTCHAR uni1EB9
ENCODING 7865
SWIDTH 519 0
DWIDTH 14 0
BBX 12 17 0 -5
BITMAP
0FC0
3CF0
7870
7870
F0F0
F1E0
FF00
F000
F000
7020
78C0
1F00
0000
0C00
1E00
1E00
0C00
ENDCHAR
STARTCHAR uni1EBC
ENCODING 7868
SWIDTH 741 0
DWIDTH 18 0
BBX 17 22 0 0
BITMAP
03C400
07F800
08F000
000000
3FFF80
0F8380
0F8180
0F8100
0F8100
0F8400
1F0400
1F0C00
1FFC00
1F1800
1F0800
1F0800
3E0900
3E0100
3E0300
3E0600
3E0E00
FFFE00
ENDCHAR
STARTCHAR uni1EBD
ENCODING 7869
SWIDTH 519 0
DWIDTH 14 0
BBX 12 16 0 0
BITMAP
1E20
3FC0
4780
0000
0FC0
3CF0
7870
7870
F0F0
F1E0
FF00
F000
F000
7020
78C0
1F00
ENDCHAR
STARTCHAR uni1EBE
ENCODING 7870
SWIDTH 741 0
DWIDTH 18 0
BBX 17 30 0 0
BITMAP
001800
003800
007800
00E000
018000
000000
001800
003800
007800
00CC00
018C00
000000
3FFF80
0F8380
0F8180
0F8100
0F8100
0F8400
1F0400
1F0C00
1FFC00
1F1800
1F0800
1F0800
3E0880
3E0080
3E0180
3E0300
3E0F00
FFFF00
ENDCHAR
STARTCHAR uni1EBF
ENCODING 7871
SWIDTH 519 0
DWIDTH 14 0
BBX 12 24 0 0
BITMAP
00C0
01C0
03C0
0700
0C00
0000
0180
0380
0780
0CC0
18C0
0000
0FC0
3CF0
7870
7870
F0F0
F1E0
FF00
F000
F000
7020
78C0
1F00
ENDCHAR
STARTCHAR uni1EC0
ENCODING 7872
SWIDTH 741 0
DWIDTH 18 0
BBX 17 30 0 0
BITMAP
030000
038000
03C000
00E000
003000
000000
001800
003800
007800
00CC00
018C00
000000
3FFF80
0F8380
0F8180
0F8100
0F8100
0F8400
1F0400
1F0C00
1FFC00
1F1800
1F0800
1F0800
3E0880
3E0080
3E0180
3E0300
3E0F00
FFFF00
ENDCHAR
STARTCHAR uni1EC1
ENCODING 7873
SWIDTH 519 0
DWIDTH 14 0
BBX 12 24 0 0
BITMAP
1800
1C00
1E00
0700
0180
0000
0180
0380
0780
0CC0
18C0
0000
0FC0
3CF0
7870
7870
F0F0
F1E0
FF00
F000
F000
7020
78C0
1F00
ENDCHAR
STARTCHAR uni1EC4
ENCODING 7876
SWIDTH 741 0
DWIDTH 18 0
BBX 17 28 0 0
BITMAP
01E200
03FC00
047800
000000
001800
003800
007800
00CC00
018C00
000000
3FFF80
0F8380
0F8180
0F8100
0F8100
0F8400
1F0400
1F0C00
1FFC00
1F1800
1F0800
1F0800
3E0880
3E0080
3E0180
3E0300
3E0F00
FFFF00
ENDCHAR
STARTCHAR uni1EC5
ENCODING 7877
SWIDTH 519 0
DWIDTH 14 0
BBX 12 22 0 0
BITMAP
0F10
1FE0
23C0
0000
0180
0380
0780
0CC0
18C0
0000
0FC0
3CF0
7870
7870
F0F0
F1E0
FF00
F000
F000
7020
78C0
1F00
ENDCHAR
STARTCHAR uni1EC6
ENCODING 7878
SWIDTH 741 0
DWIDTH 18 0
BBX 17 29 0 -5
BITMAP
006000
00E000
01E000
033000
063000
000000
3FFF80
0F8380
0F8180
0F8100
0F8100
0F8400
1F0400
1F0C00
1FFC00
1F1800
1F0800
1F0800
3E0900
3E0100
3E0300
3E0600
3E0E00
FFFE00
000000
018000
03C000
03C000
018000
ENDCHAR
STARTCHAR uni1EC7
ENCODING 7879
SWIDTH 519 0
DWIDTH 14 0
BBX 12 23 0 -5
BITMAP
0180
0380
0780
0CC0
18C0
0000
0FC0
3CF0
7870
7870
F0F0
F1E0
FF00
F000
F000
7020
78C0
1F00
0000
0C00
1E00
1E00
0C00
ENDCHAR
STARTCHAR uni1ECA
ENCODING 7882
SWIDTH 444 0
DWIDTH 12 0
BBX 11 23 0 -5
BITMAP
3FE0
0F80
0F80
0F80
0F80
0F80
1F00
1F00
1F00
1F00
1F00
1F00
3E00
3E00
3E00
3E00
3E00
FF80
0000
0C00
1E00
1E00
0C00
ENDCHAR
STARTCHAR uni1ECB
ENCODING 7883
SWIDTH 389 0
DWIDTH 8 0
BBX 7 22 0 -5
BITMAP
0E
0E
0E
00
00
FC
3C
3C
3C
78
78
78
78
F0
F2
F4
78
00
30
78
78
30
ENDCHAR
STARTCHAR uni1ECC
ENCODING 7884
SWIDTH 833 0
DWIDTH 20 0
BBX 19 23 0 -5
BITMAP
01FC00
0F8F00
1E0780
3E07C0
3C03C0
7C03E0
7803E0
F803E0
F803E0
F803E0
F803E0
F803C0
F807C0
780780
7C0F80
3C0F00
1E3E00
07F000
000000
00C000
01E000
01E000
00C000
ENDCHAR
STARTCHAR uni1ECD
ENCODING 7885
SWIDTH 574 0
DWIDTH 15 0
BBX 13 17 0 -5
BITMAP
0FC0
3CF0
7870
7878
F078
F078
F078
F078
F0F0
70F0
79E0
1F80
0000
0600
0F00
0F00
0600
ENDCHAR
STARTCHAR uni1ED0
ENCODING 7888
SWIDTH 833 0
DWIDTH 20 0
BBX 19 30 0 0
BITMAP
000C00
001C00
003C00
007000
00C000
000000
001800
003800
007800
00CC00
018C00
000000
01FC00
0F8F00
1E0780
3E07C0
3C03C0
7C03E0
7803E0
F803E0
F803E0
F803E0
F803E0
F803C0
F807C0
780780
7C0F80
3C0F00
1E3E00
07F000
ENDCHAR
STARTCHAR uni1ED1
ENCODING 7889
SWIDTH 574 0
DWIDTH 15 0
BBX 13 24 0 0
BITMAP
0060
00E0
01E0
0380
0600
0000
00C0
01C0
03C0
0660
0C60
0000
0FC0
3CF0
7870
7878
F078
F078
F078
F078
F0F0
70F0
79E0
1F80
ENDCHAR
STARTCHAR uni1ED2
ENCODING 7890
SWIDTH 833 0
DWIDTH 20 0
BBX 19 30 0 0
BITMAP
018000
01C000
01E000
007000
001800
000000
001800
003800
007800
00CC00
018C00
000000
01FC00
0F8F00
1E0780
3E07C0
3C03C0
7C03E0
7803E0
F803E0
F803E0
F803E0
F803E0
F803C0
F807C0
780780
7C0F80
3C0F00
1E3E00
07F000
ENDCHAR
STARTCHAR uni1ED3
ENCODING 7891
SWIDTH 574 0
DWIDTH 15 0
BBX 13 24 0 0
BITMAP
0C00
0E00
0F00
0380
00C0
0000
00C0
01C0
03C0
0660
0C60
0000
0FC0
3CF0
7870
7878
F078
F078
F078
F078
F0F0
70F0
79E0
1F80
ENDCHAR
STARTCHAR uni1ED6
ENCODING 7894
SWIDTH 833 0
DWIDTH 20 0
BBX 19 28 0 0
BITMAP
00F100
01FE00
023C00
000000
001800
003800
007800
00CC00
018C00
000000
01FC00
0F8F00
1E0780
3E07C0
3C03C0
7C03E0
7803E0
F803E0
F803E0
F803E0
F803E0
F803C0
F807C0
780780
7C0F80
3C0F00
1E3E00
07F000
ENDCHAR
STARTCHAR uni1ED7
ENCODING 7895
SWIDTH 574 0
DWIDTH 15 0
BBX 13 22 0 0
BITMAP
0788
0FF0
11E0
0000
00C0
01C0
03C0
0660
0C60
0000
0FC0
3CF0
7870
7878
F078
F078
F078
F078
F0F0
70F0
79E0
1F80
ENDCHAR
STARTCHAR uni1ED8
ENCODING 7896
SWIDTH 833 0
DWIDTH 20 0
BBX 19 29 0 -5
BITMAP
003000
007000
00F000
019800
031800
000000
01FC00
0F8F00
1E0780
3E07C0
3C03C0
7C03E0
7803E0
F803E0
F803E0
F803E0
F803E0
F803C0
F807C0
780780
7C0F80
3C0F00
1E3E00
07F000
000000
00C000
01E000
01E000
00C000
ENDCHAR
STARTCHAR uni1ED9
ENCODING 7897
SWIDTH 574 0
DWIDTH 15 0
BBX 13 23 0 -5
BITMAP
0180
0380
0780
0CC0
18C0
0000
0FC0
3CF0
7870
7878
F078
F078
F078
F078
F0F0
70F0
79E0
1F80
0000
0600
0F00
0F00
0600
ENDCHAR
STARTCHAR uni1EDA
ENCODING 7898
SWIDTH 833 0
DWIDTH 20 0
BBX 22 24 0 0
BITMAP
000300
000700
000F00
001C00
003000
000000
01FC38
0F8F7C
1E07FC
3E07FC
3C03C8
7C03F0
7803E0
F803E0
F803E0
F803E0
F803E0
F803C0
F807C0
780780
7C0F80
3C0F00
1E3E00
07F000
ENDCHAR
STARTCHAR uni1EDB
ENCODING 7899
SWIDTH 574 0
DWIDTH 15 0
BBX 17 18 0 0
BITMAP
001800
003800
007800
00E000
018000
000000
0FC700
3CFF80
787F80
787F80
F07900
F07A00
F07C00
F07800
F0F000
70F000
79E000
1F8000
ENDCHAR
STARTCHAR uni1EDC
ENCODING 7900
SWIDTH 833 0
DWIDTH 20 0
BBX 22 24 0 0
BITMAP
006000
007000
007800
001C00
000600
000000
01FC38
0F8F7C
1E07FC
3E07FC
3C03C8
7C03F0
7803E0
F803E0
F803E0
F803E0
F803E0
F803C0
F807C0
780780
7C0F80
3C0F00
1E3E00
07F000
ENDCHAR
STARTCHAR uni1EDD
ENCODING 7901
SWIDTH 574 0
DWIDTH 15 0
BBX 17 18 0 0
BITMAP
030000
038000
03C000
00E000
003000
000000
0FC700
3CFF80
787F80
787F80
F07900
F07A00
F07C00
F07800
F0F000
70F000
79E000
1F8000
ENDCHAR
STARTCHAR uni1EE0
ENCODING 7904
SWIDTH 833 0
DWIDTH 20 0
BBX 22 22 0 0
BITMAP
007880
00FF00
011E00
000000
01FC38
0F8F7C
1E07FC
3E07FC
3C03C8
7C03F0
7803E0
F803E0
F803E0
F803E0
F803E0
F803C0
F807C0
780780
7C0F80
3C0F00
1E3E00
07F000
ENDCHAR
STARTCHAR uni1EE1
ENCODING 7905
SWIDTH 574 0
DWIDTH 15 0
BBX 17 16 0 0
BITMAP
03C400
07F800
08F000
000000
0FC700
3CFF80
787F80
787F80
F07900
F07A00
F07C00
F07800
F0F000
70F000
79E000
1F8000
ENDCHAR
STARTCHAR uni1EE2
ENCODING 7906
SWIDTH 833 0
DWIDTH 20 0
BBX 22 23 0 -5
BITMAP
01FC38
0F8F7C
1E07FC
3E07FC
3C03C8
7C03F0
7803E0
F803E0
F803E0
F803E0
F803E0
F803C0
F807C0
780780
7C0F80
3C0F00
1E3E00
07F000
000000
006000
00F000
00F000
006000
ENDCHAR
STARTCHAR uni1EE3
ENCODING 7907
SWIDTH 574 0
DWIDTH 15 0
BBX 17 17 0 -5
BITMAP
0FC700
3CFF80
787F80
787F80
F07900
F07A00
F07C00
F07800
F0F000
70F000
79E000
1F8000
000000
030000
078000
078000
030000
ENDCHAR
STARTCHAR uni1EE4
ENCODING 7908
SWIDTH 833 0
DWIDTH 20 0
BBX 19 23 1 -5
BITMAP
FF87E0
3E0180
3E0180
3E0180
3E0180
7C0100
7C0100
7C0300
7C0300
7C0300
7C0200
F80200
F80600
F80600
F80600
F80C00
7C3C00
1FF000
000000
030000
078000
078000
030000
ENDCHAR
STARTCHAR uni1EE5
ENCODING 7909
SWIDTH 685 0
DWIDTH 16 0
BBX 15 17 0 -5
BITMAP
FC3C
3C3C
3C3C
3C3C
7878
7878
7878
78F8
F1F0
F2F2
FCF4
7878
0000
0300
0780
0780
0300
ENDCHAR
STARTCHAR uni1EE8
ENCODING 7912
SWIDTH 833 0
DWIDTH 20 0
BBX 22 24 1 0
BITMAP
000600
000E00
001E00
003800
006000
000000
FF87F8
3E01FC
3E01FC
3E01BC
3E0188
7C0110
7C0120
7C0340
7C0300
7C0300
7C0200
F80200
F80600
F80600
F80600
F80C00
7C3C00
1FF000
ENDCHAR
STARTCHAR uni1EE9
ENCODING 7913
SWIDTH 685 0
DWIDTH 16 0
BBX 19 18 0 0
BITMAP
000C00
001C00
003C00
007000
00C000
000000
FC3DC0
3C3FE0
3C3FE0
3C3DE0
787840
787880
787900
78FA00
F1F000
F2F200
FCF400
787800
ENDCHAR
STARTCHAR uni1EEA
ENCODING 7914
SWIDTH 833 0
DWIDTH 20 0
BBX 22 24 1 0
BITMAP
00C000
00E000
00F000
003800
000C00
000000
FF87F8
3E01FC
3E01FC
3E01BC
3E0188
7C0110
7C0120
7C0340
7C0300
7C0300
7C0200
F80200
F80600
F80600
F80600
F80C00
7C3C00
1FF000
ENDCHAR
STARTCHAR uni1EEB
ENCODING 7915
SWIDTH 685 0
DWIDTH 16 0
BBX 19 18 0 0
BITMAP
030000
038000
03C000
00E000
003000
000000
FC3DC0
3C3FE0
3C3FE0
3C3DE0
787840
787880
787900
78FA00
F1F000
F2F200
FCF400
787800
ENDCHAR
STARTCHAR uni1EEE
ENCODING 7918
SWIDTH 833 0
DWIDTH 20 0
BBX 22 22 1 0
BITMAP
00F100
01FE00
023C00
000000
FF87F8
3E01FC
3E01FC
3E01BC
3E0188
7C0110
7C0120
7C0340
7C0300
7C0300
7C0200
F80200
F80600
F80600
F80600
F80C00
7C3C00
1FF000
ENDCHAR
STARTCHAR uni1EEF
ENCODING 7919
SWIDTH 685 0
DWIDTH 16 0
BBX 19 16 0 0
BITMAP
01E200
03FC00
047800
000000
FC3DC0
3C3FE0
3C3FE0
3C3DE0
787840
787880
787900
78FA00
F1F000
F2F200
FCF400
787800
ENDCHAR
STARTCHAR uni1EF0
ENCODING 7920
SWIDTH 833 0
DWIDTH 20 0
BBX 22 23 1 -5
BITMAP
FF87F8
3E01FC
3E01FC
3E01BC
3E0188
7C0110
7C0120
7C0340
7C0300
7C0300
7C0200
F80200
F80600
F80600
F80600
F80C00
7C3C00
1FF000
000000
018000
03C000
03C000
018000
ENDCHAR
STARTCHAR uni1EF1
ENCODING 7921
SWIDTH 685 0
DWIDTH 16 0
BBX 19 17 0 -5
BITMAP
FC3DC0
3C3FE0
3C3FE0
3C3DE0
787840
787880
787900
78FA00
F1F000
F2F200
FCF400
787800
000000
018000
03C000
03C000
018000
ENDCHAR
STARTCHAR Ygrave
ENCODING 7922
SWIDTH 704 0
DWIDTH 18 0
BBX 19 24 0 0
BITMAP
060000
070000
078000
01C000
006000
000000
FF8FE0
3E0380
3E0300
3E0600
1F0400
1F0C00
1F1800
0F9000
0FB000
0FE000
07C000
07C000
078000
0F8000
0F8000
0F8000
0F8000
3FE000
ENDCHAR
STARTCHAR ygrave
ENCODING 7923
SWIDTH 519 0
DWIDTH 13 0
BBX 15 23 -3 -5
BITMAP
0C00
0E00
0F00
0380
00C0
0000
0E0C
1F0E
2F06
0784
078C
0788
03D8
03D0
03F0
01E0
01E0
01C0
0180
6300
F600
FC00
7000
ENDCHAR
STARTCHAR uni1EF4
ENCODING 7924
SWIDTH 704 0
DWIDTH 18 0
BBX 19 23 0 -5
BITMAP
FF8FE0
3E0380
3E0300
3E0600
1F0400
1F0C00
1F1800
0F9000
0FB000
0FE000
07C000
07C000
078000
0F8000
0F8000
0F8000
0F8000
3FE000
000000
018000
03C000
03C000
018000
ENDCHAR
STARTCHAR uni1EF5
ENCODING 7925
SWIDTH 519 0
DWIDTH 13 0
BBX 15 22 -3 -10
BITMAP
0E0C
1F0E
2F06
0784
078C
0788
03D8
03D0
03F0
01E0
01E0
01C0
0180
6300
F600
FC00
7000
0000
0C00
1E00
1E00
0C00
ENDCHAR
STARTCHAR uni1EF8
ENCODING 7928
SWIDTH 704 0
DWIDTH 18 0
BBX 19 22 0 0
BITMAP
03C400
07F800
08F000
000000
FF8FE0
3E0380
3E0300
3E0600
1F0400
1F0C00
1F1800
0F9000
0FB000
0FE000
07C000
07C000
078000
0F8000
0F8000
0F8000
0F8000
3FE000
ENDCHAR
STARTCHAR uni1EF9
ENCODING 7929
SWIDTH 519 0
DWIDTH 13 0
BBX 15 21 -3 -5
BITMAP
0788
0FF0
11E0
0000
0E0C
1F0E
2F06
0784
078C
0788
03D8
03D0
03F0
01E0
01E0
01C0
0180
6300
F600
FC00
7000
ENDCHAR
STARTCHAR uni2000
ENCODING 8192
SWIDTH 500 0
DWIDTH 13 0
BBX 1 1 0 0
BITMAP
00
ENDCHAR
STARTCHAR uni2001
ENCODING 8193
SWIDTH 1000 0
DWIDTH 25 0
BBX 1 1 0 0
BITMAP
00
ENDCHAR
STARTCHAR uni2002
ENCODING 8194
SWIDTH 500 0
DWIDTH 13 0
BBX 1 1 0 0
BITMAP
00
ENDCHAR
STARTCHAR uni2003
ENCODING 8195
SWIDTH 1000 0
DWIDTH 25 0
BBX 1 1 0 0
BITMAP
00
ENDCHAR
STARTCHAR uni2004
ENCODING 8196
SWIDTH 333 0
DWIDTH 8 0
BBX 1 1 0 0
BITMAP
00
ENDCHAR
STARTCHAR uni2005
ENCODING 8197
SWIDTH 250 0
DWIDTH 6 0
BBX 1 1 0 0
BITMAP
00
ENDCHAR
STARTCHAR uni2006
ENCODING 8198
SWIDTH 167 0
DWIDTH 4 0
BBX 1 1 0 0
BITMAP
00
ENDCHAR
STARTCHAR uni2007
ENCODING 8199
SWIDTH 574 0
DWIDTH 14 0
BBX 1 1 0 0
BITMAP
00
ENDCHAR
STARTCHAR uni2008
ENCODING 8200
SWIDTH 287 0
DWIDTH 7 0
BBX 1 1 0 0
BITMAP
00
ENDCHAR
STARTCHAR uni2009
ENCODING 8201
SWIDTH 200 0
DWIDTH 5 0
BBX 1 1 0 0
BITMAP
00
ENDCHAR
STARTCHAR uni200A
ENCODING 8202
SWIDTH 100 0
DWIDTH 3 0
BBX 1 1 0 0
BITMAP
00
ENDCHAR
STARTCHAR uni200B
ENCODING 8203
SWIDTH 0 0
DWIDTH 0 0
BBX 1 1 0 0
BITMAP
00
ENDCHAR
STARTCHAR uni2010
ENCODING 8208
SWIDTH 333 0
DWIDTH 7 0
BBX 6 2 0 6
BITMAP
FC
FC
ENDCHAR
STARTCHAR uni2011
ENCODING 8209
SWIDTH 333 0
DWIDTH 7 0
BBX 6 2 0 6
BITMAP
FC
FC
ENDCHAR
STARTCHAR figuredash
ENCODING 8210
SWIDTH 500 0
DWIDTH 12 0
BBX 12 2 0 6
BITMAP
FFF0
FFF0
ENDCHAR
STARTCHAR endash
ENCODING 8211
SWIDTH 500 0
DWIDTH 12 0
BBX 12 2 0 6
BITMAP
FFF0
FFF0
ENDCHAR
STARTCHAR emdash
ENCODING 8212
SWIDTH 1000 0
DWIDTH 25 0
BBX 25 2 0 6
BITMAP
FFFFFF80
FFFFFF80
ENDCHAR
STARTCHAR afii00208
ENCODING 8213
SWIDTH 1000 0
DWIDTH 25 0
BBX 25 2 0 6
BITMAP
FFFFFF80
FFFFFF80
ENDCHAR
STARTCHAR quoteleft
ENCODING 8216
SWIDTH 259 0
DWIDTH 6 0
BBX 5 8 0 10
BITMAP
08
10
20
40
F0
F8
F8
70
ENDCHAR
STARTCHAR quoteright
ENCODING 8217
SWIDTH 259 0
DWIDTH 6 0
BBX 5 8 0 10
BITMAP
70
F8
F8
78
10
20
40
80
ENDCHAR
STARTCHAR quotesinglbase
ENCODING 8218
SWIDTH 259 0
DWIDTH 7 0
BBX 5 8 0 -4
BITMAP
70
F8
F8
78
10
20
40
80
ENDCHAR
STARTCHAR quotereversed
ENCODING 8219
SWIDTH 259 0
DWIDTH 6 0
BBX 5 8 0 10
BITMAP
70
F8
F8
F0
40
20
10
08
ENDCHAR
STARTCHAR quotedblleft
ENCODING 8220
SWIDTH 481 0
DWIDTH 12 0
BBX 11 8 0 10
BITMAP
0820
1040
2080
4100
F3C0
FBE0
FBE0
71C0
ENDCHAR
STARTCHAR quotedblright
ENCODING 8221
SWIDTH 481 0
DWIDTH 12 0
BBX 11 8 0 10
BITMAP
71C0
FBE0
FBE0
79E0
1040
2080
4100
8200
ENDCHAR
STARTCHAR quotedblbase
ENCODING 8222
SWIDTH 481 0
DWIDTH 13 0
BBX 11 8 0 -4
BITMAP
71C0
FBE0
FBE0
79E0
1040
2080
4100
8200
ENDCHAR
STARTCHAR uni201F
ENCODING 8223
SWIDTH 481 0
DWIDTH 12 0
BBX 11 8 0 10
BITMAP
71C0
FBE0
FBE0
F3C0
4100
2080
1040
0820
ENDCHAR
STARTCHAR dagger
ENCODING 8224
SWIDTH 500 0
DWIDTH 14 0
BBX 13 22 0 -4
BITMAP
0300
0780
0780
0300
6230
F278
FFF8
6430
0400
0E00
1F00
0E00
0C00
0C00
0800
0800
0800
1800
1000
1000
1000
1000
ENDCHAR
STARTCHAR daggerdbl
ENCODING 8225
SWIDTH 500 0
DWIDTH 16 0
BBX 15 22 0 -4
BITMAP
00C0
01E0
01E0
00C0
188C
3C9E
3FFE
190C
0100
0380
07C0
0380
0300
6230
F278
FFF8
6430
0400
0C00
1E00
1E00
0C00
ENDCHAR
STARTCHAR bullet
ENCODING 8226
SWIDTH 606 0
DWIDTH 11 0
BBX 8 8 1 4
BITMAP
3C
7E
FF
FF
FF
FF
7E
3C
ENDCHAR
STARTCHAR ellipsis
ENCODING 8230
SWIDTH 1000 0
DWIDTH 24 0
BBX 21 4 0 0
BITMAP
707070
F8F8F8
F8F8F8
707070
ENDCHAR
STARTCHAR perthousand
ENCODING 8240
SWIDTH 1167 0
DWIDTH 30 0
BBX 29 19 0 -1
BITMAP
0F040000
3C9C0000
38EC0000
70880000
70980000
E1100000
E1300000
E2200000
E461E0F0
784793C8
00C71388
008E1708
018E1708
011C2E10
031C2E10
021C4E20
061C8E40
040F0780
04000000
ENDCHAR
STARTCHAR guilsinglleft
ENCODING 8249
SWIDTH 278 0
DWIDTH 7 0
BBX 6 8 0 2
BITMAP
0C
18
30
60
C0
60
30
18
ENDCHAR
STARTCHAR guilsinglright
ENCODING 8250
SWIDTH 278 0
DWIDTH 7 0
BBX 6 8 0 2
BITMAP
60
30
18
0C
18
30
60
C0
ENDCHAR
STARTCHAR fraction
ENCODING 8260
SWIDTH 167 0
DWIDTH 5 0
BBX 10 18 -3 0
BITMAP
00C0
00C0
0180
0180
0300
0300
0600
0600
0C00
0C00
1800
1800
3000
3000
6000
6000
C000
C000
ENDCHAR
STARTCHAR oneinferior
ENCODING 8321
SWIDTH 344 0
DWIDTH 8 0
BBX 6 11 0 -5
BITMAP
04
0C
3C
18
18
18
38
30
30
30
FC
ENDCHAR
STARTCHAR twoinferior
ENCODING 8322
SWIDTH 344 0
DWIDTH 8 0
BBX 8 11 0 -5
BITMAP
1E
23
63
63
06
0C
18
30
62
FC
FC
ENDCHAR
STARTCHAR threeinferior
ENCODING 8323
SWIDTH 344 0
DWIDTH 8 0
BBX 8 11 0 -5
BITMAP
1E
23
63
63
06
1C
06
06
C6
CC
78
ENDCHAR
STARTCHAR uni20A5
ENCODING 8357
SWIDTH 944 0
DWIDTH 24 0
BBX 23 18 0 -3
BITMAP
000600
000600
000600
FC7C78
3CFCFC
3D3D3C
3E3E3C
7C7C78
787878
787878
787878
F0F0F0
F0F0F2
F0F0F4
F0F078
00C000
00C000
00C000
ENDCHAR
STARTCHAR uni20A6
ENCODING 8358
SWIDTH 852 0
DWIDTH 22 0
BBX 21 18 0 0
BITMAP
3E01F8
0F0060
0F8060
0FC060
0FE040
0FE040
0FFFC0
1FFFC0
18FCC0
18FC80
1FFF80
17FF80
101F80
301F00
300F00
300700
300300
FC0300
ENDCHAR
STARTCHAR uni20A9
ENCODING 8361
SWIDTH 944 0
DWIDTH 25 0
BBX 25 18 0 0
BITMAP
FF8F1F80
3E0F0600
3E0F0400
3E1F0C00
3E1F0800
3E1F0800
1FFFF800
1FFFF000
1F2F9000
1F6FB000
1FFFE000
1FFFE000
0F87C000
0F87C000
0F078000
07038000
06030000
06030000
ENDCHAR
STARTCHAR Euro
ENCODING 8364
SWIDTH 759 0
DWIDTH 18 0
BBX 20 18 -3 0
BITMAP
003F90
01F0F0
03C070
07C020
078020
0F8020
FFF000
FFF000
1F0000
1F0000
FFF000
FFF000
1F0000
0F0020
0F8060
0780C0
03C380
00FE00
ENDCHAR
STARTCHAR uni20AD
ENCODING 8365
SWIDTH 778 0
DWIDTH 20 0
BBX 20 18 0 0
BITMAP
3FE3F0
0F81C0
0F8180
0F8300
0F8600
0F8C00
1F1800
1F3000
FFFFF0
FFFFF0
1F7C00
1F3E00
3E3E00
3E1F00
3E1F80
3E0F80
3E0FC0
FF9FE0
ENDCHAR
STARTCHAR uni2103
ENCODING 8451
SWIDTH 1139 0
DWIDTH 27 0
BBX 26 18 0 0
BITMAP
3C00FE40
6607C3C0
C30F01C0
C31F0080
C31E0080
663E0080
3C3C0000
007C0000
007C0000
007C0000
007C0000
007C0000
007C0000
003C0080
003E0180
001E0300
000F0E00
0003F800
ENDCHAR
STARTCHAR uni2109
ENCODING 8457
SWIDTH 1084 0
DWIDTH 26 0
BBX 26 18 0 0
BITMAP
3C1FFFC0
6607C1C0
C307C0C0
C307C080
C307C080
6607C200
3C0F8200
000F8600
000FFE00
000F8C00
000F8400
000F8400
001F0400
001F0000
001F0000
001F0000
001F0000
007FC000
ENDCHAR
STARTCHAR trademark
ENCODING 8482
SWIDTH 950 0
DWIDTH 25 0
BBX 24 10 0 8
BITMAP
FFDE0F
CCCE0E
8C4B16
0C0B16
0C0B16
0C09A6
0C09A6
0C09A6
0C08C6
1E1CCF
ENDCHAR
STARTCHAR uni212A
ENCODING 8490
SWIDTH 778 0
DWIDTH 20 0
BBX 20 18 0 0
BITMAP
3FE3F0
0F81C0
0F8180
0F8300
0F8600
0F8C00
1F1800
1F3000
1F7800
1FF800
1F7C00
1F3E00
3E3E00
3E1F00
3E1F80
3E0F80
3E0FC0
FF9FE0
ENDCHAR
STARTCHAR uni212B
ENCODING 8491
SWIDTH 741 0
DWIDTH 20 0
BBX 20 23 -1 0
BITMAP
001C00
003600
002200
003600
001C00
000000
001800
001C00
003C00
007C00
007E00
00DE00
019E00
011F00
031F00
060F00
040F80
0FFF80
180F80
1807C0
3007C0
7007C0
FC1FF0
ENDCHAR
STARTCHAR uni2132
ENCODING 8498
SWIDTH 704 0
DWIDTH 17 0
BBX 17 18 0 0
BITMAP
00FF80
003E00
003E00
003E00
003E00
083E00
087C00
087C00
0C7C00
1FFC00
187C00
107C00
10F800
40F800
40F800
C0F800
E0F800
FFFE00
ENDCHAR
STARTCHAR minus
ENCODING 8722
SWIDTH 606 0
DWIDTH 15 0
BBX 11 2 2 6
BITMAP
FFE0
FFE0
ENDCHAR
STARTCHAR fraction
ENCODING 8725
SWIDTH 167 0
DWIDTH 5 0
BBX 10 18 -3 0
BITMAP
00C0
00C0
0180
0180
0300
0300
0600
0600
0C00
0C00
1800
1800
3000
3000
6000
6000
C000
C000
ENDCHAR
STARTCHAR periodcentered
ENCODING 8729
SWIDTH 287 0
DWIDTH 7 0
BBX 4 5 1 5
BITMAP
60
F0
F0
F0
60
ENDCHAR
STARTCHAR uni2236
ENCODING 8758
SWIDTH 287 0
DWIDTH 9 0
BBX 7 12 0 0
BITMAP
1C
3E
3E
1C
00
00
00
00
70
F8
F8
70
ENDCHAR
STARTCHAR uni2259
ENCODING 8793
SWIDTH 606 0
DWIDTH 15 0
BBX 12 12 1 4
BITMAP
0180
0380
0780
0CC0
18C0
0000
FFF0
FFF0
0000
0000
FFF0
FFF0
ENDCHAR
STARTCHAR uni225A
ENCODING 8794
SWIDTH 606 0
DWIDTH 15 0
BBX 12 12 1 4
BITMAP
18C0
1980
0F00
0E00
0C00
0000
FFF0
FFF0
0000
0000
FFF0
FFF0
ENDCHAR
STARTCHAR notequal
ENCODING 8800
SWIDTH 606 0
DWIDTH 15 0
BBX 12 18 1 -2
BITMAP
00C0
00C0
00C0
0180
0180
0180
FFF0
FFF0
0300
0600
FFF0
FFF0
0C00
0C00
0C00
1800
1800
1800
ENDCHAR
STARTCHAR equivalence
ENCODING 8801
SWIDTH 606 0
DWIDTH 15 0
BBX 12 8 0 3
BITMAP
FFF0
FFF0
0000
FFF0
FFF0
0000
FFF0
FFF0
ENDCHAR
STARTCHAR uni2262
ENCODING 8802
SWIDTH 606 0
DWIDTH 15 0
BBX 12 18 0 -2
BITMAP
00C0
00C0
00C0
0180
0180
FFF0
FFF0
0300
FFF0
FFF0
0600
FFF0
FFF0
0C00
0C00
1800
1800
1800
ENDCHAR
STARTCHAR lessequal
ENCODING 8804
SWIDTH 606 0
DWIDTH 16 0
BBX 13 18 1 -3
BITMAP
0008
0038
00F8
03E0
0F80
3E00
F800
E000
F800
3E00
0F80
03E0
00F8
0038
0008
0000
FFF8
FFF8
ENDCHAR
STARTCHAR greaterequal
ENCODING 8805
SWIDTH 606 0
DWIDTH 16 0
BBX 13 18 1 -3
BITMAP
8000
E000
F800
3E00
0F80
03E0
00F8
0038
00F8
03E0
0F80
3E00
F800
E000
8000
0000
FFF8
FFF8
ENDCHAR
STARTCHAR uni226E
ENCODING 8814
SWIDTH 606 0
DWIDTH 16 0
BBX 13 18 1 -1
BITMAP
00C0
00C0
00C8
01B8
01F8
03E0
0F80
3F00
FB00
E600
FE00
3E00
0F80
0FE0
0CF8
1838
1808
1800
ENDCHAR
STARTCHAR uni226F
ENCODING 8815
SWIDTH 606 0
DWIDTH 16 0
BBX 13 18 1 -1
BITMAP
00C0
00C0
80C0
E180
F980
3F80
0F80
03E0
03F8
0638
06F8
07E0
0F80
3E00
FC00
F800
9800
1800
ENDCHAR
STARTCHAR uni2270
ENCODING 8816
SWIDTH 606 0
DWIDTH 16 0
BBX 13 18 1 -3
BITMAP
00C8
00F8
00F8
03E0
0F80
3F80
FB00
E300
FB00
3E00
0F80
07E0
0CF8
0C38
0C08
1800
FFF8
FFF8
ENDCHAR
STARTCHAR uni2271
ENCODING 8817
SWIDTH 606 0
DWIDTH 16 0
BBX 13 18 1 -3
BITMAP
80C0
E0C0
F8C0
3F80
0F80
03E0
03F8
0338
03F8
07E0
0F80
3E00
FC00
EC00
8C00
1800
FFF8
FFF8
ENDCHAR
STARTCHAR fi
ENCODING -1
SWIDTH 685 0
DWIDTH 16 0
BBX 16 23 -1 -5
BITMAP
01FC
079E
079E
0F0C
0F00
0F00
3FFE
1E1E
1E1E
1E1E
1E3C
3C3C
3C3C
3C3C
3C78
7879
787A
783C
7800
F000
F000
F000
C000
ENDCHAR
STARTCHAR fl
ENCODING -1
SWIDTH 685 0
DWIDTH 16 0
BBX 16 23 -1 -5
BITMAP
01FF
079F
078F
0F0F
0F1E
0F1E
3FFE
1E1E
1E1E
1E3C
1E3C
3C3C
3C3C
3C3C
3C78
7879
787A
783C
7800
F000
F000
F000
C000
ENDCHAR
ENDFONT
